<svg xmlns="http://www.w3.org/2000/svg" width="432.314" height="188.979" viewBox="0 0 432.314 188.979"><defs><style>.a{fill:#d99e87;}.b{fill:#7fb9bf;}.c{fill:#c56950;}.d{fill:#a594bd;}.e{fill:#eccb83;}</style></defs><g transform="translate(-24.951 -111.385)"><path class="a" d="M120.732,316.607c-1.167-.729-2.333-1.458-3.427-2.26-1.75-1.312-1.6-3.427-2.114-5.177-1.385-4.812-2.552-9.7-3.864-14.582-.656-2.479-1.385-4.958-1.969-7.437-.292-1.312-1.021-1.239-1.969-1.094-1.094.146-1.531.583-1.239,1.823,1.823,6.781,3.645,13.634,5.4,20.488.146.583.292,1.239.437,2.041-2.916-1.531-4.958-3.208-5.614-6.562-1.021-5.1-2.625-10.061-3.791-15.165-.437-1.75-1.312-1.6-2.625-1.312-1.531.365-.8,1.385-.583,2.114.948,3.573,1.969,7.145,2.916,10.718.292,1.24,1.239,2.406.875,4.01-2.187-1.531-4.739-2.406-5.177-5.687-.437-2.916-1.6-5.76-2.26-8.676-.292-1.312-.948-1.6-2.187-1.385-6.926,1.239-13.853,2.479-20.852,3.645-1.9.365-3.791.729-5.687.948a1.33,1.33,0,0,0-1.239,1.021c-2.916,7.947-5.76,15.821-8.676,23.768l-3.5,9.405c-.365,1.094-.729,1.312-1.75.583-3.354-2.406-3.427-2.333-1.969-6.27,3.573-9.7,7.218-19.394,10.791-29.091,4.375-11.884,8.822-23.7,13.2-35.58,5.031-13.488,9.989-26.9,15.019-40.392.219-.51.365-1.021.583-1.531.292-.656.656-.8,1.239-.365,1.823,1.312,3.573,2.333,4.229,5.031,3.208,12.9,6.853,25.664,10.28,38.5,2.333,8.6,4.593,17.207,6.853,25.81,2.7,10.134,5.468,20.2,8.239,30.257A3.722,3.722,0,0,1,120.732,316.607ZM92.37,223.648c-.948,2.114-2.406,3.864-1.75,6.27,1.677,5.833,3.135,11.665,4.739,17.5,2.7,10.061,5.322,20.123,8.093,30.112.292,1.239,0,1.6-1.094,1.75-2.843.437-5.614,1.021-8.457,1.458-7.145,1.24-14.363,2.552-21.508,3.719-2.26.365-3.791,1.094-4.229,3.5-.146.875-.292,1.24.8,1.021,3.427-.656,6.781-1.239,10.207-1.823,9.041-1.6,18.081-3.281,27.2-4.812,1.6-.292,1.823-.729,1.385-2.187q-4.7-17.061-9.187-34.122C96.38,238.667,94.412,231.157,92.37,223.648ZM70.862,280.882c8.53-1.458,16.7-2.916,24.935-4.375,3.573-.656,3.5-.656,2.479-4.3-2.114-7.8-4.156-15.6-6.27-23.4-1.239-4.666-2.479-9.405-3.791-14.071-.875,1.968-2.552,3.645-1.969,5.833,2.7,10.134,5.468,20.342,8.312,30.4.437,1.677.146,2.187-1.531,2.406-6.489,1.021-12.978,2.26-19.394,3.354-1.094.219-1.9.583-2.114,1.823A12.873,12.873,0,0,1,70.862,280.882Zm2.916-8.166c5.4-.948,10.5-1.823,15.6-2.7,1.021-.146,1.021-.875.8-1.677l-1.312-4.812c-1.6-5.979-3.208-11.884-4.885-18.227C80.486,254.634,77.205,263.529,73.778,272.716Z" transform="translate(-6.505 -27.896)"/><path class="b" d="M568.156,169.149c-9.551,1.677-19.1,3.354-28.581,5.031-1.093.219-2.187,2.333-1.6,3.281.365.656.948.292,1.458.219,4.739-.8,9.551-1.677,14.29-2.552,5.687-1.021,11.447-1.969,17.134-3.062a3.994,3.994,0,0,1,3.792.948c.729.656,1.531,1.094,2.7,1.969-2.333.51-4.229.948-6.125,1.239-10.572,1.823-21.217,3.718-31.788,5.541a2.525,2.525,0,0,0-1.823,3.573c.365.583.8.292,1.239.219,8.749-1.531,17.571-3.062,26.32-4.593,4.958-.875,9.843-1.823,14.8-2.7a3.594,3.594,0,0,1,3.062.656c.948.729,1.9,1.385,3.135,2.26a37.184,37.184,0,0,1-6.416,1.312q-18.92,3.39-37.985,6.708c-4.666.8-4.666.8-5.031,5.468-.656,8.385-1.239,16.842-1.823,25.227,0,.51-.073.948-.073,1.458-.365,2.843-.365,2.771,2.479,2.26,8.676-1.531,17.425-3.062,26.1-4.593a2.449,2.449,0,0,1,2.187.51c.948.8,1.969,1.458,3.354,2.479-2.989.583-5.687,1.094-8.312,1.531l-24.716,4.375a2.614,2.614,0,0,0-1.75,3.5c.364.656.8.292,1.239.219,5.177-.875,10.353-1.823,15.53-2.7,7.072-1.24,14.144-2.479,21.217-3.791a2.01,2.01,0,0,1,1.9.365c1.167.875,2.333,1.677,3.718,2.625a51.763,51.763,0,0,1-7.583,1.531q-17.5,3.172-35,6.124c-1.9.292-1.531,1.677-1.6,2.7,0,1.385,1.24.8,1.9.729,4.666-.729,9.332-1.458,14-2.26,4.739-.8,9.406-1.75,14.072-2.625,4.958-.875,9.916-1.531,14.8-2.7,3.281-.8,5.541.437,7.8,2.771-3.281.656-6.416,1.239-9.551,1.823-7.218,1.312-14.509,2.552-21.727,3.791l-21.216,3.718a2.349,2.349,0,0,1-1.677-.437c-2.7-1.458-3.864-3.281-3.427-6.781,1.094-9.551,1.531-19.175,2.26-28.8q.766-10.936,1.531-21.873,1.2-16.186,2.406-32.372c.292-4.447.656-8.968.8-13.415.073-1.823.656-2.7,2.625-2.989,12.176-2.042,24.279-4.229,36.382-6.343,4.375-.8,8.749-1.458,13.051-2.26a3.1,3.1,0,0,1,2.843.656,37.388,37.388,0,0,0,3.208,2.333c-3.791.729-7.218,1.312-10.645,1.969-6.562,1.167-13.051,2.333-19.613,3.5-7.218,1.239-14.509,2.552-21.727,3.718-1.094.146-1.385.656-1.458,1.6-.583,8.822-1.239,17.644-1.823,26.466-.073,1.167-.073,1.9,1.531,1.531,7.072-1.312,14.29-2.333,21.362-3.864,3.135-.656,4.812,1.167,6.926,2.479A1.121,1.121,0,0,1,568.156,169.149Z" transform="translate(-136.41 -4.602)"/><path class="c" d="M256.5,295.878c-5.249.948-10.5,1.9-15.675,2.771-12.03,2.114-24.06,4.229-36.09,6.27-2.552.437-5.687-2.479-5.541-4.958l5.468-74.586c.583-8.02,1.094-16.04,1.677-23.987a3.944,3.944,0,0,1,.437-2.187c1.167.8,2.26,1.531,3.427,2.26.8.51.729,1.167.656,1.9L207.8,246.226c-.875,12.322-1.75,24.643-2.552,36.892-.146,2.333.073,2.479,2.333,2.041,8.822-1.6,17.717-3.062,26.539-4.666a1.881,1.881,0,0,1,1.531.219c1.167.8,2.26,1.677,3.791,2.7-5.322.948-10.28,1.823-15.165,2.7-6.124,1.094-12.249,2.187-18.373,3.208-2.042.365-1.167,1.969-1.239,3.062-.073,1.385,1.167.656,1.75.583l36.09-6.343a2.666,2.666,0,0,1,2.333.437c.948.8,1.969,1.458,3.281,2.406a37.732,37.732,0,0,1-6.562,1.385c-11.884,2.114-23.841,4.229-35.725,6.343-.656.146-1.385.073-1.6,1.094-.437,2.041,0,2.7,2.041,2.333,6.343-1.094,12.686-2.333,19.029-3.427,8.53-1.458,17.061-2.916,25.591-4.52,2.7-.51,3.791,1.9,5.687,2.625A.774.774,0,0,1,256.5,295.878Z" transform="translate(-47.204 -23.79)"/><path class="d" d="M446.913,160.874l-.875-.219c-.146-.146-.437-.365-.583-.146-.219.292.219.292.365.437,0,.948.875,1.531,1.167,2.916-1.823-1.385-3.646-2.114-4.666-3.791-.656-1.021-1.531-1.021-2.479-1.094-15.019-.437-26.174,6.051-33.611,18.956-5.177,8.968-7.437,18.884-8.895,29.018a148.518,148.518,0,0,0-1.385,26.685,61.186,61.186,0,0,0,2.114,14.509c.365,1.458,1.021,2.041,2.479,1.823a35.127,35.127,0,0,0,20.342-9.405,36.655,36.655,0,0,0,6.926-8.822c.51-.948.948-1.458,2.114-.51,3.208,2.479,3.281,2.406.948,5.833-6.781,10.134-16.332,15.457-28.508,16.186-.729.073-1.969-.292-1.969.8a2.22,2.22,0,0,0,2.187,2.041,34.27,34.27,0,0,0,23.768-6.853,35.689,35.689,0,0,0,9.916-11.228c.8-1.458,1.458-1.458,2.7-.51,2.916,2.26,3.062,2.26,1.167,5.177-6.416,9.7-15.311,15.457-26.976,16.7a28.981,28.981,0,0,1-9.405-.437c-.292.583.583.8.219,1.385-5.1-2.843-8.02-7.364-9.77-12.759-3.281-10.134-3.208-20.633-2.7-31.132a128.037,128.037,0,0,1,2.7-21.144c1.75-8.093,4.3-15.967,8.9-22.966a34.958,34.958,0,0,1,25.445-16.259c6.343-.948,12.322-.219,17.571,3.791a10.9,10.9,0,0,0,.948.8C447.059,160.728,446.986,160.8,446.913,160.874Z" transform="translate(-99.231 -12.003)"/><path class="b" d="M569.285,114.458c-4.374.729-8.676,1.531-13.051,2.26-9.041,1.6-18.154,3.208-27.2,4.812-3.791.656-7.51,1.385-11.3,1.969a1.513,1.513,0,0,0-1.531,1.6c-.51,7.874-.948,15.748-1.531,23.623-.656,9.332-1.385,18.592-2.041,27.924-.437,6.27-.729,12.54-1.167,18.811-.51,7.728-1.167,15.384-1.677,23.112-.219,2.7-.073,5.4-.656,8.166a25.92,25.92,0,0,1-3.937-2.479,1.5,1.5,0,0,1-.51-1.6c.583-7.51,1.094-15.019,1.677-22.529.437-5.541.8-11.082,1.166-16.623.583-8.385,1.167-16.7,1.75-25.081.365-5.76.729-11.447,1.094-17.207.437-6.562.948-13.124,1.385-19.685.073-.948.656-1.167,1.385-1.312,14.217-2.479,28.362-4.885,42.579-7.364,2.187-.365,4.374-.729,6.489-1.239,1.75-.365,3.281-.437,4.666.875a13.211,13.211,0,0,0,2.333,1.6C569.358,114.167,569.358,114.312,569.285,114.458Z" transform="translate(-129.956)"/><path class="b" d="M581.729,122.675c-7.583,1.312-14.655,2.552-21.654,3.791-5.906,1.021-11.738,2.041-17.644,3.062-3.791.656-7.51,1.385-11.3,1.969-1.75.292-2.625.656-2.771,2.771-.438,8.895-1.167,17.79-1.75,26.685-.729,9.989-1.385,19.9-2.114,29.893-.583,8.385-1.166,16.842-1.823,25.227-.437,6.051-.875,12.03-1.385,18.081a4.746,4.746,0,0,1-.146.8,19.029,19.029,0,0,1-4.01-2.625c-.583-.437-.437-1.094-.437-1.677.583-8.385,1.166-16.842,1.823-25.227.8-10.718,1.6-21.435,2.406-32.226.583-7.728,1.021-15.384,1.531-23.112.438-6.708.948-13.342,1.385-20.05.073-.948.365-1.312,1.385-1.458,6.926-1.167,13.78-2.333,20.706-3.573,9.624-1.677,19.321-3.208,28.945-5.249C577.938,119.175,579.4,121,581.729,122.675Z" transform="translate(-133.213 -2.238)"/><path class="a" d="M82.232,209.565c-.875,2.406-1.823,4.812-2.7,7.291-4.739,12.759-9.478,25.591-14.217,38.35-4.812,12.978-9.77,25.956-14.655,38.933-2.989,8.02-5.979,16.113-8.895,24.133-.729,2.041-.729,2.041-2.479.8-2.989-2.114-2.916-2.114-1.531-5.687,3.208-8.53,6.27-17.061,9.478-25.591q6.562-17.717,13.269-35.434c3.281-8.895,6.562-17.863,9.843-26.758,2.333-6.2,4.666-12.395,7-18.665.365-.948.729-1.312,1.677-.583.875.656,1.75,1.239,2.7,1.823A1.623,1.623,0,0,1,82.232,209.565Z" transform="translate(-3.22 -25.624)"/><path class="a" d="M70.263,201.36c-.8,2.114-1.677,4.448-2.479,6.708L58.16,234.1c-4.01,10.791-8.093,21.581-12.1,32.445-2.989,7.947-5.833,15.967-8.822,23.914L29.58,310.8c-.292.8-.583,1.167-1.385.51-.073-.073-.073-.073-.146-.073-3.645-2.187-3.645-2.26-2.187-6.2q8.093-21.764,16.186-43.6c4.812-12.978,9.77-25.956,14.582-39.006,1.969-5.322,3.864-10.645,5.833-15.967.948-2.625,2.041-5.249,2.989-7.874.292-.8.656-1.094,1.385-.583.948.656,1.969,1.385,2.916,2.041C70.117,200.412,70.482,200.7,70.263,201.36Z" transform="translate(0 -23.397)"/><path class="d" d="M379.953,243.426c-4.666-2.333-7.291-6.416-9.187-11.009a52.056,52.056,0,0,1-3.281-16.259,133.325,133.325,0,0,1,3.645-41.267c1.968-8.02,4.958-15.6,10.134-22.164a34.91,34.91,0,0,1,23.55-13.342c5.4-.729,10.645-.292,15.457,2.552a10.8,10.8,0,0,1,2.552,1.823c-.146.437-.437.292-.583.219-5.906-2.479-11.811-1.969-17.79-.437-10.5,2.7-17.79,9.478-22.821,18.811-4.812,8.968-7.072,18.738-8.385,28.726a138.054,138.054,0,0,0-1.312,24.5c.292,7.291,1.094,14.582,4.229,21.362a36.187,36.187,0,0,0,4.083,6.343C380.1,243.353,380.026,243.353,379.953,243.426Z" transform="translate(-92.712 -7.501)"/><path class="d" d="M392.639,252.38c-4.666-2.406-7.583-6.27-9.624-10.936a47.639,47.639,0,0,1-3.645-15.821,142.158,142.158,0,0,1,2.479-37.694c1.677-8.53,4.3-16.7,9.114-23.987,7.655-11.52,18.446-16.988,32.226-16.55,4.156.146,9.478,2.479,11.811,5.177a23,23,0,0,0-8.53-1.969c-13.561,0-23.987,5.833-31.278,17.134-4.812,7.437-7.364,15.821-9.041,24.425a145.489,145.489,0,0,0-2.552,31.788c.292,7.218,1.094,14.436,4.3,21.144,1.385,2.625,3.208,4.812,4.739,7.291Z" transform="translate(-95.92 -9.748)"/><path class="e" d="M309.349,206.233c.51-6.343,1.021-12.613,1.458-18.956.292-4.229.51-8.457.729-12.686l.219-3.718c.073-.583.51-1.167,1.094-.729.948.8,2.26,1.021,3.135,1.969a2.422,2.422,0,0,1,.656,1.969c-.365,4.739-.656,9.551-1.021,14.29-.583,7.437-1.167,14.873-1.677,22.31-.219,3.5-.365,7-.656,10.572-.51,7.655-1.094,15.384-1.6,23.039-.583,8.312-1.166,16.55-1.75,24.862-.146,1.823-.219,3.573-.365,5.4-.073.438.219,1.021-.292,1.312-.656.437-.948-.365-1.385-.583a9.088,9.088,0,0,1-2.187-1.531,2.383,2.383,0,0,1-.948-2.7,15.3,15.3,0,0,0,.51-4.083c.219-8.895,1.094-17.79,1.677-26.685.583-9.551,1.531-19.175,2.042-28.726.073-1.75.365-3.573.583-5.322A.137.137,0,0,1,309.349,206.233Z" transform="translate(-75.769 -15.877)"/><path class="c" d="M191.781,296.529c-.365-.146-.51-.146-.583-.219-3.208-1.458-4.01-3.718-3.718-7.364,1.75-21.508,3.135-43.016,4.666-64.525.729-10.791,1.458-21.508,2.187-32.3,0-.51.146-1.021.219-1.823,1.458,1.021,2.7,1.9,3.937,2.771.8.51.437,1.312.437,1.969L197.4,216.912c-1.312,18.519-2.552,37.038-3.864,55.557C193.02,280.562,192.364,288.509,191.781,296.529Z" transform="translate(-44.015 -21.379)"/><path class="e" d="M304.4,166.283c-.219,7.874-1.166,15.894-1.6,24.06-.219,4.52-.583,9.041-.948,13.561-.51,6.051-.292,12.176-1.24,18.227,0,.146-.073.365-.073.51,0,8.093-1.239,16.04-1.531,24.133-.219,6.489-.948,12.978-1.385,19.467-.073,1.312-.583,1.458-1.531.8-.583-.437-1.239-.8-1.823-1.167a3.059,3.059,0,0,1-1.385-3.354c.51-3.573.656-7.218.875-10.863.365-6.78.729-13.634,1.24-20.415.729-9.7,1.6-19.321,2.114-29.018.365-6.708.875-13.488,1.458-20.2.51-6.343,1.167-12.759,1.312-19.1,0-.437-.073-1.094.437-1.239.437-.146.729.292,1.094.51a13.258,13.258,0,0,0,1.677,1.094A2.321,2.321,0,0,1,304.4,166.283Z" transform="translate(-72.57 -13.62)"/><path class="e" d="M328.711,183.157c-1.094,8.676-1.094,17.352-2.042,26.029-.51,4.52-.51,9.041-.875,13.634-.583,8.02-1.239,16.04-1.75,24.133-.437,6.343-.729,12.613-1.166,18.956-.365,5.76-.875,11.52-1.385,17.352-.073.948-.438,1.312-1.385.729-3.573-2.187-3.354-2.114-3.062-6.416.292-5.614.729-11.228,1.166-16.842.583-7.51.948-15.019,1.677-22.456.365-3.645.583-7.364.8-11.082.365-6.708,1.021-13.342,1.385-19.977.219-4.083.729-8.093.875-12.176.219-5.1.729-10.134,1.021-15.165.073-1.385.583-1.385,1.531-.656C326.961,180.168,329.075,180.678,328.711,183.157Z" transform="translate(-79.091 -18.246)"/><path class="c" d="M179.814,288.6c-1.312-.948-2.333-1.677-3.427-2.333a2.155,2.155,0,0,1-1.094-2.406c.875-11.738,1.75-23.55,2.552-35.288.729-9.843,1.312-19.758,2.041-29.6.8-11.738,1.677-23.4,2.552-35.142,0-.437-.219-1.094.365-1.239.437-.146.729.365,1.094.51,2.916,1.167,3.062,3.5,2.843,6.27q-2.187,30.294-4.229,60.587l-2.406,35.653C180.033,286.559,179.96,287.434,179.814,288.6Z" transform="translate(-40.725 -19.283)"/><path class="d" d="M409.6,292.842c11.374,5.031,28.58-.583,36.236-10.426a68.514,68.514,0,0,0,4.52-6.489c.51-.8.948-.948,1.677-.438,4.083,2.989,4.156,1.9,1.385,6.124-6.562,9.916-15.894,15.165-27.778,16.186a21.434,21.434,0,0,1-15.384-4.083A1.093,1.093,0,0,1,409.6,292.842Z" transform="translate(-104.205 -44.376)"/><path class="d" d="M476.955,171.893c-4.156-1.531-5.687-5.031-7.655-8.093A18.318,18.318,0,0,1,476.955,171.893Z" transform="translate(-120.378 -14.2)"/><path class="d" d="M467.819,162.5c.292.073.583.146.583.51a.329.329,0,0,1-.219.219.618.618,0,0,1-.583-.51Z" transform="translate(-119.917 -13.847)"/><path class="d" d="M456.573,154.6a.071.071,0,0,1,.073.073c-.073,0-.073.073-.146.073C456.573,154.673,456.573,154.673,456.573,154.6Z" transform="translate(-116.91 -11.707)"/><path class="d" d="M385.9,283c.146.073.292.073.437.146-.292.292-.365.073-.437-.146Z" transform="translate(-97.784 -46.492)"/><path class="d" d="M387.3,284.2l.146.073H387.3Z" transform="translate(-98.163 -46.817)"/><path class="d" d="M397.7,291.4c.146.073.292.073.438.146-.073.073-.073.146-.146.219a1.281,1.281,0,0,0-.292-.365Z" transform="translate(-100.981 -48.767)"/><path class="d" d="M444.2,146.1h.146v.073Z" transform="translate(-113.578 -9.404)"/><path class="d" d="M385.137,282.437c-.146-.073-.292-.219-.437-.292.073-.073.146-.146.219-.146l.365.365Z" transform="translate(-97.459 -46.221)"/><path class="d" d="M385.346,282.5a1.589,1.589,0,0,0,.292.365h0c-.146-.073-.292-.219-.437-.292A.254.254,0,0,0,385.346,282.5Z" transform="translate(-97.595 -46.356)"/></g></svg>