<?xml version="1.0" encoding="utf-8"?>
<!-- Generator: Adobe Illustrator 24.2.3, SVG Export Plug-In . SVG Version: 6.00 Build 0)  -->
<svg version="1.1" id="Layer_1" xmlns="http://www.w3.org/2000/svg" xmlns:xlink="http://www.w3.org/1999/xlink" x="0px" y="0px"
	 viewBox="0 0 200 200" style="enable-background:new 0 0 200 200;" xml:space="preserve">
<style type="text/css">
	.st0{fill:#FAFAFA;}
</style>
<path class="st0" d="M118.7,100l52.4-52.4c5.2-5.2,5.2-13.6,0-18.7s-13.6-5.2-18.7,0l0,0L100,81.3L47.6,28.9
	c-5.2-5.2-13.6-5.2-18.7,0s-5.2,13.6,0,18.7L81.3,100l-52.4,52.4c-5.2,5.2-5.2,13.6,0,18.7c5.2,5.2,13.6,5.2,18.7,0l52.4-52.4
	l52.4,52.4c5.2,5.2,13.6,5.2,18.7,0c5.2-5.2,5.2-13.6,0-18.7L118.7,100z"/>
</svg>
