<?xml version="1.0" encoding="utf-8"?>
<!-- Generator: Adobe Illustrator 24.2.3, SVG Export Plug-In . SVG Version: 6.00 Build 0)  -->
<svg version="1.1" id="Layer_1" xmlns="http://www.w3.org/2000/svg" xmlns:xlink="http://www.w3.org/1999/xlink" x="0px" y="0px"
	 viewBox="0 0 152 40" style="enable-background:new 0 0 152 40;" xml:space="preserve">
<style type="text/css">
	.st0{fill:#7FB9BF;}
	.st1{fill:#C56950;}
	.st2{fill:#ECCB83;}
</style>
<path class="st0" d="M150.9,10.2l-4.1-7.4c-0.4-0.7-1-1.1-1.7-1.1h-25.4c-0.7,0-1.3,0.4-1.7,1.1l-4.1,7.4c-2.1,3.8-0.2,9.1,3.7,9.7
	c0.3,0,0.6,0.1,0.9,0.1c1.9,0,3.5-0.9,4.6-2.4c1.1,1.4,2.8,2.4,4.6,2.4c1.9,0,3.5-0.9,4.6-2.4c1.1,1.4,2.8,2.4,4.6,2.4
	c1.9,0,3.5-0.9,4.6-2.4c1.1,1.4,2.8,2.4,4.6,2.4c0.3,0,0.6,0,0.9-0.1C151.1,19.3,153,14,150.9,10.2z M146.3,22.2
	c-0.6,0-1.3-0.1-1.9-0.3v7.1h-24.2V22c-0.6,0.2-1.2,0.3-1.9,0.3c-0.4,0-0.8,0-1.1-0.1c-0.4-0.1-0.7-0.1-1-0.3v14
	c0,1.3,0.9,2.3,2,2.3h28.2c1.1,0,2-1,2-2.3v-14c-0.3,0.1-0.7,0.2-1,0.3C147.1,22.2,146.7,22.2,146.3,22.2z"/>
<path class="st1" d="M38.4,19.5H4.1c-2.2,0-4,1.8-4,4s1.8,4,4,4h34.4c2.2,0,4-1.8,4-4S40.6,19.5,38.4,19.5L38.4,19.5z M39.7,30.1
	h-37c-0.7,0-1.3,0.6-1.3,1.3v1.3c0,2.9,2.4,5.3,5.3,5.3h29.1c2.9,0,5.3-2.4,5.3-5.3v-1.3C41.1,30.7,40.5,30.1,39.7,30.1z M4.9,16.9
	h32.6c2.9,0,4.5-3.6,2.9-6.3C37.1,5.2,29.8,1,21.2,1C12.7,1,5.4,5.2,2.1,10.6C0.4,13.2,2.1,16.9,4.9,16.9z M31.8,7.6
	c0.7,0,1.3,0.6,1.3,1.3s-0.6,1.3-1.3,1.3c-0.7,0-1.3-0.6-1.3-1.3S31.1,7.6,31.8,7.6z M21.2,5c0.7,0,1.3,0.6,1.3,1.3S22,7.6,21.2,7.6
	S19.9,7,19.9,6.3S20.5,5,21.2,5z M10.7,7.6c0.7,0,1.3,0.6,1.3,1.3s-0.6,1.3-1.3,1.3S9.4,9.7,9.4,8.9S9.9,7.6,10.7,7.6z"/>
<path class="st2" d="M96.6,4.5C98.3,2.8,97.1,0,94.7,0H60c-2.3,0-3.5,2.8-1.9,4.5l16.7,16.7v15h-4.4c-1.7,0-3.1,1.4-3.1,3.1
	c0,0.3,0.3,0.6,0.6,0.6h18.8c0.3,0,0.6-0.3,0.6-0.6c0-1.7-1.4-3.1-3.1-3.1h-4.4v-15L96.6,4.5z M92,3.8l-3.8,3.8H66.4l-3.8-3.8H92z"
	/>
</svg>
