<?xml version="1.0" encoding="utf-8"?>
<!-- Generator: Adobe Illustrator 24.3.0, SVG Export Plug-In . SVG Version: 6.00 Build 0)  -->
<svg version="1.1" id="Layer_1" xmlns="http://www.w3.org/2000/svg" xmlns:xlink="http://www.w3.org/1999/xlink" x="0px" y="0px"
	 viewBox="0 0 797.9 494" style="enable-background:new 0 0 797.9 494;" xml:space="preserve">
<style type="text/css">
	.st0{fill:#D99E87;}
	.st1{fill:#7FB9BF;}
	.st2{fill:#C56950;}
	.st3{fill:#A594BD;}
	.st4{fill:#ECCB83;}
</style>
<g transform="translate(-24.951 -111.385)">
	<path class="st0" d="M297,441.2c-1.2-0.7-2.3-1.5-3.4-2.3c-1.8-1.3-1.6-3.4-2.1-5.2c-1.4-4.8-2.6-9.7-3.9-14.6
		c-0.7-2.5-1.4-5-2-7.4c-0.3-1.3-1-1.2-2-1.1c-1.1,0.1-1.5,0.6-1.2,1.8c1.8,6.8,3.6,13.6,5.4,20.5c0.1,0.6,0.3,1.2,0.4,2
		c-2.9-1.5-5-3.2-5.6-6.6c-1-5.1-2.6-10.1-3.8-15.2c-0.4-1.8-1.3-1.6-2.6-1.3c-1.5,0.4-0.8,1.4-0.6,2.1c0.9,3.6,2,7.1,2.9,10.7
		c0.3,1.2,1.2,2.4,0.9,4c-2.2-1.5-4.7-2.4-5.2-5.7c-0.4-2.9-1.6-5.8-2.3-8.7c-0.3-1.3-0.9-1.6-2.2-1.4c-6.9,1.2-13.9,2.5-20.9,3.6
		c-1.9,0.4-3.8,0.7-5.7,0.9c-0.6,0-1.1,0.4-1.2,1c-2.9,7.9-5.8,15.8-8.7,23.8l-3.5,9.4c-0.4,1.1-0.7,1.3-1.8,0.6
		c-3.4-2.4-3.4-2.3-2-6.3c3.6-9.7,7.2-19.4,10.8-29.1c4.4-11.9,8.8-23.7,13.2-35.6c5-13.5,10-26.9,15-40.4c0.2-0.5,0.4-1,0.6-1.5
		c0.3-0.7,0.7-0.8,1.2-0.4c1.8,1.3,3.6,2.3,4.2,5c3.2,12.9,6.9,25.7,10.3,38.5c2.3,8.6,4.6,17.2,6.9,25.8
		c2.7,10.1,5.5,20.2,8.2,30.3C297,439.5,297.1,440.4,297,441.2z M268.6,348.2c-0.9,2.1-2.4,3.9-1.8,6.3c1.7,5.8,3.1,11.7,4.7,17.5
		c2.7,10.1,5.3,20.1,8.1,30.1c0.3,1.2,0,1.6-1.1,1.8c-2.8,0.4-5.6,1-8.5,1.5c-7.1,1.2-14.4,2.6-21.5,3.7c-2.3,0.4-3.8,1.1-4.2,3.5
		c-0.1,0.9-0.3,1.2,0.8,1c3.4-0.7,6.8-1.2,10.2-1.8c9-1.6,18.1-3.3,27.2-4.8c1.6-0.3,1.8-0.7,1.4-2.2c-3.1-11.4-6.2-22.7-9.2-34.1
		C272.6,363.3,270.7,355.7,268.6,348.2z M247.1,405.5c8.5-1.5,16.7-2.9,24.9-4.4c3.6-0.7,3.5-0.7,2.5-4.3
		c-2.1-7.8-4.2-15.6-6.3-23.4c-1.2-4.7-2.5-9.4-3.8-14.1c-0.9,2-2.6,3.6-2,5.8c2.7,10.1,5.5,20.3,8.3,30.4c0.4,1.7,0.1,2.2-1.5,2.4
		c-6.5,1-13,2.3-19.4,3.4c-1.1,0.2-1.9,0.6-2.1,1.8C247.6,403.9,247.4,404.7,247.1,405.5z M250,397.3c5.4-0.9,10.5-1.8,15.6-2.7
		c1-0.1,1-0.9,0.8-1.7l-1.3-4.8c-1.6-6-3.2-11.9-4.9-18.2C256.8,379.2,253.5,388.1,250,397.3z"/>
	<path class="st1" d="M614.5,317c-9.6,1.7-19.1,3.4-28.6,5c-1.1,0.2-2.2,2.3-1.6,3.3c0.4,0.7,0.9,0.3,1.5,0.2
		c4.7-0.8,9.6-1.7,14.3-2.6c5.7-1,11.4-2,17.1-3.1c1.3-0.4,2.8,0,3.8,0.9c0.7,0.7,1.5,1.1,2.7,2c-2.3,0.5-4.2,0.9-6.1,1.2
		c-10.6,1.8-21.2,3.7-31.8,5.5c-1.4,0.3-2.3,1.6-2,2.9c0,0.2,0.1,0.4,0.2,0.6c0.4,0.6,0.8,0.3,1.2,0.2c8.7-1.5,17.6-3.1,26.3-4.6
		c5-0.9,9.8-1.8,14.8-2.7c1.1-0.3,2.2,0,3.1,0.7c0.9,0.7,1.9,1.4,3.1,2.3c-2.1,0.6-4.2,1.1-6.4,1.3c-12.6,2.3-25.3,4.5-38,6.7
		c-4.7,0.8-4.7,0.8-5,5.5c-0.7,8.4-1.2,16.8-1.8,25.2c0,0.5-0.1,0.9-0.1,1.5c-0.4,2.8-0.4,2.8,2.5,2.3c8.7-1.5,17.4-3.1,26.1-4.6
		c0.8-0.2,1.6,0,2.2,0.5c0.9,0.8,2,1.5,3.4,2.5c-3,0.6-5.7,1.1-8.3,1.5l-24.7,4.4c-1.4,0.4-2.2,1.8-1.8,3.2c0,0.1,0.1,0.2,0.1,0.3
		c0.4,0.7,0.8,0.3,1.2,0.2c5.2-0.9,10.4-1.8,15.5-2.7c7.1-1.2,14.1-2.5,21.2-3.8c0.7-0.2,1.4-0.1,1.9,0.4c1.2,0.9,2.3,1.7,3.7,2.6
		c-2.5,0.7-5,1.2-7.6,1.5c-11.7,2.1-23.3,4.2-35,6.1c-1.9,0.3-1.5,1.7-1.6,2.7c0,1.4,1.2,0.8,1.9,0.7c4.7-0.7,9.3-1.5,14-2.3
		s9.4-1.8,14.1-2.6c5-0.9,9.9-1.5,14.8-2.7c3.3-0.8,5.5,0.4,7.8,2.8c-3.3,0.7-6.4,1.2-9.6,1.8c-7.2,1.3-14.5,2.6-21.7,3.8l-21.2,3.7
		c-0.6,0.1-1.2-0.1-1.7-0.4c-2.7-1.5-3.9-3.3-3.4-6.8c1.1-9.6,1.5-19.2,2.3-28.8c0.5-7.3,1-14.6,1.5-21.9
		c0.8-10.8,1.6-21.6,2.4-32.4c0.3-4.4,0.7-9,0.8-13.4c0.1-1.8,0.7-2.7,2.6-3c12.2-2,24.3-4.2,36.4-6.3c4.4-0.8,8.7-1.5,13.1-2.3
		c1-0.3,2.1,0,2.8,0.7c1,0.8,2.1,1.6,3.2,2.3c-3.8,0.7-7.2,1.3-10.6,2c-6.6,1.2-13.1,2.3-19.6,3.5c-7.2,1.2-14.5,2.6-21.7,3.7
		c-1.1,0.1-1.4,0.7-1.5,1.6c-0.6,8.8-1.2,17.6-1.8,26.5c-0.1,1.2-0.1,1.9,1.5,1.5c7.1-1.3,14.3-2.3,21.4-3.9
		c3.1-0.7,4.8,1.2,6.9,2.5C614.6,316.8,614.6,316.9,614.5,317z"/>
	<path class="st2" d="M392.1,424.6c-5.2,0.9-10.5,1.9-15.7,2.8c-12,2.1-24.1,4.2-36.1,6.3c-2.6,0.4-5.7-2.5-5.5-5l5.5-74.6
		c0.6-8,1.1-16,1.7-24c-0.1-0.8,0.1-1.5,0.4-2.2c1.2,0.8,2.3,1.5,3.4,2.3c0.8,0.5,0.7,1.2,0.7,1.9l-3.1,42.9
		c-0.9,12.3-1.8,24.6-2.6,36.9c-0.1,2.3,0.1,2.5,2.3,2c8.8-1.6,17.7-3.1,26.5-4.7c0.5-0.1,1.1-0.1,1.5,0.2c1.2,0.8,2.3,1.7,3.8,2.7
		c-5.3,0.9-10.3,1.8-15.2,2.7c-6.1,1.1-12.2,2.2-18.4,3.2c-2,0.4-1.2,2-1.2,3.1c-0.1,1.4,1.2,0.7,1.8,0.6l36.1-6.3
		c0.8-0.2,1.7-0.1,2.3,0.4c0.9,0.8,2,1.5,3.3,2.4c-2.1,0.7-4.3,1.1-6.6,1.4c-11.9,2.1-23.8,4.2-35.7,6.3c-0.7,0.1-1.4,0.1-1.6,1.1
		c-0.4,2,0,2.7,2,2.3c6.3-1.1,12.7-2.3,19-3.4c8.5-1.5,17.1-2.9,25.6-4.5c2.7-0.5,3.8,1.9,5.7,2.6
		C392.2,424.2,392.2,424.4,392.1,424.6z"/>
	<path class="st3" d="M530.5,301.4l-0.9-0.2c-0.1-0.1-0.4-0.4-0.6-0.1c-0.2,0.3,0.2,0.3,0.4,0.4c0,0.9,0.9,1.5,1.2,2.9
		c-1.8-1.4-3.6-2.1-4.7-3.8c-0.7-1-1.5-1-2.5-1.1c-15-0.4-26.2,6.1-33.6,19c-5.2,9-7.4,18.9-8.9,29c-1.3,8.8-1.7,17.8-1.4,26.7
		c0.1,4.9,0.8,9.8,2.1,14.5c0.4,1.5,1,2,2.5,1.8c7.6-0.8,14.8-4.1,20.3-9.4c2.7-2.6,5.1-5.5,6.9-8.8c0.5-0.9,0.9-1.5,2.1-0.5
		c3.2,2.5,3.3,2.4,0.9,5.8c-6.8,10.1-16.3,15.5-28.5,16.2c-0.7,0.1-2-0.3-2,0.8c0.1,1.1,1,2,2.2,2c8.5,0.8,17-1.7,23.8-6.9
		c4.1-3,7.4-6.8,9.9-11.2c0.8-1.5,1.5-1.5,2.7-0.5c2.9,2.3,3.1,2.3,1.2,5.2c-6.4,9.7-15.3,15.5-27,16.7c-3.1,0.4-6.3,0.2-9.4-0.4
		c-0.3,0.6,0.6,0.8,0.2,1.4c-5.1-2.8-8-7.4-9.8-12.8c-3.3-10.1-3.2-20.6-2.7-31.1c0.3-7.1,1.2-14.2,2.7-21.1c1.8-8.1,4.3-16,8.9-23
		c5.6-9,14.9-15,25.4-16.3c6.3-0.9,12.3-0.2,17.6,3.8c0.3,0.3,0.6,0.6,0.9,0.8C530.6,301.2,530.5,301.3,530.5,301.4z"/>
	<path class="st1" d="M622.1,266.9c-4.4,0.7-8.7,1.5-13.1,2.3c-9,1.6-18.2,3.2-27.2,4.8c-3.8,0.7-7.5,1.4-11.3,2
		c-0.8,0-1.5,0.7-1.5,1.5v0.1c-0.5,7.9-0.9,15.7-1.5,23.6c-0.7,9.3-1.4,18.6-2,27.9c-0.4,6.3-0.7,12.5-1.2,18.8
		c-0.5,7.7-1.2,15.4-1.7,23.1c-0.2,2.7-0.1,5.4-0.7,8.2c-1.4-0.7-2.7-1.5-3.9-2.5c-0.5-0.4-0.7-1-0.5-1.6c0.6-7.5,1.1-15,1.7-22.5
		c0.4-5.5,0.8-11.1,1.2-16.6c0.6-8.4,1.2-16.7,1.8-25.1c0.4-5.8,0.7-11.4,1.1-17.2c0.4-6.6,0.9-13.1,1.4-19.7
		c0.1-0.9,0.7-1.2,1.4-1.3c14.2-2.5,28.4-4.9,42.6-7.4c2.2-0.4,4.4-0.7,6.5-1.2c1.8-0.4,3.3-0.4,4.7,0.9c0.7,0.6,1.5,1.2,2.3,1.6
		C622.2,266.7,622.2,266.8,622.1,266.9z"/>
	<path class="st1" d="M631.3,272.9c-7.6,1.3-14.7,2.6-21.7,3.8c-5.9,1-11.7,2-17.6,3.1c-3.8,0.7-7.5,1.4-11.3,2
		c-1.8,0.3-2.6,0.7-2.8,2.8c-0.4,8.9-1.2,17.8-1.8,26.7c-0.7,10-1.4,19.9-2.1,29.9c-0.6,8.4-1.2,16.8-1.8,25.2
		c-0.4,6.1-0.9,12-1.4,18.1c0,0.3-0.1,0.5-0.1,0.8c-1.4-0.7-2.8-1.6-4-2.6c-0.6-0.4-0.4-1.1-0.4-1.7c0.6-8.4,1.2-16.8,1.8-25.2
		c0.8-10.7,1.6-21.4,2.4-32.2c0.6-7.7,1-15.4,1.5-23.1c0.4-6.7,0.9-13.3,1.4-20.1c0.1-0.9,0.4-1.3,1.4-1.5
		c6.9-1.2,13.8-2.3,20.7-3.6c9.6-1.7,19.3-3.2,28.9-5.2C627.5,269.4,629,271.2,631.3,272.9z"/>
	<path class="st0" d="M261.8,336.4c-0.9,2.4-1.8,4.8-2.7,7.3c-4.7,12.8-9.5,25.6-14.2,38.4c-4.8,13-9.8,26-14.7,38.9
		c-3,8-6,16.1-8.9,24.1c-0.7,2-0.7,2-2.5,0.8c-3-2.1-2.9-2.1-1.5-5.7c3.2-8.5,6.3-17.1,9.5-25.6c4.4-11.8,8.8-23.6,13.3-35.4
		c3.3-8.9,6.6-17.9,9.8-26.8c2.3-6.2,4.7-12.4,7-18.7c0.4-0.9,0.7-1.3,1.7-0.6c0.9,0.7,1.8,1.2,2.7,1.8
		C261.7,335.4,261.8,335.9,261.8,336.4z"/>
	<path class="st0" d="M253,330.4c-0.8,2.1-1.7,4.4-2.5,6.7l-9.6,26c-4,10.8-8.1,21.6-12.1,32.4c-3,7.9-5.8,16-8.8,23.9l-7.7,20.3
		c-0.3,0.8-0.6,1.2-1.4,0.5c-0.1-0.1-0.1-0.1-0.1-0.1c-3.6-2.2-3.6-2.3-2.2-6.2c5.4-14.5,10.8-29,16.2-43.6c4.8-13,9.8-26,14.6-39
		c2-5.3,3.9-10.6,5.8-16c0.9-2.6,2-5.2,3-7.9c0.3-0.8,0.7-1.1,1.4-0.6c0.9,0.7,2,1.4,2.9,2C252.9,329.5,253.3,329.8,253,330.4z"/>
	<path class="st3" d="M470,388.4c-4.7-2.3-7.3-6.4-9.2-11c-2-5.2-3.1-10.7-3.3-16.3c-0.9-13.9,0.3-27.8,3.6-41.3
		c2-8,5-15.6,10.1-22.2c5.7-7.4,14.2-12.2,23.5-13.3c5.4-0.7,10.6-0.3,15.5,2.6c0.9,0.5,1.8,1.1,2.6,1.8c-0.1,0.4-0.4,0.3-0.6,0.2
		c-5.9-2.5-11.8-2-17.8-0.4c-10.5,2.7-17.8,9.5-22.8,18.8c-4.8,9-7.1,18.7-8.4,28.7c-1.2,8.1-1.6,16.3-1.3,24.5
		c0.3,7.3,1.1,14.6,4.2,21.4c1.1,2.3,2.5,4.4,4.1,6.3C470.2,388.3,470.1,388.3,470,388.4z"/>
	<path class="st3" d="M479.5,395.1c-4.7-2.4-7.6-6.3-9.6-10.9c-2.1-5-3.3-10.4-3.6-15.8c-0.9-12.6,0-25.3,2.5-37.7
		c1.7-8.5,4.3-16.7,9.1-24c7.7-11.5,18.4-17,32.2-16.5c4.2,0.1,9.5,2.5,11.8,5.2c-2.7-1.2-5.6-1.9-8.5-2c-13.6,0-24,5.8-31.3,17.1
		c-4.8,7.4-7.4,15.8-9,24.4c-2,10.5-2.9,21.1-2.6,31.8c0.3,7.2,1.1,14.4,4.3,21.1C476.1,390.5,478,392.6,479.5,395.1L479.5,395.1z"
		/>
	<path class="st4" d="M416.4,342.8c0.5-6.3,1-12.6,1.5-19c0.3-4.2,0.5-8.5,0.7-12.7l0.2-3.7c0.1-0.6,0.5-1.2,1.1-0.7
		c0.9,0.8,2.3,1,3.1,2c0.5,0.5,0.7,1.2,0.7,2c-0.4,4.7-0.7,9.6-1,14.3c-0.6,7.4-1.2,14.9-1.7,22.3c-0.2,3.5-0.4,7-0.7,10.6
		c-0.5,7.7-1.1,15.4-1.6,23c-0.6,8.3-1.2,16.6-1.8,24.9c-0.1,1.8-0.2,3.6-0.4,5.4c-0.1,0.4,0.2,1-0.3,1.3c-0.7,0.4-0.9-0.4-1.4-0.6
		c-0.8-0.4-1.5-0.9-2.2-1.5c-0.9-0.6-1.3-1.7-0.9-2.7c0.4-1.3,0.5-2.7,0.5-4.1c0.2-8.9,1.1-17.8,1.7-26.7c0.6-9.6,1.5-19.2,2-28.7
		c0.1-1.8,0.4-3.6,0.6-5.3C416.5,342.9,416.4,342.9,416.4,342.8C416.4,342.9,416.4,342.9,416.4,342.8z"/>
	<path class="st2" d="M330.5,427.6c-0.4-0.1-0.5-0.1-0.6-0.2c-3.2-1.5-4-3.7-3.7-7.4c1.8-21.5,3.1-43,4.7-64.5
		c0.7-10.8,1.5-21.5,2.2-32.3c0-0.5,0.1-1,0.2-1.8c1.5,1,2.7,1.9,3.9,2.8c0.8,0.5,0.4,1.3,0.4,2l-1.5,21.9
		c-1.3,18.5-2.6,37-3.9,55.6C331.8,411.7,331.1,419.6,330.5,427.6z"/>
	<path class="st4" d="M414.6,305.1c-0.2,7.9-1.2,15.9-1.6,24.1c-0.2,4.5-0.6,9-0.9,13.6c-0.5,6.1-0.3,12.2-1.2,18.2
		c0,0.1-0.1,0.4-0.1,0.5c0,8.1-1.2,16-1.5,24.1c-0.2,6.5-0.9,13-1.4,19.5c-0.1,1.3-0.6,1.5-1.5,0.8c-0.6-0.4-1.2-0.8-1.8-1.2
		c-1.1-0.7-1.7-2.1-1.4-3.4c0.5-3.6,0.7-7.2,0.9-10.9c0.4-6.8,0.7-13.6,1.2-20.4c0.7-9.7,1.6-19.3,2.1-29c0.4-6.7,0.9-13.5,1.5-20.2
		c0.5-6.3,1.2-12.8,1.3-19.1c0-0.4-0.1-1.1,0.4-1.2c0.4-0.1,0.7,0.3,1.1,0.5c0.5,0.4,1.1,0.8,1.7,1.1
		C414.5,302.6,415.1,304,414.6,305.1z"/>
	<path class="st4" d="M432.4,317.4c-1.1,8.7-1.1,17.4-2,26c-0.5,4.5-0.5,9-0.9,13.6c-0.6,8-1.2,16-1.8,24.1
		c-0.4,6.3-0.7,12.6-1.2,19c-0.4,5.8-0.9,11.5-1.4,17.4c-0.1,0.9-0.4,1.3-1.4,0.7c-3.6-2.2-3.4-2.1-3.1-6.4
		c0.3-5.6,0.7-11.2,1.2-16.8c0.6-7.5,0.9-15,1.7-22.5c0.4-3.6,0.6-7.4,0.8-11.1c0.4-6.7,1-13.3,1.4-20c0.2-4.1,0.7-8.1,0.9-12.2
		c0.2-5.1,0.7-10.1,1-15.2c0.1-1.4,0.6-1.4,1.5-0.7C430.6,314.4,432.8,314.9,432.4,317.4z"/>
	<path class="st2" d="M321.9,421.8c-1.3-0.9-2.3-1.7-3.4-2.3c-0.9-0.5-1.3-1.4-1.1-2.4c0.9-11.7,1.8-23.5,2.6-35.3
		c0.7-9.8,1.3-19.8,2-29.6c0.8-11.7,1.7-23.4,2.6-35.1c0-0.4-0.2-1.1,0.4-1.2c0.4-0.1,0.7,0.4,1.1,0.5c2.9,1.2,3.1,3.5,2.8,6.3
		c-1.5,20.2-2.9,40.4-4.2,60.6l-2.4,35.7C322.1,419.8,322,420.6,321.9,421.8z"/>
	<path class="st3" d="M488.2,401c11.4,5,28.6-0.6,36.2-10.4c1.6-2.1,3.1-4.2,4.5-6.5c0.5-0.8,0.9-0.9,1.7-0.4c4.1,3,4.2,1.9,1.4,6.1
		c-6.6,9.9-15.9,15.2-27.8,16.2c-5.5,0.7-11-0.8-15.4-4.1C488.5,401.7,488.2,401.3,488.2,401z"/>
	<path class="st3" d="M539.3,310.2c-4.2-1.5-5.7-5-7.7-8.1C535,303.9,537.7,306.8,539.3,310.2z"/>
	<path class="st3" d="M530.7,301.1c0.3,0.1,0.6,0.1,0.6,0.5c0,0.1-0.1,0.2-0.2,0.2c-0.3,0-0.5-0.2-0.6-0.5L530.7,301.1z"/>
	<path class="st3" d="M522.4,295.4C522.5,295.4,522.5,295.4,522.4,295.4C522.5,295.4,522.5,295.5,522.4,295.4c0,0.1,0,0.1-0.1,0.1
		C522.4,295.5,522.4,295.5,522.4,295.4z"/>
	<path class="st3" d="M470.9,389c0.1,0.1,0.3,0.1,0.4,0.1C471,389.4,471,389.2,470.9,389z"/>
	<path class="st3" d="M471.9,389.9l0.1,0.1L471.9,389.9L471.9,389.9z"/>
	<path class="st3" d="M479.5,395.1c0.1,0.1,0.3,0.1,0.4,0.1c-0.1,0.1-0.1,0.1-0.1,0.2C479.7,395.3,479.6,395.2,479.5,395.1z"/>
	<path class="st3" d="M513.4,289.2L513.4,289.2l0.1,0.1L513.4,289.2z"/>
	<path class="st3" d="M470.5,388.7c-0.1-0.1-0.3-0.2-0.4-0.3c0.1-0.1,0.1-0.1,0.2-0.1l0.4,0.4H470.5z"/>
	<path class="st3" d="M470.5,388.6c0.1,0.1,0.2,0.3,0.3,0.4l0,0c-0.1-0.1-0.3-0.2-0.4-0.3C470.4,388.7,470.5,388.7,470.5,388.6z"/>
</g>
</svg>
