<svg xmlns="http://www.w3.org/2000/svg" width="328.629" height="143.654" viewBox="0 0 328.629 143.654"><defs><style>.a{fill:#d99e87;}.b{fill:#7fb9bf;}.c{fill:#c56950;}.d{fill:#a594bd;}.e{fill:#eccb83;}</style></defs><g transform="translate(-24.951 -111.385)"><path class="a" d="M103.518,292.084c-.887-.554-1.774-1.108-2.6-1.718-1.33-1-1.219-2.6-1.607-3.935-1.053-3.658-1.94-7.371-2.937-11.085-.5-1.884-1.053-3.769-1.5-5.653-.222-1-.776-.942-1.5-.831-.831.111-1.164.443-.942,1.386,1.386,5.154,2.771,10.364,4.1,15.574.111.443.222.942.333,1.552-2.217-1.164-3.769-2.439-4.268-4.988-.776-3.88-2-7.648-2.882-11.528-.333-1.33-1-1.219-2-1-1.164.277-.61,1.053-.443,1.607.72,2.716,1.5,5.431,2.217,8.147.222.942.942,1.829.665,3.048-1.663-1.164-3.6-1.829-3.935-4.323-.333-2.217-1.219-4.378-1.718-6.6-.222-1-.721-1.219-1.663-1.053-5.265.942-10.53,1.884-15.851,2.771-1.441.277-2.882.554-4.323.72a1.011,1.011,0,0,0-.942.776c-2.217,6.041-4.378,12.027-6.6,18.068l-2.66,7.15c-.277.831-.554,1-1.33.443-2.549-1.829-2.6-1.774-1.5-4.766,2.716-7.371,5.487-14.742,8.2-22.114,3.325-9.034,6.706-18.012,10.032-27.046,3.824-10.253,7.593-20.451,11.417-30.7.166-.388.277-.776.443-1.164.222-.5.5-.61.942-.277,1.386,1,2.716,1.774,3.215,3.824,2.439,9.81,5.21,19.509,7.815,29.263,1.774,6.54,3.492,13.08,5.21,19.62,2.051,7.7,4.157,15.352,6.263,23A2.829,2.829,0,0,1,103.518,292.084ZM81.959,221.42c-.721,1.607-1.829,2.937-1.33,4.766,1.275,4.434,2.383,8.868,3.6,13.3,2.051,7.648,4.046,15.3,6.152,22.89.222.942,0,1.219-.831,1.33-2.161.332-4.268.776-6.429,1.108-5.431.942-10.918,1.94-16.35,2.827-1.718.277-2.882.831-3.215,2.66-.111.665-.222.942.61.776,2.6-.5,5.154-.942,7.759-1.386,6.872-1.219,13.745-2.494,20.673-3.658,1.219-.222,1.386-.554,1.053-1.663Q90.078,251.4,86.67,238.434C85.007,232.837,83.511,227.128,81.959,221.42Zm-16.35,43.507c6.484-1.108,12.692-2.217,18.955-3.325,2.716-.5,2.66-.5,1.884-3.27-1.607-5.93-3.159-11.86-4.766-17.791-.942-3.547-1.884-7.149-2.882-10.7-.665,1.5-1.94,2.771-1.5,4.434,2.051,7.7,4.157,15.463,6.318,23.111.333,1.275.111,1.663-1.164,1.829-4.933.776-9.865,1.718-14.742,2.549-.831.166-1.441.443-1.607,1.386A9.786,9.786,0,0,1,65.609,264.926Zm2.217-6.207c4.1-.72,7.981-1.386,11.86-2.051.776-.111.776-.665.61-1.275l-1-3.658c-1.219-4.545-2.439-9.034-3.713-13.856C72.925,244.974,70.431,251.736,67.826,258.719Z" transform="translate(-10.703 -45.902)"/><path class="b" d="M558.64,159.369c-7.26,1.275-14.521,2.549-21.726,3.824-.831.166-1.663,1.774-1.219,2.494.277.5.72.222,1.108.166,3.6-.61,7.26-1.275,10.863-1.94,4.323-.776,8.7-1.5,13.024-2.328a3.036,3.036,0,0,1,2.882.721c.554.5,1.164.831,2.051,1.5-1.774.388-3.214.721-4.656.942-8.036,1.386-16.128,2.827-24.164,4.212a1.92,1.92,0,0,0-1.385,2.716c.277.443.61.222.942.166,6.651-1.164,13.357-2.328,20.008-3.492,3.769-.665,7.482-1.386,11.251-2.051a2.732,2.732,0,0,1,2.328.5c.72.554,1.441,1.053,2.383,1.718a28.265,28.265,0,0,1-4.877,1q-14.382,2.577-28.875,5.1c-3.547.61-3.547.61-3.824,4.157-.5,6.374-.942,12.8-1.385,19.176,0,.388-.055.72-.055,1.108-.277,2.161-.277,2.106,1.884,1.718,6.6-1.164,13.246-2.328,19.841-3.492a1.861,1.861,0,0,1,1.663.388c.72.61,1.5,1.108,2.549,1.884-2.272.443-4.323.831-6.318,1.164l-18.788,3.325a1.987,1.987,0,0,0-1.33,2.66c.277.5.609.222.942.166,3.935-.665,7.87-1.386,11.805-2.051,5.376-.942,10.752-1.884,16.128-2.882a1.528,1.528,0,0,1,1.441.277c.887.665,1.773,1.275,2.827,2a39.347,39.347,0,0,1-5.764,1.164q-13.3,2.411-26.6,4.656c-1.441.222-1.164,1.275-1.219,2.051,0,1.053.942.61,1.441.554,3.547-.554,7.094-1.108,10.641-1.718,3.6-.61,7.15-1.33,10.7-2,3.769-.665,7.537-1.164,11.251-2.051,2.494-.61,4.212.333,5.93,2.106-2.494.5-4.877.942-7.26,1.386-5.487,1-11.029,1.94-16.516,2.882l-16.128,2.827a1.786,1.786,0,0,1-1.275-.333c-2.051-1.108-2.937-2.494-2.6-5.154.831-7.26,1.164-14.576,1.718-21.892q.582-8.313,1.164-16.627l1.829-24.608c.222-3.381.5-6.817.61-10.2.055-1.386.5-2.051,1.995-2.272,9.256-1.552,18.456-3.215,27.656-4.822,3.325-.61,6.651-1.108,9.921-1.718a2.357,2.357,0,0,1,2.161.5,28.408,28.408,0,0,0,2.439,1.774c-2.882.554-5.487,1-8.092,1.5-4.988.887-9.921,1.773-14.909,2.66-5.487.942-11.029,1.94-16.516,2.827-.831.111-1.053.5-1.108,1.219-.443,6.706-.942,13.412-1.386,20.118-.055.887-.055,1.441,1.164,1.164,5.376-1,10.863-1.774,16.239-2.937,2.383-.5,3.658.887,5.265,1.884A.852.852,0,0,1,558.64,159.369Z" transform="translate(-224.458 -7.572)"/><path class="c" d="M242.759,272.691c-3.99.721-7.981,1.441-11.916,2.106-9.145,1.607-18.29,3.215-27.434,4.766-1.94.333-4.323-1.884-4.212-3.769l4.157-56.7c.443-6.1.831-12.193,1.275-18.234a3,3,0,0,1,.333-1.663c.887.61,1.718,1.164,2.6,1.718.61.388.554.887.5,1.441l-2.328,32.589c-.665,9.366-1.33,18.733-1.94,28.044-.111,1.773.055,1.884,1.774,1.552,6.706-1.219,13.468-2.328,20.174-3.547a1.43,1.43,0,0,1,1.164.166c.887.61,1.718,1.275,2.882,2.051-4.046.72-7.815,1.386-11.528,2.051-4.656.831-9.311,1.663-13.967,2.439-1.552.277-.887,1.5-.942,2.328-.055,1.053.887.5,1.33.443l27.434-4.822a2.026,2.026,0,0,1,1.774.333c.721.61,1.5,1.108,2.494,1.829a28.683,28.683,0,0,1-4.988,1.053c-9.034,1.607-18.123,3.214-27.157,4.822-.5.111-1.053.055-1.219.831-.333,1.552,0,2.051,1.552,1.774,4.822-.831,9.644-1.774,14.465-2.6,6.484-1.108,12.969-2.217,19.453-3.436,2.051-.388,2.882,1.441,4.323,2A.589.589,0,0,1,242.759,272.691Z" transform="translate(-77.673 -39.145)"/><path class="d" d="M433.561,159.631l-.665-.166c-.111-.111-.333-.277-.443-.111-.166.222.166.222.277.333,0,.721.665,1.164.887,2.217-1.386-1.053-2.771-1.607-3.547-2.882-.5-.776-1.164-.776-1.884-.831-11.417-.333-19.9,4.6-25.55,14.41-3.935,6.817-5.653,14.355-6.762,22.058a112.9,112.9,0,0,0-1.053,20.285,46.513,46.513,0,0,0,1.607,11.029c.277,1.108.776,1.552,1.884,1.385a26.7,26.7,0,0,0,15.463-7.149,27.865,27.865,0,0,0,5.265-6.706c.388-.72.72-1.108,1.607-.388,2.439,1.884,2.494,1.829.72,4.434-5.154,7.7-12.415,11.75-21.67,12.3-.554.055-1.5-.222-1.5.61a1.687,1.687,0,0,0,1.663,1.552,26.051,26.051,0,0,0,18.068-5.21,27.13,27.13,0,0,0,7.537-8.535c.61-1.108,1.108-1.108,2.051-.388,2.217,1.718,2.328,1.718.887,3.935-4.877,7.371-11.639,11.75-20.506,12.692a22.03,22.03,0,0,1-7.15-.333c-.222.443.443.61.166,1.053-3.88-2.161-6.1-5.6-7.427-9.7-2.494-7.7-2.439-15.685-2.051-23.666a97.332,97.332,0,0,1,2.051-16.073c1.33-6.152,3.27-12.138,6.762-17.458a26.574,26.574,0,0,1,19.343-12.359c4.822-.721,9.366-.166,13.357,2.882a8.288,8.288,0,0,0,.72.61C433.672,159.52,433.616,159.575,433.561,159.631Z" transform="translate(-163.282 -19.75)"/><path class="b" d="M553.784,113.721c-3.325.554-6.6,1.164-9.921,1.718-6.872,1.219-13.8,2.439-20.673,3.658-2.882.5-5.708,1.053-8.59,1.5a1.15,1.15,0,0,0-1.164,1.219c-.388,5.986-.721,11.971-1.164,17.957-.5,7.094-1.053,14.133-1.552,21.227-.333,4.766-.554,9.533-.887,14.3-.388,5.875-.887,11.694-1.275,17.569a47.606,47.606,0,0,1-.5,6.207,19.7,19.7,0,0,1-2.993-1.884,1.137,1.137,0,0,1-.388-1.219c.443-5.709.831-11.417,1.275-17.126.332-4.212.61-8.424.887-12.636.443-6.374.887-12.692,1.33-19.065.277-4.378.554-8.7.831-13.08.333-4.988.721-9.976,1.053-14.964.055-.72.5-.887,1.053-1,10.807-1.884,21.559-3.713,32.367-5.6,1.663-.277,3.325-.554,4.933-.942,1.33-.277,2.494-.333,3.547.665a10.044,10.044,0,0,0,1.774,1.219C553.84,113.5,553.84,113.61,553.784,113.721Z" transform="translate(-213.839)"/><path class="b" d="M566.127,121.949c-5.764,1-11.14,1.94-16.461,2.882-4.489.776-8.923,1.552-13.412,2.328-2.882.5-5.709,1.053-8.591,1.5-1.33.222-2,.5-2.106,2.106-.333,6.762-.887,13.523-1.33,20.285-.554,7.593-1.053,15.13-1.607,22.723-.443,6.374-.887,12.8-1.385,19.176-.333,4.6-.665,9.145-1.053,13.745a3.608,3.608,0,0,1-.111.61,14.466,14.466,0,0,1-3.048-2c-.443-.333-.333-.831-.333-1.275.443-6.374.887-12.8,1.386-19.176.61-8.147,1.219-16.294,1.829-24.5.443-5.875.776-11.694,1.164-17.569.333-5.1.721-10.142,1.053-15.241.055-.72.277-1,1.053-1.108,5.265-.887,10.475-1.774,15.74-2.716,7.316-1.275,14.687-2.439,22-3.99C563.245,119.289,564.354,120.674,566.127,121.949Z" transform="translate(-219.199 -3.683)"/><path class="a" d="M71.344,208.7c-.665,1.829-1.386,3.658-2.051,5.542-3.6,9.7-7.2,19.453-10.807,29.152-3.658,9.865-7.427,19.73-11.14,29.6-2.272,6.1-4.545,12.248-6.762,18.345-.554,1.552-.554,1.552-1.884.61-2.272-1.607-2.217-1.607-1.164-4.323,2.439-6.485,4.766-12.969,7.2-19.453Q49.73,254.7,54.828,241.236c2.494-6.762,4.988-13.579,7.482-20.34,1.774-4.711,3.547-9.422,5.321-14.188.277-.721.554-1,1.275-.443.665.5,1.33.942,2.051,1.386A1.234,1.234,0,0,1,71.344,208.7Z" transform="translate(-5.298 -42.163)"/><path class="a" d="M59.4,200.494c-.61,1.607-1.275,3.381-1.884,5.1L50.2,225.379c-3.048,8.2-6.152,16.405-9.2,24.663-2.272,6.041-4.434,12.138-6.706,18.179L28.47,283.684c-.222.61-.443.887-1.053.388-.055-.055-.055-.055-.111-.055-2.771-1.663-2.771-1.718-1.663-4.711q6.152-16.544,12.3-33.143c3.658-9.865,7.427-19.73,11.085-29.651,1.5-4.046,2.937-8.092,4.434-12.138.72-2,1.552-3.99,2.272-5.986.222-.61.5-.831,1.053-.443.72.5,1.5,1.053,2.217,1.552C59.285,199.774,59.562,200,59.4,200.494Z" transform="translate(0 -38.5)"/><path class="d" d="M376.889,218.4c-3.547-1.774-5.542-4.877-6.983-8.369a39.571,39.571,0,0,1-2.494-12.359,101.349,101.349,0,0,1,2.771-31.369,43.211,43.211,0,0,1,7.7-16.849,26.537,26.537,0,0,1,17.9-10.142c4.1-.554,8.092-.222,11.75,1.94a8.209,8.209,0,0,1,1.94,1.386c-.111.333-.332.222-.443.166-4.489-1.884-8.979-1.5-13.523-.333-7.981,2.051-13.523,7.2-17.347,14.3-3.658,6.817-5.376,14.244-6.374,21.837a104.945,104.945,0,0,0-1,18.622c.222,5.542.831,11.085,3.215,16.239a27.507,27.507,0,0,0,3.1,4.822C377,218.343,376.944,218.343,376.889,218.4Z" transform="translate(-152.555 -12.343)"/><path class="d" d="M389.372,227.194a16.019,16.019,0,0,1-7.316-8.313,36.213,36.213,0,0,1-2.771-12.027A108.062,108.062,0,0,1,381.17,178.2c1.275-6.484,3.27-12.692,6.928-18.234,5.819-8.757,14.022-12.913,24.5-12.581,3.159.111,7.2,1.884,8.978,3.935a17.481,17.481,0,0,0-6.484-1.5c-10.309,0-18.234,4.434-23.776,13.024-3.658,5.653-5.6,12.027-6.872,18.567a110.594,110.594,0,0,0-1.94,24.164c.222,5.487.831,10.974,3.27,16.073,1.053,2,2.439,3.658,3.6,5.542Z" transform="translate(-157.834 -16.04)"/><path class="e" d="M308.218,197.541c.388-4.822.776-9.588,1.108-14.41.222-3.215.388-6.429.554-9.644l.166-2.827c.055-.443.388-.887.831-.554.721.61,1.718.776,2.383,1.5a1.841,1.841,0,0,1,.5,1.5c-.277,3.6-.5,7.26-.776,10.863-.443,5.653-.887,11.306-1.275,16.959-.166,2.66-.277,5.321-.5,8.036-.388,5.819-.831,11.694-1.219,17.514-.443,6.318-.887,12.581-1.33,18.9-.111,1.386-.166,2.716-.277,4.1-.055.333.166.776-.222,1-.5.333-.72-.277-1.053-.443a6.908,6.908,0,0,1-1.663-1.164,1.812,1.812,0,0,1-.721-2.051,11.629,11.629,0,0,0,.388-3.1c.166-6.762.831-13.523,1.275-20.285.443-7.26,1.164-14.576,1.552-21.837.055-1.33.277-2.716.443-4.046A.1.1,0,0,1,308.218,197.541Z" transform="translate(-124.676 -26.125)"/><path class="c" d="M190.736,271.051c-.277-.111-.388-.111-.443-.166-2.439-1.108-3.048-2.827-2.827-5.6,1.33-16.35,2.383-32.7,3.547-49.049.554-8.2,1.108-16.35,1.663-24.552,0-.388.111-.776.166-1.386,1.108.776,2.051,1.441,2.993,2.106.61.388.333,1,.333,1.5L195,210.529c-1,14.077-1.94,28.155-2.937,42.232C191.678,258.913,191.179,264.954,190.736,271.051Z" transform="translate(-72.426 -35.178)"/><path class="e" d="M301.624,165.174c-.166,5.986-.887,12.082-1.219,18.289-.166,3.436-.443,6.872-.72,10.309-.388,4.6-.222,9.256-.942,13.856,0,.111-.055.277-.055.388,0,6.152-.942,12.193-1.164,18.345-.166,4.933-.721,9.865-1.053,14.8-.055,1-.443,1.108-1.164.61-.443-.333-.942-.61-1.385-.887a2.326,2.326,0,0,1-1.053-2.549c.388-2.716.5-5.487.665-8.258.277-5.154.554-10.364.942-15.518.554-7.371,1.219-14.687,1.607-22.058.277-5.1.665-10.253,1.108-15.352.388-4.822.887-9.7,1-14.521,0-.333-.055-.831.333-.942.333-.111.554.222.831.388a10.081,10.081,0,0,0,1.275.831A1.765,1.765,0,0,1,301.624,165.174Z" transform="translate(-119.411 -22.411)"/><path class="e" d="M325.878,182.1c-.831,6.6-.831,13.191-1.552,19.786-.388,3.436-.388,6.872-.665,10.364-.443,6.1-.942,12.193-1.33,18.345-.332,4.822-.554,9.588-.887,14.41-.277,4.378-.665,8.757-1.053,13.191-.055.721-.333,1-1.053.554-2.716-1.663-2.549-1.607-2.328-4.877.222-4.268.554-8.535.887-12.8.443-5.709.721-11.417,1.275-17.07.277-2.771.443-5.6.61-8.424.277-5.1.776-10.142,1.053-15.186.166-3.1.554-6.152.665-9.256.166-3.88.554-7.7.776-11.528.055-1.053.443-1.053,1.164-.5C324.547,179.824,326.155,180.212,325.878,182.1Z" transform="translate(-130.142 -30.023)"/><path class="c" d="M178.726,263.169c-1-.72-1.774-1.275-2.6-1.774a1.638,1.638,0,0,1-.831-1.829c.665-8.923,1.33-17.9,1.94-26.825.554-7.482,1-15.02,1.552-22.5.61-8.923,1.275-17.791,1.94-26.714,0-.333-.166-.831.277-.942.333-.111.554.277.831.388,2.217.887,2.328,2.66,2.161,4.766q-1.663,23.028-3.215,46.056l-1.829,27.1C178.893,261.617,178.837,262.282,178.726,263.169Z" transform="translate(-67.012 -31.73)"/><path class="d" d="M409.6,288.609c8.646,3.824,21.726-.443,27.545-7.925a52.084,52.084,0,0,0,3.436-4.933c.388-.61.72-.721,1.275-.333,3.1,2.272,3.159,1.441,1.053,4.656-4.988,7.537-12.082,11.528-21.116,12.3a16.293,16.293,0,0,1-11.694-3.1A.831.831,0,0,1,409.6,288.609Z" transform="translate(-171.466 -73.02)"/><path class="d" d="M475.119,169.952c-3.159-1.164-4.323-3.824-5.819-6.152A13.925,13.925,0,0,1,475.119,169.952Z" transform="translate(-198.079 -23.365)"/><path class="d" d="M467.766,162.5c.222.055.443.111.443.388a.25.25,0,0,1-.166.166.47.47,0,0,1-.443-.388Z" transform="translate(-197.321 -22.786)"/><path class="d" d="M456.555,154.6a.054.054,0,0,1,.055.055c-.055,0-.055.055-.111.055C456.555,154.655,456.555,154.655,456.555,154.6Z" transform="translate(-192.373 -19.264)"/><path class="d" d="M385.9,283c.111.055.222.055.333.111-.222.222-.277.055-.333-.111Z" transform="translate(-160.901 -76.501)"/><path class="d" d="M387.3,284.2l.111.055H387.3Z" transform="translate(-161.525 -77.036)"/><path class="d" d="M397.7,291.4c.111.055.222.055.333.111-.055.055-.055.111-.111.166a.973.973,0,0,0-.222-.277Z" transform="translate(-166.161 -80.246)"/><path class="d" d="M444.2,146.1h.111v.055Z" transform="translate(-186.89 -15.475)"/><path class="d" d="M385.033,282.333c-.111-.055-.222-.166-.333-.222.055-.056.111-.111.166-.111l.277.277Z" transform="translate(-160.366 -76.055)"/><path class="d" d="M385.311,282.5a1.209,1.209,0,0,0,.222.277h0c-.111-.055-.222-.166-.333-.222A.193.193,0,0,0,385.311,282.5Z" transform="translate(-160.589 -76.278)"/></g></svg>