<?xml version="1.0" encoding="utf-8"?>
<!-- Generator: Adobe Illustrator 24.3.0, SVG Export Plug-In . SVG Version: 6.00 Build 0)  -->
<svg version="1.1" id="Layer_1" xmlns="http://www.w3.org/2000/svg" xmlns:xlink="http://www.w3.org/1999/xlink" x="0px" y="0px"
	 viewBox="0 0 797.9 262.2" style="enable-background:new 0 0 797.9 262.2;" xml:space="preserve">
<style type="text/css">
	.st0{fill:#D99E87;}
	.st1{fill:#7FB9BF;}
	.st2{fill:#C56950;}
	.st3{fill:#A594BD;}
	.st4{fill:#ECCB83;}
</style>
<g transform="translate(-24.951 -111.385)">
	<path class="st0" d="M247.7,357.6c-1.7-0.9-3.2-2.1-4.7-3.2c-2.5-1.8-2.3-4.7-2.9-7.2c-2-6.7-3.6-13.5-5.5-20.2
		c-0.9-3.5-2-7-2.8-10.3c-0.4-1.8-1.4-1.7-2.8-1.5c-1.5,0.1-2.1,0.8-1.7,2.5c2.5,9.4,5,18.9,7.5,28.5c0.1,0.8,0.4,1.7,0.6,2.8
		c-4-2.1-7-4.4-7.8-9.1c-1.4-7.1-3.6-14-5.3-21.1c-0.6-2.5-1.8-2.3-3.6-1.8c-2.1,0.6-1.1,2-0.8,2.9c1.2,5,2.8,9.9,4,14.9
		c0.4,1.7,1.7,3.3,1.2,5.6c-3-2.1-6.5-3.3-7.2-7.9c-0.6-4-2.3-8.1-3.2-12c-0.4-1.8-1.2-2.3-3-2c-9.6,1.7-19.3,3.5-29,5
		c-2.6,0.6-5.3,0.9-7.9,1.2c-0.8,0-1.5,0.6-1.7,1.4c-4,11-8.1,21.9-12,33l-4.9,13.1c-0.6,1.5-0.9,1.8-2.5,0.8
		c-4.7-3.3-4.7-3.2-2.8-8.7c5-13.5,10-26.9,15-40.4c6.1-16.6,12.2-32.9,18.3-49.4c7-18.7,13.9-37.3,20.8-56.1
		c0.3-0.7,0.6-1.4,0.8-2.1c0.4-0.9,0.9-1.1,1.7-0.6c2.5,1.8,5,3.2,5.8,7c4.4,17.9,9.6,35.7,14.3,53.4c3.2,11.9,6.4,23.9,9.6,35.8
		c3.8,14,7.6,28,11.4,42.1C247.7,355.3,247.9,356.5,247.7,357.6z M208.3,228.5c-1.2,2.9-3.3,5.5-2.5,8.7c2.4,8.1,4.3,16.3,6.5,24.3
		c3.8,14,7.3,27.9,11.3,41.8c0.4,1.7,0,2.3-1.5,2.5c-3.9,0.6-7.8,1.4-11.8,2.1c-9.9,1.7-20,3.6-29.8,5.2c-3.2,0.6-5.3,1.5-5.8,4.9
		c-0.1,1.2-0.4,1.7,1.1,1.4c4.7-0.9,9.4-1.7,14.2-2.5c12.5-2.3,25.1-4.6,37.7-6.7c2.3-0.4,2.5-0.9,2-3c-4.3-15.8-8.6-31.5-12.8-47.3
		C213.8,249.4,211.2,238.9,208.3,228.5z M178.5,308c11.8-2.1,23.1-4,34.5-6.1c5-0.9,4.9-0.9,3.5-5.9c-2.9-10.8-5.8-21.6-8.7-32.5
		c-1.7-6.5-3.5-13.1-5.3-19.6c-1.2,2.8-3.6,5-2.8,8.1c3.8,14,7.6,28.2,11.5,42.2c0.6,2.4,0.1,3-2.1,3.3c-9,1.4-18.1,3.2-26.9,4.7
		c-1.5,0.3-2.6,0.8-2.9,2.5C179.1,305.8,178.8,306.9,178.5,308z M182.5,296.7c7.5-1.2,14.6-2.5,21.6-3.8c1.4-0.1,1.4-1.2,1.1-2.4
		l-1.8-6.7c-2.3-8.4-4.4-16.6-6.8-25.3C191.9,271.5,187.3,283.9,182.5,296.7z"/>
	<path class="st1" d="M688.5,185.2c-13.4,2.4-26.5,4.7-39.7,7c-1.5,0.3-3,3.2-2.3,4.6c0.6,0.9,1.2,0.4,2.1,0.3
		c6.5-1.1,13.4-2.4,19.8-3.6c7.9-1.4,15.8-2.8,23.7-4.3c1.8-0.6,3.9,0,5.3,1.2c0.9,0.9,2.1,1.5,3.8,2.8c-3.2,0.7-5.8,1.2-8.5,1.7
		c-14.7,2.5-29.4,5.2-44.1,7.6c-2,0.4-3.2,2.3-2.8,4c0,0.3,0.1,0.6,0.3,0.8c0.6,0.8,1.1,0.4,1.7,0.3c12-2.1,24.5-4.3,36.5-6.4
		c7-1.2,13.6-2.5,20.5-3.8c1.5-0.4,3,0,4.3,0.9c1.2,0.9,2.6,2,4.3,3.2c-2.9,0.8-5.8,1.5-8.8,1.8c-17.5,3.2-35.1,6.2-52.8,9.3
		c-6.5,1.1-6.5,1.1-7,7.6c-0.9,11.7-1.7,23.3-2.5,35c0,0.7-0.1,1.2-0.1,2.1c-0.6,3.9-0.6,3.9,3.5,3.2c12-2.1,24.2-4.3,36.2-6.4
		c1.1-0.3,2.3,0,3,0.7c1.2,1.1,2.8,2.1,4.7,3.5c-4.1,0.8-7.9,1.5-11.5,2.1l-34.3,6.1c-2,0.6-3,2.5-2.5,4.4c0,0.1,0.1,0.3,0.1,0.4
		c0.6,0.9,1.1,0.4,1.7,0.3c7.2-1.2,14.4-2.5,21.5-3.8c9.9-1.7,19.6-3.5,29.4-5.3c0.9-0.3,2-0.1,2.6,0.6c1.7,1.2,3.2,2.4,5.2,3.6
		c-3.5,0.9-7,1.7-10.5,2.1c-16.3,2.9-32.4,5.8-48.6,8.5c-2.6,0.4-2.1,2.4-2.3,3.8c0,2,1.7,1.1,2.6,0.9c6.5-0.9,12.9-2.1,19.5-3.2
		c6.5-1.1,13.1-2.5,19.6-3.6c7-1.2,13.7-2.1,20.5-3.8c4.6-1.1,7.6,0.6,10.8,3.9c-4.6,0.9-8.8,1.7-13.4,2.5
		c-10,1.8-20.1,3.6-30.1,5.3l-29.4,5.2c-0.8,0.1-1.7-0.1-2.4-0.6c-3.8-2.1-5.5-4.6-4.7-9.4c1.5-13.4,2.1-26.6,3.2-40
		c0.7-10.2,1.4-20.2,2.1-30.4c1.1-15,2.3-30,3.3-45c0.4-6.1,0.9-12.5,1.1-18.6c0.1-2.5,0.9-3.8,3.6-4.1c16.9-2.8,33.8-5.8,50.5-8.7
		c6.1-1.1,12-2.1,18.2-3.2c1.4-0.4,2.9,0,3.9,0.9c1.4,1.1,2.9,2.3,4.4,3.2c-5.3,0.9-10,1.8-14.7,2.8c-9.1,1.7-18.2,3.2-27.2,4.9
		c-10,1.7-20.1,3.6-30.1,5.2c-1.5,0.1-2,0.9-2.1,2.3c-0.8,12.2-1.7,24.5-2.5,36.8c-0.1,1.7-0.1,2.6,2.1,2.1
		c9.9-1.8,19.8-3.2,29.7-5.5c4.3-0.9,6.7,1.7,9.6,3.5C688.6,184.9,688.6,185.1,688.5,185.2z"/>
	<path class="st2" d="M379.8,334.6c-7.2,1.2-14.6,2.6-21.8,3.9c-16.7,2.9-33.5,5.8-50.1,8.7c-3.6,0.6-7.9-3.5-7.6-7l7.6-103.6
		c0.8-11.1,1.5-22.2,2.4-33.3c-0.1-1.1,0.1-2.1,0.6-3c1.7,1.1,3.2,2.1,4.7,3.2c1.1,0.7,0.9,1.7,0.9,2.6l-4.3,59.5
		c-1.2,17.1-2.5,34.1-3.6,51.3c-0.1,3.2,0.1,3.5,3.2,2.8c12.2-2.3,24.6-4.3,36.8-6.5c0.7-0.1,1.5-0.1,2.1,0.3
		c1.7,1.1,3.2,2.4,5.3,3.8c-7.3,1.2-14.3,2.5-21.1,3.8c-8.5,1.5-16.9,3-25.6,4.4c-2.8,0.6-1.7,2.8-1.7,4.3c-0.1,2,1.7,0.9,2.5,0.8
		l50.1-8.7c1.1-0.3,2.4-0.1,3.2,0.6c1.2,1.1,2.8,2.1,4.6,3.3c-2.9,0.9-5.9,1.5-9.1,2c-16.6,2.9-33,5.8-49.6,8.7
		c-0.9,0.1-2,0.1-2.3,1.5c-0.6,2.8,0,3.8,2.8,3.2c8.7-1.5,17.6-3.2,26.3-4.7c11.8-2.1,23.7-4,35.6-6.2c3.8-0.7,5.3,2.6,7.9,3.6
		C379.9,334,379.9,334.3,379.8,334.6z"/>
	<path class="st3" d="M571.9,163.6l-1.2-0.3c-0.1-0.1-0.6-0.6-0.8-0.1c-0.3,0.4,0.3,0.4,0.6,0.6c0,1.2,1.2,2.1,1.7,4
		c-2.5-2-5-2.9-6.5-5.3c-0.9-1.4-2.1-1.4-3.5-1.5c-20.8-0.6-36.4,8.5-46.7,26.3c-7.2,12.5-10.3,26.2-12.3,40.3
		c-1.8,12.2-2.4,24.7-2,37.1c0.1,6.8,1.1,13.6,2.9,20.1c0.6,2.1,1.4,2.8,3.5,2.5c10.5-1.1,20.5-5.7,28.2-13.1
		c3.8-3.6,7.1-7.6,9.6-12.2c0.7-1.2,1.2-2.1,2.9-0.7c4.4,3.5,4.6,3.3,1.2,8.1c-9.4,14-22.7,21.5-39.6,22.5c-0.9,0.1-2.8-0.4-2.8,1.1
		c0.1,1.5,1.4,2.8,3,2.8c11.8,1.1,23.6-2.4,33-9.6c5.7-4.1,10.3-9.4,13.7-15.5c1.1-2.1,2.1-2.1,3.8-0.7c4,3.2,4.3,3.2,1.7,7.2
		c-8.8,13.5-21.3,21.5-37.4,23.1c-4.3,0.6-8.7,0.3-13.1-0.6c-0.4,0.8,0.8,1.1,0.3,2c-7.1-3.9-11.1-10.3-13.6-17.8
		c-4.6-14-4.4-28.6-3.8-43.2c0.4-9.9,1.7-19.8,3.8-29.3c2.5-11.3,5.9-22.2,12.3-31.9c7.8-12.5,20.7-20.8,35.3-22.7
		c8.7-1.2,17.1-0.3,24.5,5.3c0.4,0.4,0.8,0.8,1.2,1.1C572.1,163.3,571.9,163.4,571.9,163.6z"/>
	<path class="st1" d="M699,115.7c-6.1,0.9-12,2.1-18.2,3.2c-12.5,2.3-25.3,4.4-37.7,6.7c-5.3,0.9-10.4,2-15.7,2.8
		c-1.1,0-2.1,0.9-2.1,2.1v0.1c-0.7,11-1.2,21.8-2.1,32.7c-0.9,12.9-2,25.8-2.8,38.8c-0.6,8.7-0.9,17.3-1.7,26.1
		c-0.7,10.7-1.7,21.4-2.4,32.1c-0.3,3.8-0.1,7.5-0.9,11.4c-2-0.9-3.8-2.1-5.5-3.5c-0.7-0.6-0.9-1.4-0.7-2.3
		c0.8-10.4,1.5-20.8,2.4-31.2c0.6-7.6,1.1-15.4,1.7-23c0.8-11.7,1.7-23.1,2.5-34.8c0.6-8.1,0.9-15.8,1.5-23.9
		c0.6-9.1,1.2-18.2,2-27.4c0.1-1.2,0.9-1.7,2-1.8c19.8-3.5,39.4-6.8,59.2-10.3c3-0.6,6.1-0.9,9-1.7c2.5-0.6,4.6-0.6,6.5,1.2
		c0.9,0.8,2.1,1.7,3.2,2.3C699.1,115.4,699.1,115.5,699,115.7z"/>
	<path class="st1" d="M711.8,123.9c-10.5,1.8-20.4,3.6-30.1,5.3c-8.2,1.4-16.3,2.8-24.5,4.3c-5.3,0.9-10.4,2-15.7,2.8
		c-2.5,0.4-3.6,0.9-3.9,3.9c-0.6,12.3-1.7,24.7-2.5,37.1c-0.9,13.9-2,27.7-2.9,41.5c-0.8,11.7-1.7,23.3-2.5,35
		c-0.6,8.5-1.2,16.7-2,25.1c0,0.4-0.1,0.7-0.1,1.1c-2-0.9-3.9-2.3-5.6-3.6c-0.8-0.6-0.6-1.5-0.6-2.4c0.8-11.7,1.7-23.3,2.5-35
		c1.1-14.9,2.3-29.7,3.3-44.7c0.8-10.7,1.4-21.4,2.1-32.1c0.6-9.3,1.2-18.4,2-27.9c0.1-1.2,0.6-1.8,2-2.1c9.6-1.7,19.2-3.2,28.7-5
		c13.4-2.4,26.8-4.4,40.1-7.2C706.6,119.1,708.6,121.6,711.8,123.9z"/>
	<path class="st0" d="M198.9,212.1c-1.2,3.3-2.5,6.7-3.8,10.2c-6.5,17.8-13.2,35.6-19.8,53.3c-6.7,18.1-13.6,36.1-20.4,54
		c-4.1,11.1-8.4,22.4-12.3,33.5c-0.9,2.8-0.9,2.8-3.5,1.1c-4.1-2.9-4-2.9-2.1-7.9c4.4-11.8,8.7-23.7,13.2-35.6
		c6.1-16.4,12.2-32.7,18.4-49.1c4.6-12.3,9.1-24.8,13.6-37.3c3.2-8.6,6.5-17.2,9.7-26c0.6-1.2,0.9-1.8,2.4-0.8
		c1.2,0.9,2.5,1.7,3.8,2.5C198.7,210.8,198.9,211.4,198.9,212.1z"/>
	<path class="st0" d="M186.6,203.8c-1.1,2.9-2.4,6.1-3.5,9.3l-13.4,36.1c-5.6,15-11.3,30-16.8,45c-4.1,11-8.1,22.2-12.2,33.2
		L130,355.6c-0.4,1.1-0.8,1.7-2,0.7c-0.1-0.1-0.1-0.1-0.1-0.1c-5-3-5-3.2-3-8.6c7.5-20.1,15-40.3,22.5-60.5
		c6.7-18.1,13.6-36.1,20.2-54.2c2.8-7.3,5.5-14.7,8.1-22.2c1.2-3.6,2.8-7.2,4.1-11c0.4-1.1,0.9-1.5,2-0.8c1.2,0.9,2.8,2,4,2.8
		C186.4,202.6,187,203,186.6,203.8z"/>
	<path class="st3" d="M487.9,284.3c-6.5-3.2-10.2-8.8-12.8-15.2c-2.8-7.2-4.3-14.9-4.6-22.7c-1.2-19.3,0.4-38.6,5-57.3
		c2.8-11.1,7-21.6,14-30.9c7.9-10.3,19.8-16.9,32.6-18.4c7.5-0.9,14.7-0.4,21.5,3.6c1.2,0.7,2.5,1.5,3.6,2.5
		c-0.1,0.6-0.6,0.4-0.8,0.3c-8.2-3.5-16.4-2.8-24.7-0.6c-14.6,3.8-24.7,13.2-31.6,26.1c-6.7,12.5-9.9,26-11.7,39.9
		c-1.7,11.3-2.3,22.7-1.8,34.1c0.4,10.2,1.5,20.2,5.8,29.7c1.5,3.2,3.5,6.1,5.7,8.7C488.1,284.2,488,284.2,487.9,284.3z"/>
	<path class="st3" d="M501,293.7c-6.5-3.3-10.5-8.7-13.4-15.1c-2.9-7-4.6-14.4-5-21.9c-1.2-17.5,0-35.1,3.5-52.3
		c2.4-11.8,5.9-23.1,12.6-33.3c10.7-16,25.6-23.6,44.7-22.9c5.8,0.1,13.2,3.5,16.4,7.2c-3.8-1.7-7.8-2.6-11.8-2.8
		c-18.9,0-33.3,8.1-43.5,23.7c-6.7,10.3-10.3,21.9-12.5,33.9c-2.8,14.6-4,29.3-3.6,44.1c0.4,10,1.5,20,5.9,29.3
		C496.3,287.3,499,290.2,501,293.7L501,293.7z"/>
	<path class="st4" d="M413.4,221c0.7-8.7,1.4-17.5,2.1-26.3c0.4-5.8,0.7-11.8,0.9-17.6l0.3-5.2c0.1-0.8,0.7-1.7,1.5-0.9
		c1.2,1.1,3.2,1.4,4.3,2.8c0.7,0.7,0.9,1.7,0.9,2.8c-0.6,6.5-0.9,13.4-1.4,19.8c-0.8,10.3-1.7,20.7-2.4,30.9
		c-0.3,4.9-0.6,9.7-0.9,14.7c-0.7,10.7-1.5,21.4-2.3,31.9c-0.8,11.5-1.7,23-2.5,34.5c-0.1,2.5-0.3,5-0.6,7.5
		c-0.1,0.6,0.3,1.4-0.4,1.8c-0.9,0.6-1.2-0.6-2-0.8c-1.1-0.6-2.1-1.2-3-2.1c-1.2-0.8-1.8-2.4-1.2-3.8c0.6-1.8,0.7-3.8,0.7-5.7
		c0.3-12.3,1.5-24.7,2.4-37.1c0.8-13.4,2.1-26.6,2.8-39.9C412.8,225.9,413.3,223.5,413.4,221C413.6,221.1,413.4,221.1,413.4,221
		C413.4,221.1,413.4,221.1,413.4,221z"/>
	<path class="st2" d="M294.3,338.7c-0.6-0.1-0.7-0.1-0.8-0.3c-4.4-2.1-5.6-5.2-5.2-10.3c2.5-29.8,4.3-59.7,6.5-89.6
		c0.9-15,2.1-29.8,3-44.9c0-0.7,0.1-1.4,0.3-2.5c2.1,1.4,3.8,2.6,5.5,3.9c1.1,0.7,0.6,1.8,0.6,2.8l-2.1,30.4
		c-1.8,25.7-3.6,51.4-5.5,77.2C296,316.7,295,327.6,294.3,338.7z"/>
	<path class="st4" d="M411,168.6c-0.3,11-1.7,22.1-2.3,33.5c-0.3,6.2-0.8,12.5-1.2,18.9c-0.7,8.5-0.4,16.9-1.7,25.3
		c0,0.1-0.1,0.6-0.1,0.7c0,11.3-1.7,22.2-2.1,33.5c-0.3,9-1.2,18.1-2,27.1c-0.1,1.8-0.8,2.1-2.1,1.1c-0.8-0.6-1.7-1.1-2.5-1.7
		c-1.5-0.9-2.4-2.9-2-4.7c0.7-5,0.9-10,1.2-15.1c0.6-9.4,0.9-18.9,1.7-28.3c0.9-13.5,2.3-26.8,2.9-40.3c0.6-9.3,1.2-18.7,2.1-28
		c0.7-8.7,1.7-17.8,1.8-26.5c0-0.6-0.1-1.5,0.6-1.7c0.6-0.1,0.9,0.4,1.5,0.7c0.7,0.6,1.5,1.1,2.4,1.5
		C410.8,165.2,411.7,167.1,411,168.6z"/>
	<path class="st4" d="M435.6,185.8c-1.5,12-1.5,24.2-2.8,36.1c-0.7,6.2-0.7,12.5-1.2,18.9c-0.8,11.1-1.7,22.2-2.5,33.5
		c-0.6,8.7-0.9,17.5-1.7,26.3c-0.6,8.1-1.2,16-2,24.2c-0.1,1.2-0.6,1.8-2,0.9c-5-3-4.7-2.9-4.3-8.8c0.4-7.8,0.9-15.5,1.7-23.3
		c0.8-10.4,1.2-20.8,2.4-31.2c0.6-5,0.8-10.3,1.1-15.4c0.6-9.3,1.4-18.4,2-27.8c0.3-5.7,0.9-11.3,1.2-16.9c0.3-7.1,0.9-14,1.4-21.1
		c0.1-2,0.8-2,2.1-0.9C433.2,181.6,436.2,182.3,435.6,185.8z"/>
	<path class="st2" d="M282.3,330.7c-1.8-1.2-3.2-2.4-4.7-3.2c-1.2-0.7-1.8-2-1.5-3.3c1.2-16.3,2.5-32.6,3.6-49
		c0.9-13.6,1.8-27.5,2.8-41.1c1.1-16.3,2.4-32.5,3.6-48.7c0-0.6-0.3-1.5,0.6-1.7c0.6-0.1,0.9,0.6,1.5,0.7c4,1.7,4.3,4.9,3.9,8.7
		c-2.1,28-4,56.1-5.8,84.1l-3.3,49.6C282.6,327.9,282.4,329,282.3,330.7z"/>
	<path class="st3" d="M513.2,301.8c15.8,7,39.7-0.8,50.2-14.4c2.3-2.9,4.3-5.8,6.2-9c0.7-1.1,1.2-1.2,2.4-0.6c5.7,4.1,5.8,2.6,2,8.5
		c-9.1,13.7-22.1,21.1-38.6,22.5c-7.6,0.9-15.2-1.1-21.4-5.7C513.5,302.8,513.2,302.2,513.2,301.8z"/>
	<path class="st3" d="M584.1,175.8c-5.8-2.1-7.9-7-10.7-11.3C578.1,167,581.8,171.1,584.1,175.8z"/>
	<path class="st3" d="M572.1,163.1c0.4,0.1,0.8,0.1,0.8,0.7c0,0.1-0.1,0.3-0.3,0.3c-0.4,0-0.7-0.3-0.8-0.7L572.1,163.1z"/>
	<path class="st3" d="M560.7,155.2C560.8,155.2,560.8,155.2,560.7,155.2C560.8,155.2,560.8,155.4,560.7,155.2
		C560.7,155.3,560.7,155.3,560.7,155.2C560.7,155.4,560.7,155.4,560.7,155.2z"/>
	<path class="st3" d="M489.2,285.2c0.1,0.1,0.4,0.1,0.6,0.1C489.3,285.7,489.3,285.5,489.2,285.2z"/>
	<path class="st3" d="M490.5,286.4L490.5,286.4L490.5,286.4L490.5,286.4z"/>
	<path class="st3" d="M501,293.7c0.1,0.1,0.4,0.1,0.6,0.1c-0.1,0.1-0.1,0.1-0.1,0.3C501.3,293.9,501.2,293.7,501,293.7z"/>
	<path class="st3" d="M548.2,146.6L548.2,146.6L548.2,146.6L548.2,146.6z"/>
	<path class="st3" d="M488.6,284.7c-0.1-0.1-0.4-0.3-0.6-0.4c0.1-0.1,0.1-0.1,0.3-0.1l0.6,0.6L488.6,284.7L488.6,284.7z"/>
	<path class="st3" d="M488.6,284.6c0.1,0.1,0.3,0.4,0.4,0.6l0,0c-0.1-0.1-0.4-0.3-0.6-0.4C488.4,284.7,488.6,284.7,488.6,284.6z"/>
</g>
</svg>
