<?xml version="1.0" encoding="utf-8"?>
<!-- Generator: Adobe Illustrator 24.3.0, SVG Export Plug-In . SVG Version: 6.00 Build 0)  -->
<svg version="1.1" id="Layer_1" xmlns="http://www.w3.org/2000/svg" xmlns:xlink="http://www.w3.org/1999/xlink" x="0px" y="0px"
	 viewBox="0 0 150 150" style="enable-background:new 0 0 150 150;" xml:space="preserve">
<style type="text/css">
	.st0{fill:#2C2C2C;}
</style>
<g>
	<path class="st0" d="M88.8,78.1l-1.3-4.8c-1.6-6-3.1-11.8-4.8-18c-3.3,9.2-6.6,18-10,27.1c5.3-0.9,10.4-1.8,15.3-2.7
		C89,79.8,89,79,88.8,78.1z"/>
	<path class="st0" d="M97.1,56.4c-2.2-7.5-4-14.9-6.1-22.3c-0.9,2.1-2.3,3.9-1.8,6.2c1.7,5.7,3.1,11.6,4.6,17.2
		c2.7,9.9,5.2,19.8,8,29.7c0.3,1.2,0,1.6-1.1,1.8c-2.8,0.4-5.5,1-8.4,1.5c-7,1.2-14.2,2.6-21.1,3.7c-2.3,0.4-3.8,1.1-4.1,3.5
		c-0.1,0.9-0.3,1.2,0.8,1c3.3-0.6,6.7-1.2,10.1-1.8c8.9-1.6,17.8-3.3,26.8-4.8c1.6-0.3,1.8-0.6,1.4-2.1
		C103.2,78.8,100.1,67.6,97.1,56.4z"/>
	<path class="st0" d="M96.9,82c-2.1-7.7-4.1-15.3-6.2-23.1c-1.2-4.6-2.5-9.3-3.8-13.9c-0.9,2-2.6,3.5-2,5.7c2.7,9.9,5.4,20,8.2,29.9
		c0.4,1.7,0.1,2.1-1.5,2.3c-6.4,1-12.8,2.3-19.1,3.3c-1.1,0.2-1.8,0.6-2.1,1.8c-0.1,0.8-0.4,1.6-0.6,2.3c8.4-1.5,16.4-2.8,24.5-4.3
		C97.9,85.6,97.8,85.6,96.9,82z"/>
	<path class="st0" d="M75,0C33.6,0,0,33.6,0,75s33.6,75,75,75s75-33.6,75-75S116.4,0,75,0z M34,124.8L34,124.8
		c-3.6-2.2-3.6-2.3-2.2-6.2c5.3-14.3,10.6-28.6,16-42.9c4.8-12.8,9.7-25.6,14.3-38.5c2-5.2,3.9-10.4,5.7-15.8c0.9-2.6,2-5.1,2.9-7.8
		c0.3-0.8,0.6-1.1,1.4-0.6c0.9,0.6,2,1.4,2.8,2c0.4,0.6,0.9,0.9,0.6,1.5c-0.8,2.1-1.7,4.3-2.5,6.6l-9.5,25.6
		c-4,10.6-8,21.3-11.9,31.9c-2.9,7.8-5.7,15.8-8.7,23.6l-7.6,20C35.2,125.1,34.9,125.6,34,124.8z M41.9,130.4
		c-2.9-2.1-2.8-2.1-1.5-5.6c3.1-8.4,6.2-16.8,9.4-25.3c4.3-11.6,8.7-23.2,13.1-34.8c3.3-8.7,6.5-17.6,9.7-26.5
		c2.3-6.1,4.6-12.2,6.9-18.5c0.4-0.9,0.6-1.3,1.7-0.6c0.9,0.6,1.8,1.2,2.7,1.8c0.4,0.6,0.6,1,0.6,1.5c-0.9,2.3-1.8,4.8-2.7,7.2
		c-4.7,12.8-9.5,25.4-14.2,38c-4.8,12.8-9.7,25.6-14.5,38.3c-2.9,7.9-6,15.9-8.7,23.8C43.8,131.7,43.8,131.7,41.9,130.4z M119,125.8
		c-1.2-0.6-2.3-1.5-3.3-2.3c-1.8-1.3-1.6-3.3-2.1-5.1c-1.4-4.8-2.6-9.6-3.9-14.3c-0.6-2.5-1.4-5-2-7.3c-0.3-1.3-1-1.2-2-1.1
		c-1.1,0.1-1.5,0.6-1.2,1.8c1.8,6.7,3.5,13.4,5.3,20.2c0.1,0.6,0.3,1.2,0.4,2c-2.8-1.5-5-3.1-5.5-6.5c-1-5-2.6-9.9-3.8-15
		c-0.4-1.8-1.3-1.6-2.6-1.3c-1.5,0.4-0.8,1.4-0.6,2.1c0.9,3.5,2,7,2.8,10.6c0.3,1.2,1.2,2.3,0.9,4c-2.1-1.5-4.6-2.3-5.1-5.6
		c-0.4-2.8-1.6-5.7-2.3-8.5c-0.3-1.3-0.9-1.6-2.1-1.4c-6.8,1.2-13.7,2.5-20.6,3.5c-1.8,0.4-3.8,0.6-5.6,0.9c-0.6,0-1.1,0.4-1.2,1
		c-2.8,7.8-5.7,15.5-8.5,23.4l-3.5,9.3c-0.4,1.1-0.6,1.3-1.8,0.6c-3.3-2.3-3.3-2.3-2-6.2c3.5-9.6,7.1-19.1,10.6-28.7
		c4.3-11.8,8.7-23.3,13-35.1c5-13.3,9.9-26.5,14.8-39.8c0.2-0.5,0.4-1,0.6-1.5c0.3-0.6,0.6-0.8,1.2-0.4c1.8,1.3,3.5,2.3,4.1,5
		c3.1,12.7,6.8,25.3,10.1,37.9c2.3,8.4,4.5,17,6.8,25.4c2.7,9.9,5.4,19.9,8.1,29.9C119,124.1,119.1,125,119,125.8z"/>
</g>
</svg>
