<?xml version="1.0" encoding="utf-8"?>
<!-- Generator: Adobe Illustrator 24.3.0, SVG Export Plug-In . SVG Version: 6.00 Build 0)  -->
<svg version="1.1" id="Layer_1" xmlns="http://www.w3.org/2000/svg" xmlns:xlink="http://www.w3.org/1999/xlink" x="0px" y="0px"
	 viewBox="0 0 784.2 432.8" style="enable-background:new 0 0 784.2 432.8;" xml:space="preserve">
<style type="text/css">
	.st0{fill:#D99E87;}
	.st1{fill:#7FB9BF;}
	.st2{fill:#C56950;}
	.st3{fill:#A594BD;}
	.st4{fill:#ECCB83;}
	.st5{fill:#969696;}
</style>
<g transform="translate(-24.951 -111.385)">
	<path class="st0" d="M186.9,433.1c-2.1-1.3-4.2-2.6-6.2-4.1c-3.2-2.4-2.9-6.2-3.8-9.4c-2.5-8.7-4.6-17.6-7-26.5
		c-1.2-4.5-2.5-9-3.6-13.5c-0.5-2.4-1.9-2.2-3.6-2c-2,0.3-2.8,1.1-2.2,3.3c3.3,12.3,6.6,24.7,9.8,37.2c0.3,1.1,0.5,2.2,0.8,3.7
		c-5.3-2.8-9-5.8-10.2-11.9c-1.9-9.3-4.8-18.3-6.9-27.5c-0.8-3.2-2.4-2.9-4.8-2.4c-2.8,0.7-1.5,2.5-1.1,3.8c1.7,6.5,3.6,13,5.3,19.4
		c0.5,2.2,2.2,4.4,1.6,7.3c-4-2.8-8.6-4.4-9.4-10.3c-0.8-5.3-2.9-10.4-4.1-15.7c-0.5-2.4-1.7-2.9-4-2.5c-12.6,2.2-25.1,4.5-37.8,6.6
		c-3.4,0.7-6.9,1.3-10.3,1.7c-1.1,0-2,0.8-2.2,1.9c-5.3,14.4-10.4,28.7-15.7,43.1l-6.3,17.1c-0.7,2-1.3,2.4-3.2,1.1
		c-6.1-4.4-6.2-4.2-3.6-11.4c6.5-17.6,13.1-35.2,19.6-52.8c7.9-21.6,16-43,23.9-64.5c9.1-24.5,18.1-48.8,27.2-73.3
		c0.4-0.9,0.7-1.9,1.1-2.8c0.5-1.2,1.2-1.5,2.2-0.7c3.3,2.4,6.5,4.2,7.7,9.1c5.8,23.4,12.4,46.6,18.6,69.8
		c4.2,15.6,8.3,31.2,12.4,46.8c4.9,18.4,9.9,36.6,14.9,54.9C186.9,430,187.1,431.6,186.9,433.1z M135.4,264.4
		c-1.7,3.8-4.4,7-3.2,11.4c3,10.6,5.7,21.2,8.6,31.7c4.9,18.3,9.7,36.5,14.7,54.6c0.5,2.2,0,2.9-2,3.2c-5.2,0.8-10.2,1.9-15.3,2.6
		c-13,2.2-26.1,4.6-39,6.7c-4.1,0.7-6.9,2-7.7,6.3c-0.3,1.6-0.5,2.2,1.5,1.9c6.2-1.2,12.3-2.2,18.5-3.3c16.4-2.9,32.8-6,49.3-8.7
		c2.9-0.5,3.3-1.3,2.5-4c-5.7-20.6-11.2-41.3-16.7-61.9C142.7,291.7,139.2,278,135.4,264.4z M96.4,368.2c15.5-2.6,30.3-5.3,45.2-7.9
		c6.5-1.2,6.3-1.2,4.5-7.8c-3.8-14.1-7.5-28.3-11.4-42.4c-2.2-8.5-4.5-17.1-6.9-25.5c-1.6,3.6-4.6,6.6-3.6,10.6
		c4.9,18.4,9.9,36.9,15.1,55.1c0.8,3,0.3,4-2.8,4.4c-11.8,1.9-23.5,4.1-35.2,6.1c-2,0.4-3.4,1.1-3.8,3.3
		C97.4,365.5,97,366.9,96.4,368.2z M101.7,353.4c9.8-1.7,19-3.3,28.3-4.9c1.9-0.3,1.9-1.6,1.5-3l-2.4-8.7
		c-2.9-10.8-5.8-21.6-8.9-33.1C113.9,320.6,107.9,336.8,101.7,353.4z"/>
	<path class="st1" d="M762.9,207.8c-17.3,3-34.6,6.1-51.8,9.1c-2,0.4-4,4.2-2.9,6c0.7,1.2,1.7,0.5,2.6,0.4c8.6-1.5,17.3-3,25.9-4.6
		c10.3-1.9,20.8-3.6,31.1-5.6c2.4-0.7,5,0,6.9,1.7c1.3,1.2,2.8,2,4.9,3.6c-4.2,0.9-7.7,1.7-11.1,2.2c-19.2,3.3-38.5,6.7-57.7,10.1
		c-2.5,0.5-4.1,2.8-3.7,5.3c0.1,0.4,0.2,0.8,0.4,1.2c0.7,1.1,1.5,0.5,2.2,0.4c15.9-2.8,31.9-5.6,47.7-8.3c9-1.6,17.9-3.3,26.8-4.9
		c1.9-0.5,4,0,5.6,1.2c1.7,1.3,3.4,2.5,5.7,4.1c-3.8,1.1-7.7,1.9-11.6,2.4c-22.9,4.1-45.8,8.2-68.9,12.2c-8.5,1.5-8.5,1.5-9.1,9.9
		c-1.2,15.2-2.2,30.6-3.3,45.8c0,0.9-0.1,1.7-0.1,2.6c-0.7,5.2-0.7,5,4.5,4.1c15.7-2.8,31.6-5.6,47.3-8.3c1.4-0.4,2.9,0,4,0.9
		c1.7,1.5,3.6,2.6,6.1,4.5c-5.4,1.1-10.3,2-15.1,2.8l-44.8,7.9c-2.5,0.7-4,3.3-3.4,5.8c0,0.2,0.1,0.4,0.2,0.5
		c0.7,1.2,1.5,0.5,2.2,0.4c9.4-1.6,18.8-3.3,28.2-4.9c12.8-2.2,25.7-4.5,38.5-6.9c1.2-0.4,2.5-0.1,3.4,0.7c2.1,1.6,4.2,3,6.7,4.8
		c-4.5,1.3-9.1,2.2-13.8,2.8c-21.2,3.8-42.3,7.5-63.5,11.1c-3.4,0.5-2.8,3-2.9,4.9c0,2.5,2.2,1.5,3.4,1.3c8.5-1.3,16.9-2.6,25.4-4.1
		c8.6-1.5,17.1-3.2,25.5-4.8c9-1.6,18-2.8,26.8-4.9c6-1.5,10.1,0.8,14.1,5c-6,1.2-11.6,2.2-17.3,3.3c-13.1,2.4-26.3,4.6-39.4,6.9
		l-38.5,6.7c-1.1,0.1-2.2-0.2-3-0.8c-4.9-2.6-7-6-6.2-12.3c2-17.3,2.8-34.8,4.1-52.2c0.9-13.2,1.9-26.5,2.8-39.7
		c1.5-19.6,2.9-39.1,4.4-58.7c0.5-8.1,1.2-16.3,1.5-24.3c0.1-3.3,1.2-4.9,4.8-5.4c22.1-3.7,44-7.7,66-11.5
		c7.9-1.5,15.9-2.6,23.7-4.1c1.8-0.5,3.7,0,5.2,1.2c1.9,1.5,3.8,2.9,5.8,4.2c-6.9,1.3-13.1,2.4-19.3,3.6
		c-11.9,2.1-23.7,4.2-35.6,6.3c-13.1,2.2-26.3,4.6-39.4,6.7c-2,0.3-2.5,1.2-2.6,2.9c-1.1,16-2.2,32-3.3,48c-0.1,2.1-0.1,3.4,2.8,2.8
		c12.8-2.4,25.9-4.2,38.8-7c5.7-1.2,8.7,2.1,12.6,4.5C763,207.5,762.9,207.6,762.9,207.8z"/>
	<path class="st2" d="M359.4,402.9c-9.5,1.7-19,3.4-28.4,5c-21.8,3.8-43.6,7.7-65.5,11.4c-4.6,0.8-10.3-4.5-10.1-9l9.9-135.3
		c1.1-14.5,2-29.1,3-43.5c-0.1-1.4,0.2-2.7,0.8-4c2.1,1.5,4.1,2.8,6.2,4.1c1.5,0.9,1.3,2.1,1.2,3.4l-5.5,77.8
		c-1.6,22.4-3.2,44.7-4.6,66.9c-0.3,4.2,0.1,4.5,4.2,3.7c16-2.9,32.1-5.6,48.1-8.5c0.9-0.3,2-0.1,2.8,0.4c2.1,1.5,4.1,3,6.9,4.9
		c-9.7,1.7-18.6,3.3-27.5,4.9c-11.1,2-22.2,4-33.3,5.8c-3.7,0.7-2.1,3.6-2.2,5.6c-0.1,2.5,2.1,1.2,3.2,1.1l65.5-11.5
		c1.5-0.4,3-0.1,4.2,0.8c1.7,1.5,3.6,2.6,6,4.4c-3.9,1.2-7.9,2-11.9,2.5c-21.6,3.8-43.2,7.7-64.8,11.5c-1.2,0.3-2.5,0.1-2.9,2
		c-0.8,3.7,0,4.9,3.7,4.2c11.5-2,23-4.2,34.5-6.2c15.5-2.6,30.9-5.3,46.4-8.2c4.9-0.9,6.9,3.4,10.3,4.8
		C359.6,402.2,359.5,402.6,359.4,402.9z"/>
	<path class="st3" d="M610.4,179.4l-1.6-0.4c-0.3-0.3-0.8-0.7-1.1-0.3c-0.4,0.5,0.4,0.5,0.7,0.8c0,1.7,1.6,2.8,2.1,5.3
		c-3.3-2.5-6.6-3.8-8.5-6.9c-1.2-1.9-2.8-1.9-4.5-2c-27.2-0.8-47.5,11-61,34.4c-9.4,16.3-13.5,34.3-16.1,52.6
		c-2.3,16-3.1,32.2-2.5,48.4c0.2,8.9,1.5,17.7,3.8,26.3c0.7,2.6,1.9,3.7,4.5,3.3c13.8-1.5,26.8-7.5,36.9-17.1
		c5-4.7,9.2-10.1,12.6-16c0.9-1.7,1.7-2.6,3.8-0.9c5.8,4.5,6,4.4,1.7,10.6c-12.3,18.4-29.6,28-51.7,29.4c-1.3,0.1-3.6-0.5-3.6,1.5
		c0.2,2.1,1.9,3.7,4,3.7c15.4,1.4,30.8-3.1,43.1-12.4c7.4-5.4,13.5-12.4,18-20.4c1.5-2.6,2.6-2.6,4.9-0.9c5.3,4.1,5.6,4.1,2.1,9.4
		c-11.6,17.6-27.8,28-48.9,30.3c-5.7,0.7-11.5,0.4-17.1-0.8c-0.5,1.1,1.1,1.5,0.4,2.5c-9.3-5.2-14.5-13.4-17.7-23.1
		c-6-18.4-5.8-37.4-4.9-56.5c0.6-12.9,2.2-25.7,4.9-38.4c3.2-14.7,7.8-29,16.1-41.7c10.1-16.3,27.1-27.2,46.2-29.5
		c11.5-1.7,22.4-0.4,31.9,6.9c0.5,0.5,1.1,1,1.7,1.5C610.6,179.1,610.5,179.2,610.4,179.4z"/>
	<path class="st1" d="M776.6,117c-7.9,1.3-15.7,2.8-23.7,4.1c-16.4,2.9-32.9,5.8-49.3,8.7c-6.9,1.2-13.6,2.5-20.5,3.6
		c-1.5,0-2.8,1.2-2.8,2.7c0,0.1,0,0.1,0,0.2c-0.9,14.3-1.7,28.6-2.8,42.9c-1.2,16.9-2.5,33.7-3.7,50.7c-0.8,11.4-1.3,22.7-2.1,34.1
		c-0.9,14-2.1,27.9-3,41.9c-0.4,4.9-0.1,9.8-1.2,14.8c-2.5-1.3-4.9-2.8-7.1-4.5c-0.9-0.7-1.2-1.8-0.9-2.9c1.1-13.6,2-27.2,3-40.9
		c0.8-10.1,1.5-20.1,2.1-30.2c1.1-15.2,2.1-30.3,3.2-45.5c0.7-10.4,1.3-20.8,2-31.2c0.8-11.9,1.7-23.8,2.5-35.7
		c0.1-1.7,1.2-2.1,2.5-2.4c25.8-4.5,51.4-8.9,77.2-13.4c4-0.7,7.9-1.3,11.8-2.2c3.2-0.7,6-0.8,8.5,1.6c1.3,1.1,2.7,2.1,4.2,2.9
		C776.8,116.4,776.8,116.7,776.6,117z"/>
	<path class="st1" d="M793.3,127.8c-13.8,2.4-26.6,4.6-39.3,6.9c-10.7,1.9-21.3,3.7-32,5.6c-6.9,1.2-13.6,2.5-20.5,3.6
		c-3.2,0.5-4.8,1.2-5,5c-0.8,16.1-2.1,32.3-3.2,48.4c-1.3,18.1-2.5,36.1-3.8,54.2c-1.1,15.2-2.1,30.6-3.3,45.8
		c-0.8,11-1.6,21.8-2.5,32.8c0,0.5-0.1,1-0.3,1.5c-2.6-1.3-5.1-2.9-7.3-4.8c-1.1-0.8-0.8-2-0.8-3c1.1-15.2,2.1-30.6,3.3-45.8
		c1.5-19.4,2.9-38.9,4.4-58.5c1.1-14,1.9-27.9,2.8-41.9c0.8-12.2,1.7-24.2,2.5-36.4c0.1-1.7,0.7-2.4,2.5-2.6
		c12.6-2.1,25-4.2,37.6-6.5c17.5-3,35-5.8,52.5-9.5C786.4,121.5,789.1,124.8,793.3,127.8z"/>
	<path class="st0" d="M123,243c-1.6,4.4-3.3,8.7-4.9,13.2c-8.6,23.1-17.2,46.4-25.8,69.6c-8.7,23.5-17.7,47.1-26.6,70.6
		c-5.4,14.5-10.8,29.2-16.1,43.8c-1.3,3.7-1.3,3.7-4.5,1.5c-5.4-3.8-5.3-3.8-2.8-10.3c5.8-15.5,11.4-30.9,17.2-46.4
		c7.9-21.4,16-42.9,24.1-64.3c6-16.1,11.9-32.4,17.9-48.5c4.2-11.2,8.5-22.5,12.7-33.9c0.7-1.7,1.3-2.4,3-1.1
		c1.6,1.2,3.2,2.2,4.9,3.3C122.8,241.1,123.1,242.1,123,243z"/>
	<path class="st0" d="M107.1,232.2c-1.5,3.8-3,8.1-4.5,12.2l-17.5,47.2c-7.3,19.6-14.7,39.1-21.9,58.9c-5.4,14.4-10.6,29-16,43.4
		l-13.9,36.9c-0.5,1.5-1.1,2.1-2.5,0.9c-0.1-0.1-0.1-0.1-0.3-0.1c-6.6-4-6.6-4.1-4-11.2c9.8-26.3,19.6-52.7,29.4-79.1
		c8.7-23.5,17.7-47.1,26.5-70.8c3.6-9.7,7-19.3,10.6-29c1.7-4.8,3.7-9.5,5.4-14.3c0.5-1.5,1.2-2,2.5-1.1c1.7,1.2,3.6,2.5,5.3,3.7
		C106.9,230.4,107.5,231,107.1,232.2z"/>
	<path class="st3" d="M500.7,337.3c-8.5-4.2-13.2-11.6-16.7-20c-3.5-9.4-5.6-19.4-6-29.5c-1.7-25.1,0.5-50.4,6.6-74.9
		c3.6-14.5,9-28.3,18.4-40.2c10.4-13.5,25.8-22.2,42.7-24.2c9.8-1.3,19.3-0.5,28,4.6c1.7,0.9,3.3,2,4.6,3.3
		c-0.3,0.8-0.8,0.5-1.1,0.4c-10.7-4.5-21.4-3.6-32.3-0.8c-19,4.9-32.3,17.2-41.4,34.1c-8.7,16.3-12.8,34-15.2,52.1
		c-2.1,14.7-2.9,29.6-2.4,44.4c0.5,13.2,2,26.5,7.7,38.8c2.1,4.1,4.5,7.9,7.4,11.5C501,337.2,500.9,337.2,500.7,337.3z"/>
	<path class="st3" d="M517.9,349.5c-8.5-4.4-13.8-11.4-17.5-19.8c-3.8-9.1-6.1-18.8-6.6-28.7c-1.5-22.9,0-45.9,4.5-68.4
		c3-15.5,7.8-30.3,16.5-43.5c13.9-20.9,33.5-30.8,58.5-30c7.5,0.3,17.2,4.5,21.4,9.4c-4.9-2.2-10.1-3.4-15.5-3.6
		c-24.6,0-43.5,10.6-56.7,31.1c-8.7,13.5-13.4,28.7-16.4,44.3c-3.7,19-5.2,38.3-4.6,57.7c0.5,13.1,2,26.2,7.8,38.4
		C511.8,341,515.2,345,517.9,349.5L517.9,349.5z"/>
	<path class="st4" d="M403.4,254.6c0.9-11.5,1.9-22.9,2.6-34.4c0.5-7.7,0.9-15.3,1.3-23l0.4-6.7c0.1-1.1,0.9-2.1,2-1.3
		c1.7,1.5,4.1,1.9,5.7,3.6c0.9,1,1.3,2.3,1.2,3.6c-0.7,8.6-1.2,17.3-1.9,25.9c-1.1,13.5-2.1,27-3,40.5c-0.4,6.3-0.7,12.7-1.2,19.2
		c-0.9,13.9-2,27.9-2.9,41.8c-1.1,15.1-2.1,30-3.2,45.1c-0.3,3.3-0.4,6.5-0.7,9.8c-0.1,0.8,0.4,1.9-0.5,2.4
		c-1.2,0.8-1.7-0.7-2.5-1.1c-1.5-0.7-2.8-1.7-4-2.8c-1.6-1.1-2.3-3.1-1.7-4.9c0.6-2.4,1-4.9,0.9-7.4c0.4-16.1,2-32.3,3-48.4
		c1.1-17.3,2.8-34.8,3.7-52.1c0.1-3.2,0.7-6.5,1.1-9.7C403.7,254.8,403.6,254.8,403.4,254.6C403.4,254.7,403.4,254.7,403.4,254.6z"
		/>
	<path class="st2" d="M247.7,408.5c-0.7-0.3-0.9-0.3-1.1-0.4c-5.8-2.6-7.3-6.7-6.7-13.4c3.2-39,5.7-78,8.5-117
		c1.3-19.6,2.6-39,4-58.6c0-0.9,0.3-1.9,0.4-3.3c2.6,1.9,4.9,3.4,7.1,5c1.5,0.9,0.8,2.4,0.8,3.6l-2.8,39.7
		c-2.4,33.6-4.6,67.2-7,100.8C250,379.5,248.8,393.9,247.7,408.5z"/>
	<path class="st4" d="M400.2,186.3c-0.4,14.3-2.1,28.8-2.9,43.6c-0.4,8.2-1.1,16.4-1.7,24.6c-0.9,11-0.5,22.1-2.2,33.1
		c0,0.3-0.1,0.7-0.1,0.9c0,14.7-2.2,29.1-2.8,43.8c-0.4,11.8-1.7,23.5-2.5,35.3c-0.1,2.4-1.1,2.6-2.8,1.5c-1.1-0.8-2.2-1.5-3.3-2.1
		c-2.1-1.3-3.1-3.7-2.5-6.1c0.9-6.5,1.2-13.1,1.6-19.7c0.7-12.3,1.3-24.7,2.2-37c1.3-17.6,2.9-35,3.8-52.6
		c0.7-12.2,1.6-24.5,2.6-36.6c0.9-11.5,2.1-23.1,2.4-34.6c0-0.8-0.1-2,0.8-2.2c0.8-0.3,1.3,0.5,2,0.9c1,0.7,2,1.4,3,2
		C400,181.7,401.1,184.1,400.2,186.3z"/>
	<path class="st4" d="M432.5,208.5c-2,15.7-2,31.5-3.7,47.2c-0.9,8.2-0.9,16.4-1.6,24.7c-1.1,14.5-2.2,29.1-3.2,43.8
		c-0.8,11.5-1.3,22.9-2.1,34.4c-0.7,10.4-1.6,20.9-2.5,31.5c-0.1,1.7-0.8,2.4-2.5,1.3c-6.5-4-6.1-3.8-5.6-11.6
		c0.5-10.2,1.3-20.4,2.1-30.6c1.1-13.6,1.7-27.2,3-40.7c0.7-6.6,1.1-13.4,1.5-20.1c0.7-12.2,1.9-24.2,2.5-36.2
		c0.4-7.4,1.3-14.7,1.6-22.1c0.4-9.3,1.3-18.4,1.9-27.5c0.1-2.5,1.1-2.5,2.8-1.2C429.3,203.1,433.2,204,432.5,208.5z"/>
	<path class="st2" d="M232,397.9c-2.4-1.7-4.2-3-6.2-4.2c-1.6-0.8-2.4-2.6-2-4.4c1.6-21.3,3.2-42.7,4.6-64
		c1.3-17.9,2.4-35.8,3.7-53.7c1.5-21.3,3-42.4,4.6-63.7c0-0.8-0.4-2,0.7-2.2c0.8-0.3,1.3,0.7,2,0.9c5.3,2.1,5.6,6.3,5.2,11.4
		c-2.6,36.6-5.2,73.3-7.7,109.9l-4.4,64.7C232.4,394.2,232.3,395.8,232,397.9z"/>
	<path class="st3" d="M533.7,360c20.6,9.1,51.8-1.1,65.7-18.9c3-3.8,5.7-7.7,8.2-11.8c0.9-1.5,1.7-1.7,3-0.8
		c7.4,5.4,7.5,3.4,2.5,11.1c-11.9,18-28.8,27.5-50.4,29.4c-9.9,1.2-19.9-1.4-27.9-7.4C534.2,361.4,533.8,360.7,533.7,360z"/>
	<path class="st3" d="M626.5,195.4c-7.5-2.8-10.3-9.1-13.9-14.7C618.7,184,623.5,189.2,626.5,195.4z"/>
	<path class="st3" d="M610.8,179c0.5,0.1,1.1,0.3,1.1,0.9c-0.1,0.2-0.2,0.3-0.4,0.4c-0.5,0-1-0.4-1.1-0.9L610.8,179z"/>
	<path class="st3" d="M595.8,168.5c0.1,0,0.1,0.1,0.1,0.1c0,0,0,0,0,0c-0.1,0-0.1,0.1-0.3,0.1C595.8,168.7,595.8,168.7,595.8,168.5z
		"/>
	<path class="st3" d="M502.3,338.4c0.3,0.1,0.5,0.1,0.8,0.3C502.6,339.1,502.5,338.8,502.3,338.4z"/>
	<path class="st3" d="M504.2,339.9l0.3,0.1h-0.3V339.9z"/>
	<path class="st3" d="M517.9,349.5c0.3,0.1,0.5,0.1,0.8,0.3c-0.1,0.1-0.1,0.3-0.3,0.4C518.3,349.9,518.2,349.7,517.9,349.5z"/>
	<path class="st3" d="M579.4,157.3h0.3v0.1L579.4,157.3z"/>
	<path class="st3" d="M501.5,337.8c-0.3-0.1-0.5-0.4-0.8-0.5c0.1-0.1,0.3-0.3,0.4-0.3l0.7,0.7L501.5,337.8z"/>
	<path class="st3" d="M501.7,337.7c0.1,0.2,0.3,0.5,0.5,0.7l0,0c-0.3-0.1-0.5-0.4-0.8-0.5C501.5,337.8,501.6,337.8,501.7,337.7z"/>
</g>
<g>
	<path class="st5" d="M254,390.4c0.1,0,0.2,0,0.3,0L530.5,343c0.9-0.2,1.5-1,1.4-1.9c-0.2-0.9-1-1.5-1.9-1.4L253.7,387
		c-0.9,0.2-1.5,1-1.4,1.9C252.5,389.8,253.2,390.4,254,390.4z"/>
	<path class="st5" d="M529.9,382.1l-276.2,47.4c-0.9,0.2-1.5,1-1.4,1.9c0.1,0.8,0.9,1.4,1.7,1.4c0.1,0,0.2,0,0.3,0l276.2-47.4
		c0.9-0.2,1.5-1,1.4-1.9C531.7,382.5,530.9,381.9,529.9,382.1z"/>
</g>
<g>
	<path class="st5" d="M266.5,417l-7.3,1.2c-0.8,0.1-1.5-0.5-1.5-1.3l0-4.4c0-0.6,0.4-1.2,1.1-1.3l6.6-1.1c0.6-0.1,1.1-0.6,1.1-1.3
		l0-0.5c0-0.8-0.7-1.4-1.5-1.3l-5.8,1c-0.8,0.1-1.5-0.5-1.5-1.3l0-3.7c0-0.6,0.4-1.2,1.1-1.3l8-1.4c0.6-0.1,1.1-0.6,1.1-1.3l0-0.6
		c0-0.8-0.7-1.4-1.5-1.3l-11.3,1.9c-0.6,0.1-1.1,0.6-1.1,1.3l0.1,20.1c0,0.8,0.7,1.4,1.5,1.3l11.4-1.9c0.6-0.1,1.1-0.6,1.1-1.3
		l0-0.6C268,417.5,267.3,416.9,266.5,417z"/>
	<path class="st5" d="M280.8,396.1c-0.2-0.6-0.8-0.9-1.4-0.8l-1.5,0.3c-0.5,0.1-0.9,0.4-1,0.9l-7,21.3c-0.3,0.9,0.5,1.8,1.4,1.7
		l1-0.2c0.5-0.1,0.9-0.4,1-0.9l1.2-4.1c0.1-0.5,0.5-0.8,1-0.9l6.4-1.1c0.6-0.1,1.2,0.2,1.4,0.8l1,3c0.2,0.6,0.8,0.9,1.4,0.8l1.3-0.2
		c0.8-0.1,1.3-1,1-1.7L280.8,396.1z M280.4,409.3l-2.6,0.4c-0.9,0.2-1.7-0.7-1.4-1.6l1.3-4.2c0.4-1.2,2-1.2,2.4-0.1l1.3,3.8
		C281.7,408.4,281.2,409.2,280.4,409.3z"/>
	<path class="st5" d="M304.6,393.1l0-0.6c0-0.8-0.7-1.4-1.5-1.3l-14.3,2.4c-0.6,0.1-1.1,0.6-1.1,1.3l0,0.6c0,0.8,0.7,1.4,1.5,1.3
		l3.6-0.6c0.8-0.1,1.5,0.5,1.5,1.3l0.1,16.5c0,0.8,0.7,1.4,1.5,1.3l1.1-0.2c0.6-0.1,1.1-0.6,1.1-1.3l-0.1-17.4
		c0-0.6,0.4-1.2,1.1-1.3l4.5-0.8C304.1,394.2,304.6,393.7,304.6,393.1z"/>
	<path class="st5" d="M305.5,409.6c-0.7,0.1-1.2,0.4-1.5,0.9c-0.4,0.5-0.5,1-0.5,1.6c0,0.6,0.2,1.1,0.6,1.4c0.4,0.3,0.9,0.4,1.5,0.3
		c0.7-0.1,1.2-0.4,1.5-0.8c0.4-0.5,0.5-1,0.5-1.6c0-0.6-0.2-1.1-0.5-1.4C306.7,409.6,306.2,409.4,305.5,409.6z"/>
	<path class="st5" d="M326.7,392.4c-0.8-1.5-1.9-2.6-3.4-3.2c-1.5-0.6-3.1-0.8-5-0.5l-5.2,0.9c-0.6,0.1-1.1,0.6-1.1,1.3l0.1,20.1
		c0,0.8,0.7,1.4,1.5,1.3l4.6-0.8c1.9-0.3,3.6-1.1,5.1-2.2c1.5-1.1,2.6-2.6,3.4-4.4c0.8-1.8,1.2-3.7,1.2-5.9l0-1.1
		C327.9,395.7,327.5,393.9,326.7,392.4z M322.6,405.6c-1,1.5-2.5,2.4-4.5,2.7l-2.4,0.4l-0.1-15.3c0-0.6,0.4-1.2,1.1-1.3l1.5-0.3
		c1.9-0.3,3.4,0.1,4.4,1.2c1,1.1,1.5,2.9,1.5,5.4l0,1.3C324.2,402.1,323.7,404.1,322.6,405.6z"/>
	<path class="st5" d="M343.8,396.9c0.8-0.6,1.5-1.4,2-2.2c0.7-1.1,1-2.5,1-4c0-2.2-0.7-3.8-2-4.8c-1.3-0.9-3.2-1.2-5.7-0.8l-6.4,1.1
		c-0.6,0.1-1.1,0.6-1.1,1.3l0.1,20.1c0,0.8,0.7,1.4,1.5,1.3l1.1-0.2c0.6-0.1,1.1-0.6,1.1-1.3l0-6.6c0-0.6,0.4-1.2,1.1-1.3l2.1-0.4
		c0.5-0.1,1.1,0.2,1.3,0.7l3.4,6.4c0.3,0.5,0.8,0.7,1.3,0.7l3.1-0.5v-0.2l-4.2-7.6C343.2,398.1,343.3,397.3,343.8,396.9z M342,394.4
		c-0.7,0.8-1.7,1.3-2.9,1.5l-2.3,0.4c-0.8,0.1-1.5-0.5-1.5-1.3l0-5c0-0.6,0.4-1.2,1.1-1.3l2.8-0.5c1.3-0.2,2.3,0,2.9,0.5
		c0.7,0.6,1,1.4,1,2.7C343.1,392.7,342.7,393.6,342,394.4z"/>
	<path class="st5" d="M352.7,382.8l-1.1,0.2c-0.6,0.1-1.1,0.6-1.1,1.3l0.1,20.1c0,0.8,0.7,1.4,1.5,1.3l1.1-0.2
		c0.6-0.1,1.1-0.6,1.1-1.3l-0.1-20.1C354.2,383.3,353.4,382.7,352.7,382.8z"/>
	<path class="st5" d="M374.1,379.2l-1.1,0.2c-0.6,0.1-1.1,0.6-1.1,1.3l0.1,10.8c0,1.3-1.7,1.8-2.4,0.7l-6.8-10.3
		c-0.3-0.4-0.8-0.6-1.3-0.6l-1.8,0.3c-0.6,0.1-1.1,0.6-1.1,1.3l0.1,20.1c0,0.8,0.7,1.4,1.5,1.3l1.1-0.2c0.6-0.1,1.1-0.6,1.1-1.3
		l-0.1-10.7c0-1.3,1.7-1.8,2.4-0.7l6.7,10.2c0.3,0.4,0.8,0.6,1.3,0.6l1.8-0.3c0.6-0.1,1.1-0.6,1.1-1.3l-0.1-20.1
		C375.6,379.7,374.9,379.1,374.1,379.2z"/>
	<path class="st5" d="M389.2,387.5c-0.3-0.4-0.3-1,0-1.5l5.6-8.1c0.6-0.9-0.2-2.2-1.3-2l-0.9,0.2c-0.3,0.1-0.6,0.3-0.8,0.5l-5.9,8.6
		l-2,3l0-9.1c0-0.8-0.7-1.4-1.5-1.3l-1.1,0.2c-0.6,0.1-1.1,0.6-1.1,1.3l0.1,20.1c0,0.8,0.7,1.4,1.5,1.3l1.1-0.2
		c0.6-0.1,1.1-0.6,1.1-1.3l0-5.6c0-0.3,0.1-0.6,0.3-0.8l1.1-1.4c0.5-0.7,1.5-0.7,2,0l5,6.7c0.3,0.4,0.8,0.6,1.2,0.5l1.5-0.3
		c0.9-0.2,1.4-1.3,0.8-2L389.2,387.5z"/>
	<path class="st5" d="M400.9,393.4c-0.7,0.1-1.2,0.4-1.5,0.9c-0.4,0.5-0.5,1-0.5,1.6c0,0.6,0.2,1.1,0.6,1.4c0.4,0.3,0.9,0.4,1.5,0.3
		c0.7-0.1,1.2-0.4,1.5-0.8c0.4-0.5,0.5-1,0.5-1.6c0-0.6-0.2-1.1-0.5-1.4C402,393.4,401.5,393.3,400.9,393.4z"/>
	<path class="st5" d="M422,376.2c-0.8-1.5-1.9-2.6-3.4-3.2c-1.5-0.6-3.1-0.8-5-0.5l-5.2,0.9c-0.6,0.1-1.1,0.6-1.1,1.3l0.1,20.1
		c0,0.8,0.7,1.4,1.5,1.3l4.6-0.8c1.9-0.3,3.6-1.1,5.1-2.2c1.5-1.1,2.6-2.6,3.4-4.4c0.8-1.8,1.2-3.7,1.2-5.9l0-1.1
		C423.2,379.6,422.8,377.7,422,376.2z M418,389.4c-1,1.5-2.5,2.4-4.5,2.7l-2.4,0.4l-0.1-15.3c0-0.6,0.4-1.2,1.1-1.3l1.5-0.3
		c1.9-0.3,3.4,0.1,4.4,1.2c1,1.1,1.5,2.9,1.5,5.4l0,1.3C419.5,386,419,387.9,418,389.4z"/>
	<path class="st5" d="M442.8,372.4c-0.7-1.5-1.8-2.6-3.1-3.3c-1.3-0.7-2.9-0.8-4.6-0.5c-1.7,0.3-3.3,1-4.6,2.1
		c-1.3,1.1-2.4,2.6-3.1,4.4c-0.7,1.8-1.1,3.8-1.1,6.1l0,1.3c0,2.2,0.4,4,1.1,5.6c0.7,1.5,1.8,2.6,3.2,3.3c1.4,0.7,2.9,0.9,4.6,0.6
		c1.7-0.3,3.3-1,4.6-2.1c1.3-1.1,2.4-2.6,3.1-4.4c0.7-1.8,1.1-3.8,1.1-6l0-1.3C443.9,375.8,443.5,374,442.8,372.4z M438.9,386
		c-0.9,1.5-2.1,2.4-3.8,2.6c-1.6,0.3-2.9-0.2-3.8-1.4c-0.9-1.2-1.4-3.1-1.4-5.6l0-1.3c0-2.4,0.5-4.4,1.4-5.9
		c0.9-1.5,2.1-2.4,3.7-2.6c1.6-0.3,2.9,0.2,3.8,1.4c0.9,1.2,1.4,3,1.4,5.6l0,1.2C440.2,382.5,439.8,384.5,438.9,386z"/>
	<path class="st5" d="M447.7,385.4c-0.7,0.1-1.2,0.4-1.5,0.9c-0.4,0.5-0.5,1-0.5,1.6c0,0.6,0.2,1.1,0.6,1.4c0.4,0.3,0.9,0.4,1.5,0.3
		c0.7-0.1,1.2-0.4,1.5-0.8c0.4-0.5,0.5-1,0.5-1.6c0-0.6-0.2-1.1-0.5-1.4C448.9,385.4,448.4,385.3,447.7,385.4z"/>
	<path class="st5" d="M466.1,375.1c-1-0.5-2.3-0.9-4-1.1c-1.7-0.2-2.9-0.6-3.6-1c-0.7-0.4-1.1-1.1-1.1-1.9c0-1,0.3-1.8,1-2.5
		c0.7-0.7,1.6-1.1,2.8-1.3c1.3-0.2,2.3-0.1,3,0.5c0.4,0.3,0.7,0.8,0.9,1.4c0.2,0.7,0.8,1.1,1.5,1l1.2-0.2c0.7-0.1,1.2-0.8,1.1-1.5
		c-0.2-0.8-0.5-1.5-0.9-2.1c-0.7-1-1.6-1.6-2.8-2c-1.2-0.4-2.5-0.4-4-0.2c-2.2,0.4-4,1.3-5.4,2.7c-1.4,1.4-2.1,3.1-2.1,4.9
		c0,2.1,1,3.6,2.9,4.6c1,0.5,2.4,0.9,4.1,1.1c1.7,0.3,2.9,0.6,3.6,1c0.7,0.4,1,1.1,1,2.1c0,0.9-0.3,1.7-1,2.4
		c-0.6,0.7-1.6,1.1-2.9,1.3c-1.5,0.3-2.6,0.1-3.4-0.5c-0.5-0.4-0.9-0.9-1.1-1.6c-0.2-0.7-0.8-1.1-1.5-1l-1.2,0.2
		c-0.7,0.1-1.2,0.8-1.1,1.5c0.2,0.9,0.5,1.6,1,2.3c0.7,0.9,1.7,1.6,3,2c1.3,0.4,2.7,0.5,4.3,0.2c2.3-0.4,4.2-1.3,5.5-2.6
		c1.4-1.3,2-3,2-4.9c0-1.2-0.2-2.1-0.7-2.9C467.9,376.2,467.2,375.6,466.1,375.1z"/>
	<path class="st5" d="M487.7,359.9l-1.1,0.2c-0.6,0.1-1.1,0.6-1.1,1.3l0,7.3c0,0.6-0.4,1.2-1.1,1.3l-7,1.2c-0.8,0.1-1.5-0.5-1.5-1.3
		l0-6.4c0-0.8-0.7-1.4-1.5-1.3l-1.1,0.2c-0.6,0.1-1.1,0.6-1.1,1.3l0.1,20.1c0,0.8,0.7,1.4,1.5,1.3l1.1-0.2c0.6-0.1,1.1-0.6,1.1-1.3
		l0-7.9c0-0.6,0.4-1.2,1.1-1.3l7-1.2c0.8-0.1,1.5,0.5,1.5,1.3l0,7.1c0,0.8,0.7,1.4,1.5,1.3l1.1-0.2c0.6-0.1,1.1-0.6,1.1-1.3
		l-0.1-20.1C489.2,360.4,488.5,359.8,487.7,359.9z"/>
	<path class="st5" d="M509.5,361.1c-0.7-1.5-1.8-2.6-3.1-3.3c-1.3-0.7-2.9-0.8-4.6-0.5c-1.7,0.3-3.3,1-4.6,2.1
		c-1.3,1.1-2.4,2.6-3.1,4.4c-0.7,1.8-1.1,3.8-1.1,6.1l0,1.3c0,2.2,0.4,4,1.1,5.6c0.7,1.5,1.8,2.6,3.1,3.3c1.4,0.7,2.9,0.9,4.6,0.6
		c1.7-0.3,3.3-1,4.6-2.1c1.3-1.1,2.4-2.6,3.1-4.4c0.7-1.8,1.1-3.8,1.1-6l0-1.3C510.6,364.5,510.2,362.7,509.5,361.1z M505.6,374.7
		c-0.9,1.5-2.1,2.4-3.8,2.6c-1.6,0.3-2.9-0.2-3.8-1.4c-0.9-1.2-1.4-3.1-1.4-5.6l0-1.3c0-2.4,0.5-4.4,1.4-5.9
		c0.9-1.5,2.1-2.4,3.7-2.6c1.6-0.3,2.9,0.2,3.8,1.4c0.9,1.2,1.4,3,1.4,5.6l0,1.2C506.9,371.2,506.5,373.2,505.6,374.7z"/>
	<path class="st5" d="M528.1,355.1c-1.4-1.1-3.3-1.4-5.7-1l-6.9,1.2c-0.7,0.1-1.3,0.8-1.3,1.5l0.1,19.6c0,1,0.9,1.7,1.8,1.5l0.6-0.1
		c0.7-0.1,1.3-0.8,1.3-1.5l0-5.8c0-0.8,0.5-1.4,1.3-1.5l3.1-0.5c2.5-0.4,4.4-1.4,5.8-2.8c1.4-1.5,2-3.3,2-5.5
		C530.2,357.8,529.5,356.2,528.1,355.1z M525.5,363.7c-0.7,0.8-1.7,1.3-3,1.5l-2.7,0.4c-0.9,0.2-1.8-0.6-1.8-1.5l0-4.8
		c0-0.8,0.5-1.4,1.3-1.5l3.3-0.6c1.2-0.2,2.2,0,2.9,0.6c0.7,0.6,1.1,1.5,1.1,2.8C526.5,361.9,526.2,362.9,525.5,363.7z"/>
</g>
</svg>
