<?xml version="1.0" encoding="utf-8"?>
<!-- Generator: Adobe Illustrator 24.3.0, SVG Export Plug-In . SVG Version: 6.00 Build 0)  -->
<svg version="1.1" id="Layer_1" xmlns="http://www.w3.org/2000/svg" xmlns:xlink="http://www.w3.org/1999/xlink" x="0px" y="0px"
	 viewBox="0 0 784.2 405.2" style="enable-background:new 0 0 784.2 405.2;" xml:space="preserve">
<style type="text/css">
	.st0{fill:#D99E87;}
	.st1{fill:#7FB9BF;}
	.st2{fill:#C56950;}
	.st3{fill:#A594BD;}
	.st4{fill:#ECCB83;}
	.st5{fill:#969696;}
</style>
<g transform="translate(-24.951 -111.385)">
	<path class="st0" d="M186.9,433.1c-2.1-1.3-4.2-2.6-6.2-4.1c-3.2-2.4-2.9-6.2-3.8-9.4c-2.5-8.7-4.6-17.6-7-26.5
		c-1.2-4.5-2.5-9-3.6-13.5c-0.5-2.4-1.9-2.2-3.6-2c-2,0.3-2.8,1.1-2.2,3.3c3.3,12.3,6.6,24.7,9.8,37.2c0.3,1.1,0.5,2.2,0.8,3.7
		c-5.3-2.8-9-5.8-10.2-11.9c-1.9-9.3-4.8-18.3-6.9-27.5c-0.8-3.2-2.4-2.9-4.8-2.4c-2.8,0.7-1.5,2.5-1.1,3.8c1.7,6.5,3.6,13,5.3,19.4
		c0.5,2.2,2.2,4.4,1.6,7.3c-4-2.8-8.6-4.4-9.4-10.3c-0.8-5.3-2.9-10.4-4.1-15.7c-0.5-2.4-1.7-2.9-4-2.5c-12.6,2.2-25.1,4.5-37.8,6.6
		c-3.4,0.7-6.9,1.3-10.3,1.7c-1.1,0-2,0.8-2.2,1.9c-5.3,14.4-10.4,28.7-15.7,43.1l-6.3,17.1c-0.7,2-1.3,2.4-3.2,1.1
		c-6.1-4.4-6.2-4.2-3.6-11.4c6.5-17.6,13.1-35.2,19.6-52.8c7.9-21.6,16-43,23.9-64.5c9.1-24.5,18.1-48.8,27.2-73.3
		c0.4-0.9,0.7-1.9,1.1-2.8c0.5-1.2,1.2-1.5,2.2-0.7c3.3,2.4,6.5,4.2,7.7,9.1c5.8,23.4,12.4,46.6,18.6,69.8
		c4.2,15.6,8.3,31.2,12.4,46.8c4.9,18.4,9.9,36.6,14.9,54.9C186.9,430,187.1,431.6,186.9,433.1z M135.4,264.4
		c-1.7,3.8-4.4,7-3.2,11.4c3,10.6,5.7,21.2,8.6,31.7c4.9,18.3,9.7,36.5,14.7,54.6c0.5,2.2,0,2.9-2,3.2c-5.2,0.8-10.2,1.9-15.3,2.6
		c-13,2.2-26.1,4.6-39,6.7c-4.1,0.7-6.9,2-7.7,6.3c-0.3,1.6-0.5,2.2,1.5,1.9c6.2-1.2,12.3-2.2,18.5-3.3c16.4-2.9,32.8-6,49.3-8.7
		c2.9-0.5,3.3-1.3,2.5-4c-5.7-20.6-11.2-41.3-16.7-61.9C142.7,291.7,139.2,278,135.4,264.4z M96.4,368.2c15.5-2.6,30.3-5.3,45.2-7.9
		c6.5-1.2,6.3-1.2,4.5-7.8c-3.8-14.1-7.5-28.3-11.4-42.4c-2.2-8.5-4.5-17.1-6.9-25.5c-1.6,3.6-4.6,6.6-3.6,10.6
		c4.9,18.4,9.9,36.9,15.1,55.1c0.8,3,0.3,4-2.8,4.4c-11.8,1.9-23.5,4.1-35.2,6.1c-2,0.4-3.4,1.1-3.8,3.3
		C97.4,365.5,97,366.9,96.4,368.2z M101.7,353.4c9.8-1.7,19-3.3,28.3-4.9c1.9-0.3,1.9-1.6,1.5-3l-2.4-8.7
		c-2.9-10.8-5.8-21.6-8.9-33.1C113.9,320.6,107.9,336.8,101.7,353.4z"/>
	<path class="st1" d="M762.9,207.8c-17.3,3-34.6,6.1-51.8,9.1c-2,0.4-4,4.2-2.9,6c0.7,1.2,1.7,0.5,2.6,0.4c8.6-1.5,17.3-3,25.9-4.6
		c10.3-1.9,20.8-3.6,31.1-5.6c2.4-0.7,5,0,6.9,1.7c1.3,1.2,2.8,2,4.9,3.6c-4.2,0.9-7.7,1.7-11.1,2.2c-19.2,3.3-38.5,6.7-57.7,10.1
		c-2.5,0.5-4.1,2.8-3.7,5.3c0.1,0.4,0.2,0.8,0.4,1.2c0.7,1.1,1.5,0.5,2.2,0.4c15.9-2.8,31.9-5.6,47.7-8.3c9-1.6,17.9-3.3,26.8-4.9
		c1.9-0.5,4,0,5.6,1.2c1.7,1.3,3.4,2.5,5.7,4.1c-3.8,1.1-7.7,1.9-11.6,2.4c-22.9,4.1-45.8,8.2-68.9,12.2c-8.5,1.5-8.5,1.5-9.1,9.9
		c-1.2,15.2-2.2,30.6-3.3,45.8c0,0.9-0.1,1.7-0.1,2.6c-0.7,5.2-0.7,5,4.5,4.1c15.7-2.8,31.6-5.6,47.3-8.3c1.4-0.4,2.9,0,4,0.9
		c1.7,1.5,3.6,2.6,6.1,4.5c-5.4,1.1-10.3,2-15.1,2.8l-44.8,7.9c-2.5,0.7-4,3.3-3.4,5.8c0,0.2,0.1,0.4,0.2,0.5
		c0.7,1.2,1.5,0.5,2.2,0.4c9.4-1.6,18.8-3.3,28.2-4.9c12.8-2.2,25.7-4.5,38.5-6.9c1.2-0.4,2.5-0.1,3.4,0.7c2.1,1.6,4.2,3,6.7,4.8
		c-4.5,1.3-9.1,2.2-13.8,2.8c-21.2,3.8-42.3,7.5-63.5,11.1c-3.4,0.5-2.8,3-2.9,4.9c0,2.5,2.2,1.5,3.4,1.3c8.5-1.3,16.9-2.6,25.4-4.1
		c8.6-1.5,17.1-3.2,25.5-4.8c9-1.6,18-2.8,26.8-4.9c6-1.5,10.1,0.8,14.1,5c-6,1.2-11.6,2.2-17.3,3.3c-13.1,2.4-26.3,4.6-39.4,6.9
		l-38.5,6.7c-1.1,0.1-2.2-0.2-3-0.8c-4.9-2.6-7-6-6.2-12.3c2-17.3,2.8-34.8,4.1-52.2c0.9-13.2,1.9-26.5,2.8-39.7
		c1.5-19.6,2.9-39.1,4.4-58.7c0.5-8.1,1.2-16.3,1.5-24.3c0.1-3.3,1.2-4.9,4.8-5.4c22.1-3.7,44-7.7,66-11.5
		c7.9-1.5,15.9-2.6,23.7-4.1c1.8-0.5,3.7,0,5.2,1.2c1.9,1.5,3.8,2.9,5.8,4.2c-6.9,1.3-13.1,2.4-19.3,3.6
		c-11.9,2.1-23.7,4.2-35.6,6.3c-13.1,2.2-26.3,4.6-39.4,6.7c-2,0.3-2.5,1.2-2.6,2.9c-1.1,16-2.2,32-3.3,48c-0.1,2.1-0.1,3.4,2.8,2.8
		c12.8-2.4,25.9-4.2,38.8-7c5.7-1.2,8.7,2.1,12.6,4.5C763,207.5,762.9,207.6,762.9,207.8z"/>
	<path class="st2" d="M359.4,402.9c-9.5,1.7-19,3.4-28.4,5c-21.8,3.8-43.6,7.7-65.5,11.4c-4.6,0.8-10.3-4.5-10.1-9l9.9-135.3
		c1.1-14.5,2-29.1,3-43.5c-0.1-1.4,0.2-2.7,0.8-4c2.1,1.5,4.1,2.8,6.2,4.1c1.5,0.9,1.3,2.1,1.2,3.4l-5.5,77.8
		c-1.6,22.4-3.2,44.7-4.6,66.9c-0.3,4.2,0.1,4.5,4.2,3.7c16-2.9,32.1-5.6,48.1-8.5c0.9-0.3,2-0.1,2.8,0.4c2.1,1.5,4.1,3,6.9,4.9
		c-9.7,1.7-18.6,3.3-27.5,4.9c-11.1,2-22.2,4-33.3,5.8c-3.7,0.7-2.1,3.6-2.2,5.6c-0.1,2.5,2.1,1.2,3.2,1.1l65.5-11.5
		c1.5-0.4,3-0.1,4.2,0.8c1.7,1.5,3.6,2.6,6,4.4c-3.9,1.2-7.9,2-11.9,2.5c-21.6,3.8-43.2,7.7-64.8,11.5c-1.2,0.3-2.5,0.1-2.9,2
		c-0.8,3.7,0,4.9,3.7,4.2c11.5-2,23-4.2,34.5-6.2c15.5-2.6,30.9-5.3,46.4-8.2c4.9-0.9,6.9,3.4,10.3,4.8
		C359.6,402.2,359.5,402.6,359.4,402.9z"/>
	<path class="st3" d="M610.4,179.4l-1.6-0.4c-0.3-0.3-0.8-0.7-1.1-0.3c-0.4,0.5,0.4,0.5,0.7,0.8c0,1.7,1.6,2.8,2.1,5.3
		c-3.3-2.5-6.6-3.8-8.5-6.9c-1.2-1.9-2.8-1.9-4.5-2c-27.2-0.8-47.5,11-61,34.4c-9.4,16.3-13.5,34.3-16.1,52.6
		c-2.3,16-3.1,32.2-2.5,48.4c0.2,8.9,1.5,17.7,3.8,26.3c0.7,2.6,1.9,3.7,4.5,3.3c13.8-1.5,26.8-7.5,36.9-17.1
		c5-4.7,9.2-10.1,12.6-16c0.9-1.7,1.7-2.6,3.8-0.9c5.8,4.5,6,4.4,1.7,10.6c-12.3,18.4-29.6,28-51.7,29.4c-1.3,0.1-3.6-0.5-3.6,1.5
		c0.2,2.1,1.9,3.7,4,3.7c15.4,1.4,30.8-3.1,43.1-12.4c7.4-5.4,13.5-12.4,18-20.4c1.5-2.6,2.6-2.6,4.9-0.9c5.3,4.1,5.6,4.1,2.1,9.4
		c-11.6,17.6-27.8,28-48.9,30.3c-5.7,0.7-11.5,0.4-17.1-0.8c-0.5,1.1,1.1,1.5,0.4,2.5c-9.3-5.2-14.5-13.4-17.7-23.1
		c-6-18.4-5.8-37.4-4.9-56.5c0.6-12.9,2.2-25.7,4.9-38.4c3.2-14.7,7.8-29,16.1-41.7c10.1-16.3,27.1-27.2,46.2-29.5
		c11.5-1.7,22.4-0.4,31.9,6.9c0.5,0.5,1.1,1,1.7,1.5C610.6,179.1,610.5,179.2,610.4,179.4z"/>
	<path class="st1" d="M776.6,117c-7.9,1.3-15.7,2.8-23.7,4.1c-16.4,2.9-32.9,5.8-49.3,8.7c-6.9,1.2-13.6,2.5-20.5,3.6
		c-1.5,0-2.8,1.2-2.8,2.7c0,0.1,0,0.1,0,0.2c-0.9,14.3-1.7,28.6-2.8,42.9c-1.2,16.9-2.5,33.7-3.7,50.7c-0.8,11.4-1.3,22.7-2.1,34.1
		c-0.9,14-2.1,27.9-3,41.9c-0.4,4.9-0.1,9.8-1.2,14.8c-2.5-1.3-4.9-2.8-7.1-4.5c-0.9-0.7-1.2-1.8-0.9-2.9c1.1-13.6,2-27.2,3-40.9
		c0.8-10.1,1.5-20.1,2.1-30.2c1.1-15.2,2.1-30.3,3.2-45.5c0.7-10.4,1.3-20.8,2-31.2c0.8-11.9,1.7-23.8,2.5-35.7
		c0.1-1.7,1.2-2.1,2.5-2.4c25.8-4.5,51.4-8.9,77.2-13.4c4-0.7,7.9-1.3,11.8-2.2c3.2-0.7,6-0.8,8.5,1.6c1.3,1.1,2.7,2.1,4.2,2.9
		C776.8,116.4,776.8,116.7,776.6,117z"/>
	<path class="st1" d="M793.3,127.8c-13.8,2.4-26.6,4.6-39.3,6.9c-10.7,1.9-21.3,3.7-32,5.6c-6.9,1.2-13.6,2.5-20.5,3.6
		c-3.2,0.5-4.8,1.2-5,5c-0.8,16.1-2.1,32.3-3.2,48.4c-1.3,18.1-2.5,36.1-3.8,54.2c-1.1,15.2-2.1,30.6-3.3,45.8
		c-0.8,11-1.6,21.8-2.5,32.8c0,0.5-0.1,1-0.3,1.5c-2.6-1.3-5.1-2.9-7.3-4.8c-1.1-0.8-0.8-2-0.8-3c1.1-15.2,2.1-30.6,3.3-45.8
		c1.5-19.4,2.9-38.9,4.4-58.5c1.1-14,1.9-27.9,2.8-41.9c0.8-12.2,1.7-24.2,2.5-36.4c0.1-1.7,0.7-2.4,2.5-2.6
		c12.6-2.1,25-4.2,37.6-6.5c17.5-3,35-5.8,52.5-9.5C786.4,121.5,789.1,124.8,793.3,127.8z"/>
	<path class="st0" d="M123,243c-1.6,4.4-3.3,8.7-4.9,13.2c-8.6,23.1-17.2,46.4-25.8,69.6c-8.7,23.5-17.7,47.1-26.6,70.6
		c-5.4,14.5-10.8,29.2-16.1,43.8c-1.3,3.7-1.3,3.7-4.5,1.5c-5.4-3.8-5.3-3.8-2.8-10.3c5.8-15.5,11.4-30.9,17.2-46.4
		c7.9-21.4,16-42.9,24.1-64.3c6-16.1,11.9-32.4,17.9-48.5c4.2-11.2,8.5-22.5,12.7-33.9c0.7-1.7,1.3-2.4,3-1.1
		c1.6,1.2,3.2,2.2,4.9,3.3C122.8,241.1,123.1,242.1,123,243z"/>
	<path class="st0" d="M107.1,232.2c-1.5,3.8-3,8.1-4.5,12.2l-17.5,47.2c-7.3,19.6-14.7,39.1-21.9,58.9c-5.4,14.4-10.6,29-16,43.4
		l-13.9,36.9c-0.5,1.5-1.1,2.1-2.5,0.9c-0.1-0.1-0.1-0.1-0.3-0.1c-6.6-4-6.6-4.1-4-11.2c9.8-26.3,19.6-52.7,29.4-79.1
		c8.7-23.5,17.7-47.1,26.5-70.8c3.6-9.7,7-19.3,10.6-29c1.7-4.8,3.7-9.5,5.4-14.3c0.5-1.5,1.2-2,2.5-1.1c1.7,1.2,3.6,2.5,5.3,3.7
		C106.9,230.4,107.5,231,107.1,232.2z"/>
	<path class="st3" d="M500.7,337.3c-8.5-4.2-13.2-11.6-16.7-20c-3.5-9.4-5.6-19.4-6-29.5c-1.7-25.1,0.5-50.4,6.6-74.9
		c3.6-14.5,9-28.3,18.4-40.2c10.4-13.5,25.8-22.2,42.7-24.2c9.8-1.3,19.3-0.5,28,4.6c1.7,0.9,3.3,2,4.6,3.3
		c-0.3,0.8-0.8,0.5-1.1,0.4c-10.7-4.5-21.4-3.6-32.3-0.8c-19,4.9-32.3,17.2-41.4,34.1c-8.7,16.3-12.8,34-15.2,52.1
		c-2.1,14.7-2.9,29.6-2.4,44.4c0.5,13.2,2,26.5,7.7,38.8c2.1,4.1,4.5,7.9,7.4,11.5C501,337.2,500.9,337.2,500.7,337.3z"/>
	<path class="st3" d="M517.9,349.5c-8.5-4.4-13.8-11.4-17.5-19.8c-3.8-9.1-6.1-18.8-6.6-28.7c-1.5-22.9,0-45.9,4.5-68.4
		c3-15.5,7.8-30.3,16.5-43.5c13.9-20.9,33.5-30.8,58.5-30c7.5,0.3,17.2,4.5,21.4,9.4c-4.9-2.2-10.1-3.4-15.5-3.6
		c-24.6,0-43.5,10.6-56.7,31.1c-8.7,13.5-13.4,28.7-16.4,44.3c-3.7,19-5.2,38.3-4.6,57.7c0.5,13.1,2,26.2,7.8,38.4
		C511.8,341,515.2,345,517.9,349.5L517.9,349.5z"/>
	<path class="st4" d="M403.4,254.6c0.9-11.5,1.9-22.9,2.6-34.4c0.5-7.7,0.9-15.3,1.3-23l0.4-6.7c0.1-1.1,0.9-2.1,2-1.3
		c1.7,1.5,4.1,1.9,5.7,3.6c0.9,1,1.3,2.3,1.2,3.6c-0.7,8.6-1.2,17.3-1.9,25.9c-1.1,13.5-2.1,27-3,40.5c-0.4,6.3-0.7,12.7-1.2,19.2
		c-0.9,13.9-2,27.9-2.9,41.8c-1.1,15.1-2.1,30-3.2,45.1c-0.3,3.3-0.4,6.5-0.7,9.8c-0.1,0.8,0.4,1.9-0.5,2.4
		c-1.2,0.8-1.7-0.7-2.5-1.1c-1.5-0.7-2.8-1.7-4-2.8c-1.6-1.1-2.3-3.1-1.7-4.9c0.6-2.4,1-4.9,0.9-7.4c0.4-16.1,2-32.3,3-48.4
		c1.1-17.3,2.8-34.8,3.7-52.1c0.1-3.2,0.7-6.5,1.1-9.7C403.7,254.8,403.6,254.8,403.4,254.6C403.4,254.7,403.4,254.7,403.4,254.6z"
		/>
	<path class="st2" d="M247.7,408.5c-0.7-0.3-0.9-0.3-1.1-0.4c-5.8-2.6-7.3-6.7-6.7-13.4c3.2-39,5.7-78,8.5-117
		c1.3-19.6,2.6-39,4-58.6c0-0.9,0.3-1.9,0.4-3.3c2.6,1.9,4.9,3.4,7.1,5c1.5,0.9,0.8,2.4,0.8,3.6l-2.8,39.7
		c-2.4,33.6-4.6,67.2-7,100.8C250,379.5,248.8,393.9,247.7,408.5z"/>
	<path class="st4" d="M400.2,186.3c-0.4,14.3-2.1,28.8-2.9,43.6c-0.4,8.2-1.1,16.4-1.7,24.6c-0.9,11-0.5,22.1-2.2,33.1
		c0,0.3-0.1,0.7-0.1,0.9c0,14.7-2.2,29.1-2.8,43.8c-0.4,11.8-1.7,23.5-2.5,35.3c-0.1,2.4-1.1,2.6-2.8,1.5c-1.1-0.8-2.2-1.5-3.3-2.1
		c-2.1-1.3-3.1-3.7-2.5-6.1c0.9-6.5,1.2-13.1,1.6-19.7c0.7-12.3,1.3-24.7,2.2-37c1.3-17.6,2.9-35,3.8-52.6
		c0.7-12.2,1.6-24.5,2.6-36.6c0.9-11.5,2.1-23.1,2.4-34.6c0-0.8-0.1-2,0.8-2.2c0.8-0.3,1.3,0.5,2,0.9c1,0.7,2,1.4,3,2
		C400,181.7,401.1,184.1,400.2,186.3z"/>
	<path class="st4" d="M432.5,208.5c-2,15.7-2,31.5-3.7,47.2c-0.9,8.2-0.9,16.4-1.6,24.7c-1.1,14.5-2.2,29.1-3.2,43.8
		c-0.8,11.5-1.3,22.9-2.1,34.4c-0.7,10.4-1.6,20.9-2.5,31.5c-0.1,1.7-0.8,2.4-2.5,1.3c-6.5-4-6.1-3.8-5.6-11.6
		c0.5-10.2,1.3-20.4,2.1-30.6c1.1-13.6,1.7-27.2,3-40.7c0.7-6.6,1.1-13.4,1.5-20.1c0.7-12.2,1.9-24.2,2.5-36.2
		c0.4-7.4,1.3-14.7,1.6-22.1c0.4-9.3,1.3-18.4,1.9-27.5c0.1-2.5,1.1-2.5,2.8-1.2C429.3,203.1,433.2,204,432.5,208.5z"/>
	<path class="st2" d="M232,397.9c-2.4-1.7-4.2-3-6.2-4.2c-1.6-0.8-2.4-2.6-2-4.4c1.6-21.3,3.2-42.7,4.6-64
		c1.3-17.9,2.4-35.8,3.7-53.7c1.5-21.3,3-42.4,4.6-63.7c0-0.8-0.4-2,0.7-2.2c0.8-0.3,1.3,0.7,2,0.9c5.3,2.1,5.6,6.3,5.2,11.4
		c-2.6,36.6-5.2,73.3-7.7,109.9l-4.4,64.7C232.4,394.2,232.3,395.8,232,397.9z"/>
	<path class="st3" d="M533.7,360c20.6,9.1,51.8-1.1,65.7-18.9c3-3.8,5.7-7.7,8.2-11.8c0.9-1.5,1.7-1.7,3-0.8
		c7.4,5.4,7.5,3.4,2.5,11.1c-11.9,18-28.8,27.5-50.4,29.4c-9.9,1.2-19.9-1.4-27.9-7.4C534.2,361.4,533.8,360.7,533.7,360z"/>
	<path class="st3" d="M626.5,195.4c-7.5-2.8-10.3-9.1-13.9-14.7C618.7,184,623.5,189.2,626.5,195.4z"/>
	<path class="st3" d="M610.8,179c0.5,0.1,1.1,0.3,1.1,0.9c-0.1,0.2-0.2,0.3-0.4,0.4c-0.5,0-1-0.4-1.1-0.9L610.8,179z"/>
	<path class="st3" d="M595.8,168.5c0.1,0,0.1,0.1,0.1,0.1l0,0c-0.1,0-0.1,0.1-0.3,0.1C595.8,168.7,595.8,168.7,595.8,168.5z"/>
	<path class="st3" d="M502.3,338.4c0.3,0.1,0.5,0.1,0.8,0.3C502.6,339.1,502.5,338.8,502.3,338.4z"/>
	<path class="st3" d="M504.2,339.9l0.3,0.1h-0.3V339.9z"/>
	<path class="st3" d="M517.9,349.5c0.3,0.1,0.5,0.1,0.8,0.3c-0.1,0.1-0.1,0.3-0.3,0.4C518.3,349.9,518.2,349.7,517.9,349.5z"/>
	<path class="st3" d="M579.4,157.3h0.3v0.1L579.4,157.3z"/>
	<path class="st3" d="M501.5,337.8c-0.3-0.1-0.5-0.4-0.8-0.5c0.1-0.1,0.3-0.3,0.4-0.3l0.7,0.7L501.5,337.8z"/>
	<path class="st3" d="M501.7,337.7c0.1,0.2,0.3,0.5,0.5,0.7l0,0c-0.3-0.1-0.5-0.4-0.8-0.5C501.5,337.8,501.6,337.8,501.7,337.7z"/>
</g>
<g>
	<path class="st5" d="M226.5,380.2c0.4-0.1,0.8-0.3,1-0.7c0.3-0.4,0.4-0.8,0.4-1.2s-0.1-0.8-0.4-1c-0.3-0.3-0.7-0.4-1-0.3l-14.4,2.5
		c-0.4,0.1-0.8,0.3-1.2,0.7c-0.3,0.4-0.5,0.8-0.5,1.3v22.3c0,0.5,0.1,0.8,0.5,1c0.3,0.3,0.7,0.4,1.2,0.3l14.4-2.5
		c0.4-0.1,0.8-0.3,1-0.7c0.3-0.4,0.4-0.8,0.4-1.2c0-0.4-0.1-0.8-0.4-1c-0.3-0.3-0.7-0.4-1-0.3l-12.7,2.2v-8.2l11.4-2
		c0.4-0.1,0.8-0.3,1-0.7c0.3-0.4,0.4-0.8,0.4-1.2s-0.1-0.8-0.4-1c-0.3-0.3-0.7-0.4-1-0.3l-11.4,2v-8.1L226.5,380.2z"/>
	<path class="st5" d="M244.7,374.2c-0.4-0.3-0.8-0.3-1.3-0.3H243c-0.5,0.1-0.9,0.3-1.3,0.7c-0.4,0.4-0.7,0.8-0.8,1.2l-9.1,23.6
		c-0.1,0.3-0.1,0.5-0.1,0.8c0,0.5,0.1,0.8,0.4,1c0.3,0.3,0.7,0.4,1.2,0.3c0.4,0,0.7-0.3,0.9-0.4c0.3-0.3,0.5-0.5,0.7-0.9l2.4-6.1
		l12.1-2.1l2.4,5.4c0.1,0.3,0.4,0.5,0.7,0.7c0.3,0.1,0.5,0.1,0.9,0.1c0.5-0.1,0.9-0.3,1.2-0.7c0.3-0.4,0.4-0.8,0.4-1.3
		c0-0.1,0-0.4-0.1-0.7l-9.1-20.6C245.3,374.7,245.1,374.4,244.7,374.2z M238.4,391l4.8-12.8l4.8,11.1L238.4,391z"/>
	<path class="st5" d="M264,396c0.3,0.3,0.7,0.4,1.2,0.3c0.4-0.1,0.8-0.3,1.2-0.7c0.3-0.4,0.5-0.8,0.5-1.3v-21l7.3-1.2
		c0.4-0.1,0.8-0.3,1-0.7c0.3-0.4,0.4-0.8,0.4-1.2s-0.1-0.8-0.4-1c-0.3-0.3-0.7-0.4-1-0.3l-17.8,3c-0.4,0.1-0.8,0.3-1,0.7
		c-0.3,0.4-0.4,0.8-0.4,1.2c0,0.4,0.1,0.8,0.4,1c0.3,0.3,0.7,0.4,1,0.3l7.3-1.3v21C263.6,395.3,263.8,395.7,264,396z"/>
	<path class="st5" d="M279.2,389.4h-0.4c-0.5,0.1-1,0.4-1.4,0.8c-0.4,0.5-0.7,1-0.7,1.6v0.3c0,0.5,0.3,1,0.7,1.3
		c0.4,0.4,0.9,0.5,1.4,0.4h0.4c0.5-0.1,1-0.4,1.4-0.8c0.4-0.5,0.7-1,0.7-1.6v-0.3c0-0.5-0.3-1-0.7-1.3
		C280.2,389.4,279.7,389.3,279.2,389.4z"/>
	<path class="st5" d="M302.8,365.8c-1.8-0.9-4.2-1.2-6.9-0.7l-7.2,1.2c-0.4,0.1-0.8,0.3-1.2,0.7c-0.3,0.4-0.5,0.8-0.5,1.3v22.3
		c0,0.5,0.1,0.8,0.5,1c0.3,0.3,0.7,0.4,1.2,0.3l7.2-1.2c2.7-0.5,5-1.4,6.9-3c1.8-1.6,3.3-3.4,4.3-5.5c0.9-2.1,1.4-4.3,1.4-6.4
		s-0.5-4.2-1.4-5.9C306.1,368.2,304.6,366.7,302.8,365.8z M304,381.6c-0.8,1.6-2,2.9-3.4,4c-1.4,1-3.1,1.8-5.1,2.1l-5.1,0.9v-19.5
		l5.1-0.9c2-0.4,3.7-0.3,5.1,0.4c1.4,0.5,2.6,1.6,3.4,2.9c0.8,1.3,1.2,2.9,1.2,4.8C305.3,378.4,304.9,380,304,381.6z"/>
	<path class="st5" d="M332.3,370.4c0.8-1.3,1.2-2.7,1.2-4.2c0-2.2-0.8-3.9-2.5-5c-1.6-1-4-1.3-7.3-0.8l-8.4,1.4
		c-0.4,0.1-0.8,0.3-1.2,0.7c-0.3,0.4-0.5,0.8-0.5,1.3v22.5c0,0.5,0.1,0.8,0.5,1c0.3,0.3,0.7,0.4,1.2,0.3c0.4-0.1,0.8-0.3,1.2-0.7
		c0.3-0.4,0.5-0.8,0.5-1.3v-8.5l7.4-1.3c1.7-0.3,2.9-0.1,3.7,0.7c0.8,0.7,1.3,1.6,1.6,2.5c0.3,1,0.3,2.1,0.3,3.4v1
		c0,0.5,0.1,0.9,0.4,1.2c0.3,0.3,0.7,0.4,1.2,0.3c0.4-0.1,0.8-0.3,1.2-0.7c0.3-0.4,0.5-0.8,0.5-1.3v-1.7c0-1.7-0.3-3.3-0.9-5
		c-0.7-1.6-1.8-2.5-3.5-2.7C330.4,372.9,331.5,371.8,332.3,370.4z M328.5,370.8c-1.2,1-2.9,1.7-4.8,2.1l-6.5,1v-9.4l6.3-1
		c2.5-0.4,4.3-0.4,5.4,0.3c1,0.7,1.6,1.7,1.6,3.1C330.4,368.6,329.7,369.7,328.5,370.8z"/>
	<path class="st5" d="M339.8,358c-0.3,0.4-0.5,0.8-0.5,1.3v22.6c0,0.5,0.1,0.8,0.5,1c0.3,0.3,0.7,0.4,1.2,0.3
		c0.4-0.1,0.8-0.3,1.2-0.7c0.3-0.4,0.5-0.8,0.5-1.3v-22.7c0-0.5-0.1-0.8-0.5-1.2s-0.7-0.4-1.2-0.3
		C340.5,357.3,340.2,357.6,339.8,358z"/>
	<path class="st5" d="M368.5,353c-0.3,0.4-0.5,0.8-0.5,1.3v19.8l-13.7-18c-0.5-0.7-1.2-0.9-2-0.8l-0.5,0.1c-0.7,0.1-1.2,0.4-1.7,1
		c-0.4,0.5-0.7,1.2-0.7,1.8v21.9c0,0.5,0.1,0.8,0.5,1c0.3,0.3,0.7,0.4,1.2,0.3c0.4-0.1,0.8-0.3,1.2-0.7c0.3-0.4,0.5-0.8,0.5-1.3v-20
		l13.8,18.2c0.3,0.3,0.5,0.4,0.8,0.5c0.4,0.1,0.7,0.1,1,0.1l0.4-0.1c0.7-0.1,1.2-0.4,1.7-1c0.5-0.5,0.7-1.2,0.7-1.8v-21.9
		c0-0.5-0.1-0.8-0.5-1.2c-0.3-0.3-0.7-0.4-1.2-0.3C369.1,352.5,368.7,352.6,368.5,353z"/>
	<path class="st5" d="M381,350.9c-0.3-0.3-0.7-0.4-1.2-0.3c-0.4,0.1-0.8,0.3-1.2,0.7c-0.3,0.4-0.5,0.8-0.5,1.3v22.7
		c0,0.5,0.1,0.8,0.5,1c0.3,0.3,0.7,0.4,1.2,0.3c0.4-0.1,0.8-0.3,1.2-0.7c0.3-0.4,0.5-0.8,0.5-1.3v-6.9l4-5l9.3,10.6
		c0.3,0.4,0.8,0.5,1.3,0.4c0.4-0.1,0.8-0.3,1.2-0.7c0.3-0.4,0.4-0.8,0.4-1.2s-0.1-0.7-0.4-1l-9.5-10.7l8.2-9.9
		c0.3-0.3,0.4-0.7,0.4-1.2c0-0.4-0.1-0.8-0.4-0.9c-0.3-0.3-0.7-0.3-1-0.3c-0.5,0.1-0.9,0.4-1.2,0.8l-12.3,14.9v-11.8
		C381.4,351.6,381.3,351.2,381,350.9z"/>
	<path class="st5" d="M403.5,368.2h-0.4c-0.5,0.1-1,0.4-1.4,0.8c-0.4,0.5-0.7,1-0.7,1.6v0.3c0,0.5,0.3,1,0.7,1.3
		c0.4,0.4,0.9,0.5,1.4,0.4h0.4c0.5-0.1,1-0.4,1.4-0.8c0.4-0.5,0.7-1,0.7-1.6v-0.3c0-0.5-0.3-1-0.7-1.3
		C404.5,368.2,404,368,403.5,368.2z"/>
	<path class="st5" d="M427.1,344.5c-1.8-0.9-4.2-1.2-6.9-0.7l-7.2,1.2c-0.4,0.1-0.8,0.3-1.2,0.7c-0.3,0.4-0.5,0.8-0.5,1.3v22.3
		c0,0.5,0.1,0.8,0.5,1c0.3,0.3,0.7,0.4,1.2,0.3l7.2-1.2c2.7-0.5,5-1.4,6.9-3c2-1.6,3.3-3.4,4.3-5.5c0.9-2.1,1.4-4.3,1.4-6.4
		s-0.5-4.2-1.4-5.9C430.5,346.9,429.1,345.4,427.1,344.5z M428.4,360.3c-0.8,1.6-2,2.9-3.4,4c-1.4,1-3.1,1.8-5.1,2.1l-5.1,0.9v-19.5
		l5.1-0.9c2-0.4,3.7-0.3,5.1,0.4c1.4,0.5,2.6,1.6,3.4,2.9c0.8,1.3,1.2,2.9,1.2,4.8C429.6,357.1,429.2,358.8,428.4,360.3z"/>
	<path class="st5" d="M455.8,339.2c-1.8-0.8-4-1-6.5-0.5c-2.5,0.4-4.7,1.3-6.5,2.9c-1.8,1.4-3.4,3.3-4.3,5.4c-1,2.2-1.6,4.6-1.6,7.1
		c0,2.6,0.5,4.7,1.6,6.5c1,1.8,2.5,3.1,4.3,3.9c1.8,0.8,4,1,6.5,0.5c2.5-0.4,4.7-1.3,6.5-2.9c1.8-1.4,3.3-3.3,4.3-5.5
		s1.6-4.6,1.6-7.1s-0.7-4.7-1.6-6.5C459.2,341.3,457.8,340,455.8,339.2z M457.5,355.5c-0.8,1.7-1.8,3-3.3,4.2c-1.4,1.2-3,1.8-5,2.2
		c-2,0.4-3.7,0.1-5-0.5c-1.4-0.7-2.5-1.7-3.1-3c-0.8-1.4-1-3-1-5c0-2,0.4-3.7,1-5.4c0.8-1.7,1.8-3,3.1-4.2c1.4-1.2,3-1.8,5-2.2
		c2-0.3,3.5-0.1,5,0.5c1.4,0.7,2.5,1.7,3.3,3c0.8,1.4,1,3,1,5C458.6,352.1,458.2,353.8,457.5,355.5z"/>
	<path class="st5" d="M467.7,357.2h-0.4c-0.5,0.1-1,0.4-1.4,0.8c-0.4,0.5-0.7,1-0.7,1.6v0.3c0,0.5,0.3,1,0.7,1.3
		c0.4,0.4,0.9,0.5,1.4,0.4h0.4c0.5-0.1,1-0.4,1.4-0.8c0.4-0.5,0.7-1,0.7-1.6v-0.3c0-0.5-0.3-1-0.7-1.3
		C468.8,357.2,468.3,357.1,467.7,357.2z"/>
	<path class="st5" d="M483.3,356c-2.5,0.4-4.8,0.4-7.1-0.3c-0.3,0-0.4-0.1-0.7,0c-0.4,0.1-0.8,0.3-1,0.7c-0.3,0.4-0.4,0.8-0.4,1.2
		c0,0.3,0.1,0.7,0.3,0.9c0.1,0.3,0.4,0.4,0.7,0.5c2.6,0.8,5.5,0.8,8.5,0.3c1.8-0.3,3.4-0.9,4.8-1.7c1.4-0.9,2.5-1.8,3.3-3.1
		c0.8-1.2,1.2-2.5,1.2-3.9c0-1.7-0.4-2.9-1.2-3.8c-0.8-0.8-1.8-1.4-3-1.7c-1.2-0.3-2.6-0.5-4.6-0.7c-1.4-0.1-2.6-0.3-3.4-0.4
		c-0.8-0.1-1.6-0.5-2.1-0.9c-0.5-0.4-0.8-1.2-0.8-2c0-1.3,0.7-2.5,1.8-3.4s2.7-1.6,4.6-1.8c2-0.4,3.9-0.4,5.7,0c0.3,0,0.4,0.1,0.5,0
		c0.4-0.1,0.8-0.3,1-0.7c0.3-0.4,0.4-0.8,0.4-1.2c0-0.8-0.4-1.2-1-1.3c-2.1-0.4-4.4-0.4-7.1,0c-2,0.4-3.7,0.9-5,1.8
		c-1.4,0.9-2.5,2-3.1,3.3c-0.7,1.3-1,2.6-1,4c0,1.6,0.4,2.7,1.3,3.7c0.9,0.8,1.8,1.3,3.1,1.6c1.2,0.3,2.7,0.5,4.7,0.7
		c1.4,0.1,2.6,0.3,3.4,0.4c0.8,0.1,1.4,0.4,2,0.8c0.5,0.4,0.8,0.9,0.8,1.7C489.5,353.5,487.4,355.2,483.3,356z"/>
	<path class="st5" d="M515,353c0.3,0.3,0.7,0.4,1.2,0.3c0.4-0.1,0.8-0.3,1.2-0.7c0.3-0.4,0.5-0.8,0.5-1.3v-22.7
		c0-0.5-0.1-0.8-0.5-1.2c-0.3-0.3-0.7-0.4-1.2-0.3c-0.4,0.1-0.8,0.3-1.2,0.7c-0.3,0.4-0.5,0.8-0.5,1.3v9.8l-13.6,2.4v-9.8
		c0-0.5-0.1-0.8-0.5-1.2c-0.3-0.3-0.7-0.4-1.2-0.3c-0.4,0.1-0.8,0.3-1.2,0.7c-0.3,0.4-0.5,0.8-0.5,1.3v22.7c0,0.5,0.1,0.8,0.5,1
		c0.3,0.3,0.7,0.4,1.2,0.3c0.4-0.1,0.8-0.3,1.2-0.7c0.3-0.4,0.5-0.8,0.5-1.3v-9.8l13.6-2.4v9.8C514.5,352.5,514.6,352.8,515,353z"/>
	<path class="st5" d="M542.3,324.4c-1.8-0.8-4-1-6.5-0.5c-2.5,0.4-4.7,1.3-6.5,2.9c-1.8,1.4-3.4,3.3-4.3,5.4c-1,2.2-1.6,4.6-1.6,7.1
		c0,2.6,0.5,4.7,1.6,6.5c1,1.8,2.5,3.1,4.3,3.9c1.8,0.8,4,1,6.5,0.5c2.5-0.4,4.7-1.3,6.5-2.9c1.8-1.4,3.3-3.3,4.3-5.5
		c1-2.2,1.6-4.6,1.6-7.1s-0.7-4.7-1.6-6.5C545.6,326.5,544.1,325.2,542.3,324.4z M543.9,340.7c-0.8,1.7-1.8,3-3.3,4.2
		c-1.4,1.2-3,1.8-5,2.2c-2,0.4-3.7,0.1-5-0.5c-1.4-0.7-2.5-1.7-3.1-3c-0.8-1.4-1-3-1-5s0.4-3.7,1-5.4c0.8-1.7,1.8-3,3.1-4.2
		c1.4-1.2,3-1.8,5-2.2c2-0.3,3.5-0.1,5,0.5c1.4,0.7,2.5,1.7,3.3,3c0.8,1.4,1,3,1,5C544.9,337.3,544.6,339,543.9,340.7z"/>
	<path class="st5" d="M568.9,319.6c-1.4-0.5-3.3-0.7-5.5-0.3l-8.1,1.4c-0.4,0.1-0.8,0.3-1.2,0.7c-0.3,0.4-0.5,0.8-0.5,1.3v22.6
		c0,0.5,0.1,0.8,0.5,1c0.3,0.3,0.7,0.4,1.2,0.3c0.4-0.1,0.8-0.3,1.2-0.7c0.3-0.4,0.5-0.8,0.5-1.3v-7.8l6.5-1.2c2.2-0.4,4-1,5.5-2.1
		c1.4-1,2.5-2.2,3.1-3.5c0.7-1.3,0.9-2.7,0.9-4.2c0-1.4-0.3-2.7-0.9-3.8C571.4,321,570.4,320.2,568.9,319.6z M568.3,330.3
		c-1,1.2-2.7,2-5.1,2.4l-6.1,1v-10.1l6.1-1c2.5-0.4,4.2-0.3,5.1,0.5c1,0.8,1.4,2,1.4,3.3S569.2,329.3,568.3,330.3z"/>
</g>
</svg>
