<?xml version="1.0" encoding="utf-8"?>
<!-- Generator: Adobe Illustrator 24.2.3, SVG Export Plug-In . SVG Version: 6.00 Build 0)  -->
<svg version="1.1" id="Layer_1" xmlns="http://www.w3.org/2000/svg" xmlns:xlink="http://www.w3.org/1999/xlink" x="0px" y="0px"
	 viewBox="0 0 200 200" style="enable-background:new 0 0 200 200;" xml:space="preserve">
<style type="text/css">
	.st0{fill:#FAFAFA;}
</style>
<g>
	<path class="st0" d="M34.4,68.8h131.2c5.2,0,9.4-4.2,9.4-9.4s-4.2-9.4-9.4-9.4H34.4c-5.2,0-9.4,4.2-9.4,9.4S29.2,68.8,34.4,68.8z"
		/>
	<path class="st0" d="M165.6,90.6H34.4c-5.2,0-9.4,4.2-9.4,9.4s4.2,9.4,9.4,9.4h131.2c5.2,0,9.4-4.2,9.4-9.4S170.8,90.6,165.6,90.6z
		"/>
	<path class="st0" d="M165.6,131.3H34.4c-5.2,0-9.4,4.2-9.4,9.4s4.2,9.4,9.4,9.4h131.2c5.2,0,9.4-4.2,9.4-9.4
		S170.8,131.3,165.6,131.3z"/>
</g>
</svg>
