<?xml version="1.0" encoding="utf-8"?>
<!-- Generator: Adobe Illustrator 24.3.0, SVG Export Plug-In . SVG Version: 6.00 Build 0)  -->
<svg version="1.1" id="Layer_2" xmlns="http://www.w3.org/2000/svg" xmlns:xlink="http://www.w3.org/1999/xlink" x="0px" y="0px"
	 viewBox="0 0 170.2 65.2" style="enable-background:new 0 0 170.2 65.2;" xml:space="preserve">
<style type="text/css">
	.st0{fill:#969696;}
</style>
<polygon style="fill:none;" points="168.9,296.3 -12.6,327.3 -0.2,297.5 181.3,266.4 "/>
<text transform="matrix(0.9716 -0.1661 0 1 -1.1707 319.2444)" class="st0" style="font-family:'VarelaRound-Regular'; font-size:29.4206px;">TAKEAWAY</text>
<g>
	<path class="st0" d="M16.4,42.5c0.6-1.1,1-2.2,1-3.4c0-1.8-0.6-3.1-1.9-4c-1.3-0.9-3.2-1.1-5.8-0.7l-6.7,1.1
		c-0.4,0.1-0.7,0.2-0.9,0.6c-0.2,0.3-0.4,0.6-0.4,1v18c0,0.4,0.1,0.7,0.4,0.9s0.6,0.3,0.9,0.2c0.4-0.1,0.7-0.2,0.9-0.5
		s0.4-0.6,0.4-1V48l5.9-1c1.3-0.2,2.3-0.1,2.9,0.5c0.6,0.5,1.1,1.2,1.2,2c0.2,0.8,0.3,1.7,0.3,2.7V53c0,0.4,0.1,0.7,0.4,0.9
		c0.2,0.2,0.6,0.3,1,0.2c0.4-0.1,0.7-0.2,0.9-0.5c0.2-0.3,0.4-0.6,0.4-1v-1.4c0-1.3-0.3-2.6-0.8-3.9c-0.5-1.3-1.4-2-2.8-2.2
		C14.8,44.5,15.7,43.6,16.4,42.5z M13.3,42.9c-1,0.8-2.3,1.4-3.9,1.7l-5.2,0.9V38l5-0.9c2-0.3,3.4-0.3,4.2,0.2
		c0.8,0.5,1.2,1.3,1.2,2.5C14.7,41,14.2,42.1,13.3,42.9z"/>
	<path class="st0" d="M34.7,32.7c0.3-0.1,0.6-0.2,0.9-0.5c0.2-0.3,0.4-0.6,0.4-0.9s-0.1-0.6-0.4-0.8c-0.2-0.2-0.5-0.3-0.9-0.2
		l-11.5,2c-0.4,0.1-0.7,0.2-0.9,0.6c-0.2,0.3-0.4,0.6-0.4,1v17.9c0,0.4,0.1,0.7,0.4,0.9c0.2,0.2,0.6,0.3,0.9,0.2l11.5-2
		c0.3-0.1,0.6-0.2,0.9-0.5c0.2-0.3,0.4-0.6,0.4-0.9c0-0.4-0.1-0.6-0.4-0.8c-0.2-0.2-0.5-0.3-0.9-0.2L24.6,50v-6.5l9.1-1.6
		c0.3-0.1,0.6-0.2,0.9-0.5c0.2-0.3,0.4-0.6,0.4-0.9c0-0.4-0.1-0.6-0.4-0.8c-0.2-0.2-0.5-0.3-0.9-0.2L24.6,41v-6.5L34.7,32.7z"/>
	<path class="st0" d="M46.2,46.6c-2,0.3-3.9,0.3-5.6-0.2c-0.2,0-0.4-0.1-0.5,0c-0.3,0.1-0.6,0.2-0.8,0.5c-0.2,0.3-0.3,0.6-0.3,0.9
		c0,0.3,0.1,0.5,0.2,0.7c0.2,0.2,0.3,0.3,0.6,0.4c2.1,0.6,4.4,0.7,6.8,0.2c1.4-0.2,2.7-0.7,3.8-1.4s2-1.5,2.6-2.5
		c0.6-1,0.9-2,0.9-3.1c0-1.3-0.3-2.3-1-3s-1.4-1.1-2.4-1.3c-0.9-0.2-2.1-0.4-3.6-0.5c-1.2-0.1-2.1-0.2-2.8-0.3
		c-0.7-0.1-1.2-0.4-1.7-0.7c-0.4-0.4-0.7-0.9-0.7-1.6c0-1.1,0.5-2,1.4-2.7c0.9-0.8,2.2-1.3,3.7-1.5c1.6-0.3,3.1-0.3,4.6,0
		c0.2,0,0.3,0.1,0.5,0c0.3-0.1,0.6-0.2,0.8-0.5c0.2-0.3,0.3-0.6,0.3-0.9c0-0.6-0.3-0.9-0.8-1c-1.7-0.4-3.6-0.4-5.7,0
		c-1.6,0.3-2.9,0.8-4,1.5c-1.1,0.7-2,1.6-2.5,2.6c-0.6,1-0.9,2.1-0.9,3.2c0,1.3,0.3,2.2,1,2.9c0.7,0.6,1.5,1.1,2.5,1.3
		c1,0.2,2.2,0.4,3.7,0.6c1.2,0.1,2.1,0.2,2.7,0.3c0.6,0.1,1.2,0.3,1.6,0.7c0.4,0.3,0.6,0.8,0.6,1.4C51.2,44.6,49.6,46,46.2,46.6z"/>
	<path class="st0" d="M70.6,26.6c0.3-0.1,0.6-0.2,0.9-0.5c0.2-0.3,0.4-0.6,0.4-0.9s-0.1-0.6-0.4-0.8c-0.2-0.2-0.5-0.3-0.9-0.2
		l-11.5,2c-0.4,0.1-0.7,0.2-0.9,0.6c-0.2,0.3-0.4,0.6-0.4,1v17.9c0,0.4,0.1,0.7,0.4,0.9c0.2,0.2,0.6,0.3,0.9,0.2l11.5-2
		c0.3-0.1,0.6-0.2,0.9-0.5c0.2-0.3,0.4-0.6,0.4-0.9c0-0.4-0.1-0.6-0.4-0.8c-0.2-0.2-0.5-0.3-0.9-0.2l-10.1,1.7v-6.5l9.1-1.6
		c0.3-0.1,0.6-0.2,0.9-0.5s0.4-0.6,0.4-0.9c0-0.4-0.1-0.6-0.4-0.8s-0.5-0.3-0.9-0.2l-9.1,1.6v-6.5L70.6,26.6z"/>
	<path class="st0" d="M90.8,29.8c0.6-1.1,1-2.2,1-3.4c0-1.8-0.6-3.1-1.9-4c-1.3-0.9-3.2-1.1-5.8-0.7l-6.7,1.1
		c-0.4,0.1-0.7,0.2-0.9,0.6c-0.2,0.3-0.4,0.6-0.4,1v18c0,0.4,0.1,0.7,0.4,0.9c0.2,0.2,0.6,0.3,0.9,0.2c0.4-0.1,0.7-0.2,0.9-0.5
		c0.3-0.3,0.4-0.6,0.4-1v-6.8l5.9-1c1.3-0.2,2.3-0.1,2.9,0.5c0.6,0.5,1.1,1.2,1.2,2c0.2,0.8,0.3,1.7,0.3,2.7v0.9
		c0,0.4,0.1,0.7,0.4,0.9c0.2,0.2,0.6,0.3,1,0.2c0.4-0.1,0.7-0.2,0.9-0.5c0.2-0.3,0.4-0.6,0.4-1v-1.4c0-1.3-0.3-2.6-0.8-3.9
		c-0.5-1.3-1.4-2-2.8-2.2C89.2,31.8,90.2,30.9,90.8,29.8z M87.7,30.2c-1,0.8-2.3,1.4-3.9,1.7l-5.2,0.9v-7.5l5-0.9
		c2-0.3,3.4-0.3,4.2,0.2s1.2,1.3,1.2,2.5C89.2,28.3,88.7,29.3,87.7,30.2z"/>
	<path class="st0" d="M103.2,39.2l0.6-0.1c0.8-0.1,1.4-0.7,1.8-1.7l7.1-18.8c0.1-0.2,0.1-0.3,0.1-0.5c0-0.4-0.1-0.7-0.3-0.9
		c-0.2-0.2-0.5-0.3-0.9-0.2c-0.3,0-0.5,0.2-0.7,0.4c-0.2,0.2-0.4,0.5-0.5,0.7l-6.7,18.4l-6.7-16.1c-0.1-0.3-0.3-0.4-0.5-0.6
		c-0.2-0.1-0.5-0.2-0.7-0.1c-0.4,0.1-0.7,0.2-0.9,0.5c-0.2,0.3-0.3,0.6-0.3,1c0,0.2,0,0.3,0.1,0.5l7.1,16.4
		C101.9,39,102.4,39.3,103.2,39.2z"/>
	<path class="st0" d="M129,16.6c0.3-0.1,0.6-0.2,0.9-0.5c0.2-0.3,0.4-0.6,0.4-0.9s-0.1-0.6-0.4-0.8c-0.2-0.2-0.5-0.3-0.9-0.2
		l-11.5,2c-0.4,0.1-0.7,0.2-0.9,0.6c-0.2,0.3-0.4,0.6-0.4,1v17.9c0,0.4,0.1,0.7,0.4,0.9c0.2,0.2,0.6,0.3,0.9,0.2l11.5-2
		c0.3-0.1,0.6-0.2,0.9-0.5c0.2-0.3,0.4-0.6,0.4-0.9c0-0.4-0.1-0.6-0.4-0.8c-0.2-0.2-0.5-0.3-0.9-0.2l-10.1,1.7v-6.5l9.1-1.6
		c0.3-0.1,0.6-0.2,0.9-0.5c0.2-0.3,0.4-0.6,0.4-0.9c0-0.4-0.1-0.6-0.4-0.8c-0.2-0.2-0.5-0.3-0.9-0.2l-9.1,1.6v-6.5L129,16.6z"/>
	<path class="st0" d="M147.2,13.5c0.3-0.1,0.6-0.2,0.9-0.5c0.2-0.3,0.4-0.6,0.4-0.9s-0.1-0.6-0.4-0.8c-0.2-0.2-0.5-0.3-0.9-0.2
		l-11.5,2c-0.4,0.1-0.7,0.2-0.9,0.6c-0.2,0.3-0.4,0.6-0.4,1v17.9c0,0.4,0.1,0.7,0.4,0.9c0.2,0.2,0.6,0.3,0.9,0.2l11.5-2
		c0.3-0.1,0.6-0.2,0.9-0.5c0.2-0.3,0.4-0.6,0.4-0.9c0-0.4-0.1-0.6-0.4-0.8c-0.2-0.2-0.5-0.3-0.9-0.2l-10.1,1.7v-6.5l9.1-1.6
		c0.3-0.1,0.6-0.2,0.9-0.5s0.4-0.6,0.4-0.9c0-0.4-0.1-0.6-0.4-0.8s-0.5-0.3-0.9-0.2l-9.1,1.6v-6.5L147.2,13.5z"/>
	<path class="st0" d="M167.5,16.7c0.6-1.1,1-2.2,1-3.4c0-1.8-0.6-3.1-1.9-4c-1.3-0.9-3.2-1.1-5.8-0.7L154,9.8
		c-0.4,0.1-0.7,0.2-0.9,0.6c-0.2,0.3-0.4,0.6-0.4,1v18c0,0.4,0.1,0.7,0.4,0.9c0.2,0.2,0.6,0.3,0.9,0.2c0.4-0.1,0.7-0.2,0.9-0.5
		s0.4-0.6,0.4-1v-6.8l5.9-1c1.3-0.2,2.3-0.1,2.9,0.5c0.6,0.5,1.1,1.2,1.2,2c0.2,0.8,0.3,1.7,0.3,2.7v0.9c0,0.4,0.1,0.7,0.4,0.9
		c0.2,0.2,0.6,0.3,1,0.2c0.4-0.1,0.7-0.2,0.9-0.5s0.4-0.6,0.4-1v-1.4c0-1.3-0.3-2.6-0.8-3.9c-0.5-1.3-1.4-2-2.8-2.2
		C165.9,18.7,166.8,17.8,167.5,16.7z M164.4,17.1c-1,0.8-2.3,1.4-3.9,1.7l-5.2,0.9v-7.5l5-0.9c2-0.3,3.4-0.3,4.2,0.2
		c0.8,0.5,1.2,1.3,1.2,2.5C165.8,15.2,165.3,16.2,164.4,17.1z"/>
	<path class="st0" d="M169,0L1.5,28.6c-0.6,0.1-1,0.6-0.9,1.2c0.1,0.5,0.5,0.9,1,0.9c0.1,0,0.1,0,0.2,0L169.3,2.1
		c0.6-0.1,1-0.6,0.9-1.2C170.1,0.3,169.5-0.1,169,0z"/>
	<path class="st0" d="M168.3,34.5L0.9,63.1c-0.6,0.1-1,0.6-0.9,1.2c0.1,0.5,0.5,0.9,1,0.9c0.1,0,0.1,0,0.2,0l167.5-28.6
		c0.6-0.1,1-0.6,0.9-1.2C169.4,34.7,168.9,34.4,168.3,34.5z"/>
</g>
</svg>
