<?xml version="1.0" encoding="utf-8"?>
<!-- Generator: Adobe Illustrator 24.3.0, SVG Export Plug-In . SVG Version: 6.00 Build 0)  -->
<svg version="1.1" id="Layer_2" xmlns="http://www.w3.org/2000/svg" xmlns:xlink="http://www.w3.org/1999/xlink" x="0px" y="0px"
	 viewBox="0 0 784.2 432.8" style="enable-background:new 0 0 784.2 432.8;" xml:space="preserve">
<style type="text/css">
	.st0{fill:#969696;}
	.st1{fill:none;stroke:#969696;stroke-width:2;stroke-linecap:round;stroke-miterlimit:10;}
</style>
<polygon style="fill:none;" points="486.4,478.2 304.9,509.2 317.3,479.4 498.8,448.3 "/>
<text transform="matrix(0.9716 -0.1661 0 1 316.3464 501.1399)" class="st0" style="font-family:'VarelaRound-Regular'; font-size:29.4206px;">TAKEAWAY</text>
<g>
	<path class="st0" d="M327.9,237c-0.2-0.2-0.4-0.5-0.4-0.8v-16l-5.5,0.9c-0.3,0.1-0.6,0-0.8-0.2c-0.2-0.2-0.3-0.4-0.3-0.8
		s0.1-0.6,0.3-0.9c0.2-0.3,0.5-0.4,0.8-0.5l13.5-2.3c0.3-0.1,0.6,0,0.8,0.2c0.2,0.2,0.3,0.5,0.3,0.8s-0.1,0.6-0.3,0.9
		c-0.2,0.3-0.5,0.4-0.8,0.5l-5.5,0.9v16c0,0.4-0.1,0.7-0.4,1c-0.2,0.3-0.5,0.5-0.9,0.5C328.5,237.3,328.2,237.2,327.9,237z"/>
	<path class="st0" d="M337.1,235.5c-0.2-0.2-0.3-0.5-0.3-0.8c0-0.1,0-0.3,0.1-0.6l6.9-18c0.1-0.4,0.3-0.7,0.6-0.9
		c0.3-0.3,0.6-0.4,1-0.5l0.3,0c0.4-0.1,0.7,0,1,0.2c0.3,0.2,0.5,0.4,0.6,0.7l6.9,15.6c0.1,0.2,0.1,0.4,0.1,0.5c0,0.4-0.1,0.7-0.3,1
		c-0.2,0.3-0.5,0.5-0.9,0.5c-0.3,0-0.5,0-0.7-0.1c-0.2-0.1-0.4-0.3-0.5-0.5l-1.8-4.1l-9.2,1.6l-1.8,4.7c-0.1,0.3-0.3,0.5-0.5,0.7
		c-0.2,0.2-0.4,0.3-0.7,0.3C337.6,235.7,337.3,235.7,337.1,235.5z M341.8,227.6l7.3-1.2l-3.7-8.4L341.8,227.6z"/>
	<path class="st0" d="M358.6,231.8c-0.2-0.2-0.4-0.5-0.4-0.8v-17.2c0-0.4,0.1-0.7,0.4-1c0.2-0.3,0.5-0.5,0.9-0.5
		c0.3-0.1,0.6,0,0.9,0.2c0.2,0.2,0.4,0.5,0.4,0.8v8.9l9.3-11.3c0.3-0.3,0.6-0.5,0.9-0.6c0.3-0.1,0.6,0,0.8,0.2
		c0.2,0.2,0.3,0.4,0.3,0.7c0,0.4-0.1,0.7-0.3,0.9l-6.3,7.5l7.2,8.1c0.2,0.2,0.3,0.5,0.3,0.8c0,0.3-0.1,0.6-0.3,0.9
		c-0.2,0.3-0.5,0.5-0.9,0.5c-0.4,0.1-0.7,0-1-0.3l-7-8l-3.1,3.7v5.2c0,0.4-0.1,0.7-0.4,1c-0.2,0.3-0.5,0.5-0.9,0.5
		C359.1,232.1,358.8,232,358.6,231.8z"/>
	<path class="st0" d="M376.7,228.5c-0.2-0.2-0.4-0.5-0.4-0.8v-16.9c0-0.4,0.1-0.7,0.4-1c0.2-0.3,0.5-0.5,0.9-0.5l10.9-1.9
		c0.3-0.1,0.6,0,0.8,0.2c0.2,0.2,0.3,0.5,0.3,0.8s-0.1,0.6-0.3,0.9c-0.2,0.3-0.5,0.4-0.8,0.5l-9.6,1.6v6.2l8.6-1.5
		c0.3-0.1,0.6,0,0.8,0.2c0.2,0.2,0.3,0.5,0.3,0.8c0,0.3-0.1,0.6-0.3,0.9c-0.2,0.3-0.5,0.4-0.8,0.5l-8.6,1.5v6.2l9.6-1.6
		c0.3-0.1,0.6,0,0.8,0.2s0.3,0.5,0.3,0.8c0,0.3-0.1,0.6-0.3,0.9s-0.5,0.4-0.8,0.5l-10.9,1.9C377.3,228.8,377,228.7,376.7,228.5z"/>
	<path class="st0" d="M392.7,225.9c-0.2-0.2-0.3-0.5-0.3-0.8c0-0.1,0-0.3,0.1-0.6l6.9-18c0.1-0.4,0.3-0.7,0.6-0.9
		c0.3-0.3,0.6-0.4,1-0.5l0.3,0c0.4-0.1,0.7,0,1,0.2c0.3,0.2,0.5,0.4,0.6,0.7l6.9,15.6c0.1,0.2,0.1,0.4,0.1,0.5
		c0,0.4-0.1,0.7-0.3,0.9c-0.2,0.3-0.5,0.5-0.9,0.5c-0.3,0-0.5,0-0.7-0.1c-0.2-0.1-0.4-0.3-0.5-0.5l-1.8-4l-9.2,1.6l-1.8,4.7
		c-0.1,0.3-0.3,0.5-0.5,0.7c-0.2,0.2-0.4,0.3-0.7,0.3C393.3,226.2,393,226.1,392.7,225.9z M397.5,218l7.3-1.3l-3.7-8.4L397.5,218z"
		/>
	<path class="st0" d="M418,221.7c-0.3-0.2-0.5-0.4-0.6-0.8l-5.3-15.9c-0.1-0.2-0.1-0.3-0.1-0.5c0-0.4,0.1-0.7,0.3-0.9
		c0.2-0.3,0.5-0.4,0.9-0.5c0.3,0,0.5,0,0.8,0.1c0.2,0.1,0.4,0.4,0.5,0.6l4.6,14.6l4.6-16.1c0.1-0.3,0.3-0.6,0.5-0.9
		c0.3-0.2,0.6-0.4,0.9-0.4c0.3-0.1,0.6,0,0.9,0.1c0.3,0.2,0.4,0.4,0.5,0.7l4.6,14.6l4.6-16.2c0.1-0.3,0.2-0.6,0.5-0.8
		c0.2-0.2,0.5-0.4,0.8-0.4c0.4-0.1,0.7,0,0.9,0.2c0.2,0.2,0.3,0.5,0.3,0.8c0,0.1,0,0.3-0.1,0.5l-5.3,17.7c-0.1,0.4-0.4,0.8-0.6,1
		c-0.3,0.3-0.6,0.4-1,0.5c-0.4,0.1-0.7,0-1-0.2c-0.3-0.2-0.5-0.4-0.6-0.8l-4.4-13.5l-4.4,15c-0.1,0.4-0.3,0.7-0.6,1
		c-0.3,0.3-0.6,0.5-1,0.5C418.6,221.9,418.3,221.8,418,221.7z"/>
	<path class="st0" d="M440.3,217.8c-0.2-0.2-0.3-0.5-0.3-0.8c0-0.1,0-0.3,0.1-0.6l6.9-18c0.1-0.4,0.3-0.7,0.6-0.9
		c0.3-0.3,0.6-0.4,1-0.5l0.3,0c0.4-0.1,0.7,0,1,0.2c0.3,0.2,0.5,0.4,0.6,0.7l6.9,15.6c0.1,0.2,0.1,0.4,0.1,0.5c0,0.4-0.1,0.7-0.3,1
		c-0.2,0.3-0.5,0.5-0.9,0.5c-0.3,0-0.5,0-0.7-0.1c-0.2-0.1-0.4-0.3-0.5-0.5l-1.8-4.1l-9.2,1.6l-1.8,4.7c-0.1,0.3-0.3,0.5-0.5,0.7
		c-0.2,0.2-0.4,0.3-0.7,0.3C440.9,218.1,440.6,218,440.3,217.8z M445.1,209.9l7.3-1.3l-3.7-8.4L445.1,209.9z"/>
	<path class="st0" d="M465,213.6c-0.2-0.2-0.4-0.5-0.4-0.8v-7.1l-6.5-8.2c-0.1-0.2-0.2-0.5-0.2-0.7c0-0.4,0.1-0.7,0.3-1
		c0.2-0.3,0.5-0.5,0.9-0.5c0.5-0.1,0.8,0.1,1.1,0.5l5.7,7.5l5.7-9.4c0.3-0.5,0.6-0.7,1.1-0.8c0.3-0.1,0.6,0,0.9,0.2
		c0.2,0.2,0.3,0.5,0.3,0.9c0,0.3-0.1,0.5-0.2,0.8l-6.5,10.5v7.1c0,0.4-0.1,0.7-0.4,1c-0.2,0.3-0.5,0.5-0.9,0.5
		C465.6,213.9,465.3,213.8,465,213.6z"/>
</g>
<line class="st1" x1="322" y1="211.1" x2="472.8" y2="185.3"/>
<line class="st1" x1="322" y1="245.4" x2="472.8" y2="219.7"/>
</svg>
