<?xml version="1.0" encoding="utf-8"?>
<!-- Generator: Adobe Illustrator 24.3.0, SVG Export Plug-In . SVG Version: 6.00 Build 0)  -->
<svg version="1.1" id="Layer_1" xmlns="http://www.w3.org/2000/svg" xmlns:xlink="http://www.w3.org/1999/xlink" x="0px" y="0px"
	 viewBox="0 0 784.2 432.8" style="enable-background:new 0 0 784.2 432.8;" xml:space="preserve">
<style type="text/css">
	.st0{fill:#969696;}
	.st1{fill:none;stroke:#969696;stroke-width:2.0594;stroke-linecap:round;stroke-miterlimit:10;}
</style>
<g>
	<g>
		<g>
			<path class="st0" d="M370.2,229.5c-0.2-0.2-0.4-0.5-0.4-0.8v-17.1c0-0.4,0.1-0.7,0.4-1c0.2-0.3,0.5-0.5,0.9-0.5l5.5-0.9
				c2.1-0.4,3.8-0.2,5.3,0.5c1.4,0.7,2.5,1.7,3.3,3.1c0.7,1.4,1.1,2.9,1.1,4.5c0,1.7-0.4,3.3-1.1,4.9c-0.7,1.6-1.8,3-3.3,4.2
				c-1.4,1.2-3.2,2-5.3,2.3l-5.5,0.9C370.7,229.8,370.4,229.7,370.2,229.5z M376.2,226.4c1.5-0.3,2.8-0.8,3.9-1.6
				c1.1-0.8,2-1.8,2.6-3.1c0.6-1.2,0.9-2.6,0.9-4c0-1.5-0.3-2.7-0.9-3.7c-0.6-1-1.5-1.7-2.6-2.2c-1.1-0.4-2.4-0.5-3.9-0.3l-3.9,0.7
				v14.8L376.2,226.4z"/>
			<path class="st0" d="M393.7,224.8c-1.4-0.6-2.6-1.6-3.3-3c-0.8-1.4-1.2-3.1-1.2-5c0-2,0.4-3.8,1.2-5.4c0.8-1.7,1.9-3,3.3-4.1
				c1.4-1.1,3.1-1.8,5-2.2c1.9-0.3,3.6-0.2,5,0.4c1.4,0.6,2.5,1.6,3.3,3c0.8,1.4,1.2,3.1,1.2,5c0,2-0.5,3.8-1.2,5.4
				c-0.8,1.7-1.9,3-3.3,4.2c-1.4,1.1-3.1,1.8-5,2.2C396.9,225.6,395.2,225.5,393.7,224.8z M402.6,221.2c1.1-0.9,1.9-1.9,2.5-3.2
				c0.6-1.3,0.8-2.6,0.8-4.1c0-1.5-0.3-2.7-0.8-3.8c-0.6-1.1-1.4-1.8-2.5-2.3s-2.3-0.6-3.8-0.4c-1.5,0.3-2.7,0.8-3.8,1.7
				c-1.1,0.9-1.9,1.9-2.4,3.2c-0.6,1.3-0.8,2.6-0.8,4.1c0,1.5,0.3,2.7,0.8,3.8c0.6,1.1,1.4,1.8,2.4,2.3c1.1,0.5,2.3,0.6,3.8,0.4
				C400.2,222.6,401.5,222.1,402.6,221.2z"/>
			<path class="st0" d="M411.5,222.4c-0.3-0.3-0.5-0.6-0.5-1v-0.2c0-0.4,0.1-0.8,0.5-1.2c0.3-0.4,0.7-0.6,1.1-0.6l0.3,0
				c0.4-0.1,0.8,0,1.1,0.3c0.3,0.3,0.5,0.6,0.5,1v0.2c0,0.4-0.2,0.8-0.5,1.2c-0.3,0.4-0.7,0.6-1.1,0.6l-0.3,0
				C412.2,222.8,411.8,222.7,411.5,222.4z"/>
		</g>
	</g>
	<line class="st1" x1="368" y1="237.6" x2="414.6" y2="229.7"/>
	<line class="st1" x1="368.4" y1="203.1" x2="415" y2="195.2"/>
</g>
</svg>
